<svg width="59" height="59" viewBox="0 0 59 59" fill="none" xmlns="http://www.w3.org/2000/svg">
<rect x="1.5" y="1.5" width="56" height="56" fill="#ECE0D0" stroke="#634932" stroke-width="3"/>
<path d="M37.8636 17.2273V40.75C37.8636 45.2705 34.1209 48.9318 29.5 48.9318C24.8791 48.9318 21.1364 45.2705 21.1364 40.75V15.1818C21.1364 13.8256 21.6871 12.5249 22.6674 11.5659C23.6477 10.6069 24.9773 10.0682 26.3636 10.0682C27.75 10.0682 29.0796 10.6069 30.0599 11.5659C31.0402 12.5249 31.5909 13.8256 31.5909 15.1818V36.6591C31.5909 37.7841 30.65 38.7045 29.5 38.7045C28.35 38.7045 27.4091 37.7841 27.4091 36.6591V17.2273H24.2727V36.6591C24.2727 38.0153 24.8235 39.316 25.8038 40.275C26.7841 41.234 28.1136 41.7727 29.5 41.7727C30.8864 41.7727 32.2159 41.234 33.1962 40.275C34.1765 39.316 34.7273 38.0153 34.7273 36.6591V15.1818C34.7273 10.6614 30.9845 7 26.3636 7C21.7427 7 18 10.6614 18 15.1818V40.75C18 46.9682 23.1436 52 29.5 52C35.8564 52 41 46.9682 41 40.75V17.2273H37.8636Z" fill="#634932"/>
</svg>
