<svg width="28" height="35" viewBox="0 0 28 35" fill="none" xmlns="http://www.w3.org/2000/svg">
<rect y="11.7288" width="28" height="23.2712" rx="5" fill="#96989A" fill-opacity="0.9"/>
<path d="M22.8064 8.53002C22.8064 19.2547 22.8065 19.2547 14.2035 19.2547C5.60048 19.2547 5.60059 19.2547 5.60059 8.53002C5.60059 3.81902 9.45224 0 14.2035 0C18.9547 0 22.8064 3.81902 22.8064 8.53002ZM9.04974 9.31677C9.04974 15.0725 8.19769 15.5694 14.2035 15.5694C20.2093 15.5694 19.4381 13.6232 19.4381 9.31677C19.4381 5.01035 16.8822 3.7209 14.2035 3.7209C11.5248 3.7209 9.04974 5.71429 9.04974 9.31677Z" fill="#96989A" fill-opacity="0.9"/>
<ellipse cx="14.0406" cy="20.5901" rx="3.48985" ry="3.56108" fill="#010000"/>
<path d="M11.6055 22.7847C11.6055 22.2587 12.0319 21.8323 12.5578 21.8323H15.6038C16.1298 21.8323 16.5562 22.2587 16.5562 22.7847C16.5562 22.8933 16.529 23.0003 16.477 23.0958L16.1504 23.6956C15.8841 24.1847 15.7446 24.7327 15.7446 25.2896V28.0377C15.7446 29.0014 14.9634 29.7826 13.9997 29.7826C13.036 29.7826 12.2547 29.0014 12.2547 28.0377V25.2539C12.2547 24.7177 12.1442 24.1872 11.9301 23.6956L11.6716 23.1021C11.628 23.002 11.6055 22.8939 11.6055 22.7847Z" fill="#010000"/>
</svg>
