<svg width="115" height="46" viewBox="0 0 115 46" fill="none" xmlns="http://www.w3.org/2000/svg">
<g filter="url(#filter0_d_173_3056)">
<path d="M1.6641 38.945V33.32C2.4741 33.32 3.1641 33.275 3.7341 33.185C4.3041 33.095 4.7541 32.93 5.0841 32.69C5.4141 32.42 5.6541 32.045 5.8041 31.565C5.9541 31.055 6.0291 30.41 6.0291 29.63V1.55H14.0841V29.99C14.0841 31.97 13.8291 33.635 13.3191 34.985C12.8391 36.305 11.9841 37.295 10.7541 37.955C9.5241 38.615 7.7991 38.945 5.5791 38.945H1.6641ZM29.9076 38.54C27.1776 38.54 25.0176 38.06 23.4276 37.1C21.8376 36.14 20.6976 34.76 20.0076 32.96C19.3176 31.16 18.9726 29.015 18.9726 26.525V12.98C18.9726 10.46 19.3176 8.315 20.0076 6.545C20.6976 4.775 21.8376 3.425 23.4276 2.495C25.0176 1.535 27.1776 1.055 29.9076 1.055C32.6676 1.055 34.8426 1.535 36.4326 2.495C38.0526 3.425 39.2076 4.775 39.8976 6.545C40.5876 8.315 40.9326 10.46 40.9326 12.98V26.525C40.9326 29.015 40.5876 31.16 39.8976 32.96C39.2076 34.76 38.0526 36.14 36.4326 37.1C34.8426 38.06 32.6676 38.54 29.9076 38.54ZM29.9076 32.825C30.7476 32.825 31.3626 32.615 31.7526 32.195C32.1426 31.775 32.3976 31.235 32.5176 30.575C32.6376 29.915 32.6976 29.24 32.6976 28.55V11C32.6976 10.28 32.6376 9.605 32.5176 8.975C32.3976 8.315 32.1426 7.775 31.7526 7.355C31.3626 6.935 30.7476 6.725 29.9076 6.725C29.1276 6.725 28.5426 6.935 28.1526 7.355C27.7626 7.775 27.5076 8.315 27.3876 8.975C27.2676 9.605 27.2076 10.28 27.2076 11V28.55C27.2076 29.24 27.2526 29.915 27.3426 30.575C27.4626 31.235 27.7026 31.775 28.0626 32.195C28.4526 32.615 29.0676 32.825 29.9076 32.825ZM45.8348 38V1.55H53.8898V16.445L60.0098 1.55H67.8848L61.1348 18.02L68.1998 38H60.0098L54.7448 21.89L53.8898 23.33V38H45.8348ZM71.367 38V1.55H87.747V7.04H79.422V16.085H85.767V21.665H79.422V32.555H87.837V38H71.367ZM91.4939 38V1.55H107.874V7.04H99.5489V16.085H105.894V21.665H99.5489V32.555H107.964V38H91.4939Z" fill="white"/>
</g>
<defs>
<filter id="filter0_d_173_3056" x="0.664062" y="0.0549927" width="114.3" height="45.89" filterUnits="userSpaceOnUse" color-interpolation-filters="sRGB">
<feFlood flood-opacity="0" result="BackgroundImageFix"/>
<feColorMatrix in="SourceAlpha" type="matrix" values="0 0 0 0 0 0 0 0 0 0 0 0 0 0 0 0 0 0 127 0" result="hardAlpha"/>
<feOffset dx="3" dy="3"/>
<feGaussianBlur stdDeviation="2"/>
<feComposite in2="hardAlpha" operator="out"/>
<feColorMatrix type="matrix" values="0 0 0 0 0 0 0 0 0 0 0 0 0 0 0 0 0 0 0.25 0"/>
<feBlend mode="normal" in2="BackgroundImageFix" result="effect1_dropShadow_173_3056"/>
<feBlend mode="normal" in="SourceGraphic" in2="effect1_dropShadow_173_3056" result="shape"/>
</filter>
</defs>
</svg>
