<svg width="44" height="44" viewBox="0 0 44 44" fill="none" xmlns="http://www.w3.org/2000/svg">
<path d="M44 22C44 34.1503 34.1503 44 22 44C9.84974 44 0 34.1503 0 22C0 9.84974 9.84974 0 22 0C34.1503 0 44 9.84974 44 22Z" fill="#E7E2DC"/>
<circle cx="22" cy="22" r="11" fill="#56799A" fill-opacity="0.5"/>
<mask id="mask0_356_206" style="mask-type:alpha" maskUnits="userSpaceOnUse" x="0" y="0" width="44" height="44">
<path d="M44 22C44 34.1503 34.1503 44 22 44C9.84974 44 0 34.1503 0 22C0 9.84974 9.84974 0 22 0C34.1503 0 44 9.84974 44 22Z" fill="#E7E2DC"/>
</mask>
<g mask="url(#mask0_356_206)">
<path d="M36.6667 41.0667C36.6667 49.1668 30.1002 55.7333 22 55.7333C13.8999 55.7333 7.33337 49.1668 7.33337 41.0667C7.33337 32.9665 13.8999 26.4 22 26.4C30.1002 26.4 36.6667 32.9665 36.6667 41.0667Z" fill="#6886A3" fill-opacity="0.5"/>
</g>
</svg>
