<svg width="22" height="19" viewBox="0 0 22 19" fill="none" xmlns="http://www.w3.org/2000/svg">
<path d="M11 5.90625C11.7956 5.90625 12.5587 5.60335 13.1213 5.06418C13.6839 4.52501 14 3.79375 14 3.03125C14 2.26875 13.6839 1.53748 13.1213 0.998318C12.5587 0.459151 11.7956 0.15625 11 0.15625C10.2044 0.15625 9.44129 0.459151 8.87868 0.998318C8.31607 1.53748 8 2.26875 8 3.03125C8 3.79375 8.31607 4.52501 8.87868 5.06418C9.44129 5.60335 10.2044 5.90625 11 5.90625ZM6.5 3.39062C6.5 3.72098 6.4321 4.0481 6.30018 4.35331C6.16827 4.65852 5.97491 4.93584 5.73116 5.16944C5.4874 5.40304 5.19802 5.58834 4.87954 5.71476C4.56106 5.84118 4.21972 5.90625 3.875 5.90625C3.53028 5.90625 3.18894 5.84118 2.87046 5.71476C2.55198 5.58834 2.2626 5.40304 2.01885 5.16944C1.77509 4.93584 1.58173 4.65852 1.44982 4.35331C1.3179 4.0481 1.25 3.72098 1.25 3.39062C1.25 2.72344 1.52656 2.08358 2.01885 1.61181C2.51113 1.14004 3.17881 0.875 3.875 0.875C4.57119 0.875 5.23887 1.14004 5.73116 1.61181C6.22344 2.08358 6.5 2.72344 6.5 3.39062ZM20.75 3.39062C20.75 3.72098 20.6821 4.0481 20.5502 4.35331C20.4183 4.65852 20.2249 4.93584 19.9812 5.16944C19.7374 5.40304 19.448 5.58834 19.1295 5.71476C18.8111 5.84118 18.4697 5.90625 18.125 5.90625C17.7803 5.90625 17.4389 5.84118 17.1205 5.71476C16.802 5.58834 16.5126 5.40304 16.2688 5.16944C16.0251 4.93584 15.8317 4.65852 15.6998 4.35331C15.5679 4.0481 15.5 3.72098 15.5 3.39062C15.5 2.72344 15.7766 2.08358 16.2688 1.61181C16.7611 1.14004 17.4288 0.875 18.125 0.875C18.8212 0.875 19.4889 1.14004 19.9812 1.61181C20.4734 2.08358 20.75 2.72344 20.75 3.39062ZM6.03275 7.34375C5.60597 7.85323 5.37387 8.48729 5.375 9.14062V14.5312C5.375 15.4189 5.5985 16.2563 5.99525 16.9944C5.42365 17.2824 4.78412 17.4241 4.13861 17.4057C3.49309 17.3874 2.86347 17.2095 2.31073 16.8895C1.75799 16.5694 1.30086 16.118 0.983628 15.5789C0.666395 15.0398 0.499807 14.4314 0.5 13.8125V9.14062C0.5 8.66406 0.697544 8.20702 1.04917 7.87004C1.40081 7.53306 1.87772 7.34375 2.375 7.34375H6.03275ZM16.0048 16.9944C16.4137 16.2326 16.6263 15.388 16.625 14.5312V9.14062C16.625 8.46069 16.379 7.83609 15.9672 7.34375H19.625C20.1223 7.34375 20.5992 7.53306 20.9508 7.87004C21.3025 8.20702 21.5 8.66406 21.5 9.14062V13.8125C21.5002 14.4314 21.3336 15.0398 21.0164 15.5789C20.6991 16.118 20.242 16.5694 19.6893 16.8895C19.1365 17.2095 18.5069 17.3874 17.8614 17.4057C17.2159 17.4241 16.5763 17.2824 16.0048 16.9944ZM8.375 7.34375C7.87772 7.34375 7.40081 7.53306 7.04917 7.87004C6.69754 8.20702 6.5 8.66406 6.5 9.14062V14.5312C6.5 15.675 6.97411 16.7719 7.81802 17.5806C8.66193 18.3894 9.80653 18.8438 11 18.8438C12.1935 18.8438 13.3381 18.3894 14.182 17.5806C15.0259 16.7719 15.5 15.675 15.5 14.5312V9.14062C15.5 8.66406 15.3025 8.20702 14.9508 7.87004C14.5992 7.53306 14.1223 7.34375 13.625 7.34375H8.375Z" fill="#ECE0D0"/>
</svg>
