<svg width="24" height="29" viewBox="0 0 24 29" fill="none" xmlns="http://www.w3.org/2000/svg">
<path d="M14.5 2.07143H9.5C9.43413 2.07065 9.36877 2.08351 9.30777 2.10926C9.24677 2.13501 9.19135 2.17312 9.14477 2.22137C9.09819 2.26961 9.06139 2.32701 9.03652 2.39019C9.01166 2.45337 8.99925 2.52106 9 2.58929V4.14286H15V2.58929C15.0008 2.52106 14.9883 2.45337 14.9635 2.39019C14.9386 2.32701 14.9018 2.26961 14.8552 2.22137C14.8087 2.17312 14.7532 2.13501 14.6922 2.10926C14.6312 2.08351 14.5659 2.07065 14.5 2.07143Z" fill="#FF4545"/>
<path d="M14.25 2.07143H9.75C9.6837 2.07143 9.62011 2.09871 9.57322 2.14727C9.52634 2.19583 9.5 2.26169 9.5 2.33036V4.14286H14.5V2.33036C14.5 2.26169 14.4737 2.19583 14.4268 2.14727C14.3799 2.09871 14.3163 2.07143 14.25 2.07143Z" fill="#FF4545"/>
<path d="M23.9719 4.14286H17V1.03571C17 0.761026 16.8946 0.497588 16.7071 0.303354C16.5196 0.10912 16.2652 0 16 0H8C7.73478 0 7.48043 0.10912 7.29289 0.303354C7.10536 0.497588 7 0.761026 7 1.03571V4.14286H0.0281248L0 6.73214H2.0625L3.31812 27.058C3.34991 27.5837 3.5738 28.077 3.94428 28.4378C4.31476 28.7985 4.804 28.9995 5.3125 29H18.6875C19.1957 28.9999 19.6848 28.7995 20.0555 28.4394C20.4262 28.0793 20.6506 27.5865 20.6831 27.0613L21.9375 6.73214H24L23.9719 4.14286ZM7 24.8571L6.4375 8.28571H8.5L9.0625 24.8571H7ZM13 24.8571H11V8.28571H13V24.8571ZM14.5 4.14286H9.5V2.33036C9.5 2.26169 9.52634 2.19583 9.57322 2.14727C9.62011 2.09871 9.6837 2.07143 9.75 2.07143H14.25C14.3163 2.07143 14.3799 2.09871 14.4268 2.14727C14.4737 2.19583 14.5 2.26169 14.5 2.33036V4.14286ZM17 24.8571H14.9375L15.5 8.28571H17.5625L17 24.8571Z" fill="#FF4545"/>
</svg>
