<svg width="1060" height="1080" viewBox="0 0 1060 1080" fill="none" xmlns="http://www.w3.org/2000/svg">
<ellipse cx="736.5" cy="660" rx="736.5" ry="713" fill="url(#paint0_linear_275_1251)"/>
<path d="M299.612 812.04H243.037V831.7H299.612V812.04Z" fill="#EBEBEB" fill-opacity="0.44"/>
<path d="M268.039 836.831H211.464V856.491H268.039V836.831Z" fill="#EBEBEB" fill-opacity="0.44"/>
<path d="M429.962 443.601H373.388V463.261H429.962V443.601Z" fill="#EBEBEB" fill-opacity="0.44"/>
<path d="M398.407 468.392H341.832V488.052H398.407V468.392Z" fill="#EBEBEB" fill-opacity="0.44"/>
<path d="M366.975 443.601H310.4V463.261H366.975V443.601Z" fill="#EBEBEB" fill-opacity="0.44"/>
<path d="M950.328 836.831H893.753V856.491H950.328V836.831Z" fill="#EBEBEB" fill-opacity="0.44"/>
<path d="M918.772 218.004H862.197V237.665H918.772V218.004Z" fill="#EBEBEB" fill-opacity="0.44"/>
<path d="M950.328 242.795H893.753V262.456H950.328V242.795Z" fill="#EBEBEB" fill-opacity="0.44"/>
<path d="M268.039 218.004H211.464V237.665H268.039V218.004Z" fill="#EBEBEB" fill-opacity="0.44"/>
<path d="M461.816 349.023H206V360.004H461.816V349.023Z" fill="#EBEBEB" fill-opacity="0.44"/>
<path d="M243.195 403.243H233.233L229.227 360.004H243.195V403.243Z" fill="#EBEBEB" fill-opacity="0.44"/>
<path d="M424.621 403.243H434.583L438.589 360.004H424.621V403.243Z" fill="#EBEBEB" fill-opacity="0.44"/>
<path d="M229.227 360.004H243.177V374.885H230.597L229.227 360.004Z" fill="#DBDBDB"/>
<path d="M438.572 360.004L437.201 374.885H424.621V360.004H438.572Z" fill="#DBDBDB"/>
<path d="M279.899 290.322C269.796 304.009 259.254 319.909 256.689 337.075C256.689 337.339 257.076 337.426 257.128 337.075C258.292 332.389 259.789 327.791 261.609 323.318C268.25 321.561 274.768 319.997 278.265 313.391C281.761 306.785 281.375 297.771 280.689 290.374C280.654 290.076 280.11 290.058 279.899 290.322Z" fill="#EBEBEB" fill-opacity="0.44"/>
<path d="M261.696 323.283C266.154 312.842 272.154 303.129 279.494 294.468C279.494 294.468 279.617 294.468 279.494 294.468C274.869 300.441 270.805 306.829 267.354 313.549C270.709 310.158 274.382 307.119 277.544 303.499C277.544 303.499 277.702 303.499 277.65 303.605C274.613 307.657 271.037 311.275 267.02 314.357C265.93 316.395 264.824 318.433 263.699 320.454L264.542 320.032C264.235 320.202 263.918 320.355 263.594 320.489C263.067 321.455 262.54 322.422 261.995 323.388C261.907 323.687 261.608 323.494 261.696 323.283Z" fill="#A6A6A6"/>
<path d="M265.087 319.734C267.802 318.179 270.392 316.417 272.835 314.463C272.835 314.463 273.011 314.463 272.941 314.463C270.569 316.511 267.969 318.28 265.192 319.734C265.069 319.98 264.964 319.804 265.087 319.734Z" fill="#A6A6A6"/>
<path d="M255.582 336.917C255.594 336.956 255.619 336.991 255.652 337.015C255.685 337.039 255.725 337.053 255.766 337.053C255.808 337.053 255.848 337.039 255.881 337.015C255.914 336.991 255.939 336.956 255.951 336.917C255.951 331.259 255.951 325.584 255.951 319.909C257.392 316.975 260.501 315.359 262.662 313.022C264.219 311.308 265.575 309.421 266.704 307.4C269.31 302.572 270.9 297.263 271.377 291.798C271.974 285.754 269.62 265.794 267.143 266.48C265.807 266.831 261.538 276.723 260.396 279.991C258.554 285.386 257.208 290.937 256.373 296.577C254.565 309.949 254.3 323.484 255.582 336.917V336.917Z" fill="#EBEBEB" fill-opacity="0.44"/>
<path d="M255.529 312.6C256.099 305.41 257.275 298.281 259.043 291.288C260.356 283.845 262.841 276.658 266.405 269.994C266.405 269.871 266.651 269.994 266.598 270.099C264.03 275.287 262.044 280.743 260.677 286.369C260.923 285.964 261.239 285.578 261.503 285.191C261.767 284.805 261.854 285.191 261.767 285.35C261.423 285.975 261.017 286.563 260.554 287.107C259.236 292.377 258.288 297.912 257.462 303.359L257.62 303.113C257.62 303.113 257.725 303.113 257.62 303.113C257.515 303.113 257.409 303.464 257.304 303.657C256.9 306.416 256.513 309.174 256.127 311.915C261.168 307.911 265.13 302.711 267.652 296.787C267.652 296.787 267.652 296.787 267.652 296.787C265.545 303.156 261.473 308.692 256.021 312.6L255.705 314.814C255.705 314.955 255.441 314.92 255.441 314.814C255.441 314.146 255.441 313.496 255.441 312.846C255.426 312.825 255.416 312.801 255.413 312.776C255.409 312.75 255.412 312.724 255.42 312.7C255.429 312.676 255.443 312.654 255.462 312.637C255.481 312.619 255.504 312.607 255.529 312.6V312.6Z" fill="#A6A6A6"/>
<path d="M257.866 302.146C261.712 296.689 265.069 290.904 267.899 284.858C267.899 284.858 268.057 284.858 268.022 284.858C265.774 291.212 262.393 297.105 258.042 302.252C258.024 302.26 258.003 302.264 257.983 302.264C257.963 302.263 257.943 302.257 257.926 302.246C257.908 302.236 257.894 302.221 257.883 302.204C257.873 302.186 257.867 302.167 257.866 302.146Z" fill="#A6A6A6"/>
<path d="M252.806 322.422C252.738 326.175 252.296 329.913 251.488 333.579C251.488 333.965 251.611 334.369 251.664 334.791C252.814 330.743 253.48 326.574 253.649 322.369C253.687 322.312 253.707 322.245 253.707 322.176C253.707 322.107 253.687 322.04 253.649 321.983V321.983C253.806 316.342 253.37 310.7 252.349 305.151C250.592 294.749 246.78 284.77 239.523 277.039C239.464 276.988 239.395 276.951 239.319 276.931C239.244 276.911 239.165 276.909 239.089 276.924C239.013 276.939 238.941 276.972 238.879 277.019C238.817 277.066 238.767 277.127 238.733 277.197C235.798 284.647 236.817 293.519 239.312 300.934C240.664 304.955 242.6 308.756 245.058 312.214C247.623 315.657 250.785 318.609 252.806 322.422Z" fill="#EBEBEB" fill-opacity="0.44"/>
<path d="M240.454 280.465C247.632 291.754 251.861 304.664 252.753 318.012C252.753 318.24 252.384 318.293 252.349 318.012C252.191 316.835 251.998 315.657 251.804 314.498C248.795 311.886 246.148 308.884 243.933 305.572C243.933 305.572 243.933 305.449 244.039 305.572C246.396 308.468 248.924 311.22 251.611 313.813C251.119 310.896 250.539 308.032 249.854 305.203L249.309 304.571C249.186 304.43 249.397 304.22 249.52 304.36L249.678 304.553C248.738 300.685 247.565 296.877 246.164 293.151C244.257 291.219 242.588 289.066 241.192 286.738C241.192 286.738 241.192 286.632 241.192 286.738C242.176 288.199 243.237 289.607 244.372 290.954C244.829 291.481 245.339 291.991 245.813 292.5C244.233 288.46 242.354 284.542 240.191 280.781C240.05 280.448 240.349 280.307 240.454 280.465Z" fill="#A6A6A6"/>
<path d="M241.807 294.222C244.039 297.209 246.569 300.055 248.624 303.148C248.638 303.166 248.644 303.19 248.641 303.213C248.638 303.236 248.625 303.257 248.607 303.271C248.588 303.285 248.565 303.291 248.542 303.287C248.519 303.284 248.498 303.272 248.484 303.253C245.847 300.568 243.557 297.564 241.667 294.31C241.632 294.205 241.807 294.134 241.807 294.222Z" fill="#A6A6A6"/>
<path d="M248.976 303.815L249.063 303.921C249.063 303.921 249.063 304.079 248.958 304.026V303.921C248.958 303.921 248.835 303.815 248.976 303.815Z" fill="#A6A6A6"/>
<path d="M228.63 299.089C229.442 305.322 231.952 311.212 235.886 316.114C237.523 318.03 239.539 319.586 241.808 320.682C244.355 321.93 247.078 323.388 249.661 324.425C250.884 327.612 251.785 330.914 252.349 334.281C252.349 334 252.525 333.702 252.595 333.421C250.944 318.89 241.544 306.486 229.509 298.544C229.416 298.495 229.313 298.471 229.208 298.474C229.103 298.478 229.001 298.509 228.912 298.564C228.824 298.619 228.751 298.696 228.701 298.789C228.651 298.881 228.627 298.984 228.63 299.089V299.089Z" fill="#EBEBEB" fill-opacity="0.44"/>
<path d="M232.794 303.376C232.781 303.358 232.775 303.336 232.776 303.314C232.777 303.291 232.784 303.27 232.798 303.253C232.812 303.235 232.831 303.222 232.852 303.216C232.873 303.21 232.896 303.211 232.917 303.218C239.518 308.126 244.781 314.615 248.22 322.088C248.235 322.127 248.236 322.17 248.222 322.209C248.208 322.248 248.181 322.281 248.145 322.302C248.109 322.323 248.067 322.331 248.026 322.324C247.985 322.317 247.948 322.296 247.921 322.264C247.377 321.28 246.797 320.331 246.164 319.4C243.367 318.652 240.82 317.172 238.785 315.113C238.785 315.113 238.785 314.99 238.785 315.113C239.853 316.066 241.033 316.886 242.299 317.555C243.424 318.117 244.618 318.469 245.813 318.925C244.794 317.309 243.74 315.763 242.633 314.269C239.672 313.14 236.894 311.577 234.393 309.631C234.305 309.631 234.393 309.438 234.393 309.49C236.874 310.991 239.431 312.363 242.053 313.602C240.39 311.383 238.582 309.276 236.642 307.294C235.71 306.802 234.779 306.293 233.866 305.766C233.866 305.766 233.866 305.608 233.866 305.625C234.612 305.894 235.325 306.248 235.992 306.679C235.096 305.572 233.989 304.43 232.794 303.376Z" fill="#A6A6A6"/>
<path d="M233.022 308.384C233.185 308.48 233.338 308.592 233.479 308.717C233.312 308.647 233.153 308.559 233.005 308.454C233.005 308.454 233.022 308.331 233.022 308.384Z" fill="#A6A6A6"/>
<path d="M267.424 349.005H242.668L243.88 332.788L244.355 327.5H265.509L265.983 332.788L267.424 349.005Z" fill="#DBDBDB"/>
<path d="M265.983 332.788H243.88L244.355 327.5H265.509L265.983 332.788Z" fill="#C7C7C7" fill-opacity="0.35"/>
<path d="M267.195 323.16H242.668V328.589H267.195V323.16Z" fill="#DBDBDB"/>
<path d="M347.824 348.97V275.159H329.235V348.97H347.824Z" fill="#C7C7C7" fill-opacity="0.35"/>
<path d="M347.824 279.323V271.206H329.235V279.323H347.824Z" fill="#DBDBDB"/>
<path d="M347.824 292.711V289.707H329.235V292.711H347.824Z" fill="#DBDBDB"/>
<path d="M347.824 339.289V331.172H329.235V339.289H347.824Z" fill="#DBDBDB"/>
<path d="M360.808 348.97V262.86H347.824V348.97H360.808Z" fill="#DBDBDB"/>
<path d="M358.172 304.079V270.96H350.371V304.079H358.172Z" fill="#EBEBEB" fill-opacity="0.44"/>
<path d="M453.328 339.636L392.089 279.099L382.961 288.333L444.2 348.87L453.328 339.636Z" fill="#C7C7C7" fill-opacity="0.35"/>
<path d="M437.16 327.247L413.607 303.964L408.123 309.511L431.676 332.795L437.16 327.247Z" fill="#DBDBDB"/>
<path d="M382.858 348.987V283.575H360.79V348.987H382.858Z" fill="#A6A6A6"/>
<path d="M382.858 342.047V335.951H360.79V342.047H382.858Z" fill="#C7C7C7" fill-opacity="0.35"/>
<path d="M382.875 331.962V329.59H360.808V331.962H382.875Z" fill="#C7C7C7" fill-opacity="0.35"/>
<path d="M305.116 349.017L329.356 292.541L315.358 286.533L291.117 343.009L305.116 349.017Z" fill="#A6A6A6"/>
<path d="M307.681 343.023L309.94 337.76L295.942 331.752L293.683 337.015L307.681 343.023Z" fill="#C7C7C7" fill-opacity="0.35"/>
<path d="M322.092 309.419L324.353 304.156L310.356 298.145L308.095 303.408L322.092 309.419Z" fill="#C7C7C7" fill-opacity="0.35"/>
<path d="M319.655 315.062L320.529 313.028L306.532 307.017L305.658 309.051L319.655 315.062Z" fill="#C7C7C7" fill-opacity="0.35"/>
<path d="M726.207 677.596V939.14H884.335V677.596H726.207ZM869.963 842.611H740.562V774.528H869.963V842.611ZM869.963 758.276H740.562V690.228H869.963V758.276Z" fill="#DBDBDB"/>
<path d="M955.809 677.596H884.318V939.14H955.809V677.596Z" fill="#EBEBEB" fill-opacity="0.44"/>
<path d="M771.309 690.228H740.562V758.311H771.309V690.228Z" fill="#EBEBEB" fill-opacity="0.44"/>
<path d="M870.403 923.169H740.931V857.37H870.403V923.169ZM741.809 922.29H869.524V858.248H741.809V922.29Z" fill="#EBEBEB" fill-opacity="0.44"/>
<path d="M818.431 876.064H792.884V885.394H818.431V876.064Z" fill="#EBEBEB" fill-opacity="0.44"/>
<path d="M771.309 774.528H740.562V842.611H771.309V774.528Z" fill="#EBEBEB" fill-opacity="0.44"/>
<path d="M852.271 842.611V779.834H830.642V842.611H852.271Z" fill="#A6A6A6"/>
<path d="M852.253 832.526V818.98H830.624V832.526H852.253Z" fill="#DBDBDB"/>
<path d="M852.253 808.087V800.057H830.624V808.087H852.253Z" fill="#DBDBDB"/>
<path d="M832.961 705.778H778.284V758.311H832.961V705.778Z" fill="#EBEBEB" fill-opacity="0.44"/>
<path d="M853.746 705.778H832.961V758.311H853.746V705.778Z" fill="#C7C7C7" fill-opacity="0.35"/>
<path d="M778.284 732.044H832.961L790.267 733.397L778.284 732.044Z" fill="#C7C7C7" fill-opacity="0.35"/>
<path d="M832.961 751.969H778.284L820.979 753.321L832.961 751.969Z" fill="#C7C7C7" fill-opacity="0.35"/>
<path d="M778.284 717.356H812.914L782.132 718.463L778.284 717.356Z" fill="#C7C7C7" fill-opacity="0.35"/>
<path d="M832.961 744.238H798.331L829.113 745.345L832.961 744.238Z" fill="#C7C7C7" fill-opacity="0.35"/>
<path d="M791.409 711.523H830.466L823.948 712.173L791.409 711.523Z" fill="#C7C7C7" fill-opacity="0.35"/>
<path d="M783.607 737.684H822.665L816.147 738.334L783.607 737.684Z" fill="#C7C7C7" fill-opacity="0.35"/>
<path d="M807.625 722.363H832.961L837.494 724.138L807.625 722.363Z" fill="#EBEBEB" fill-opacity="0.44"/>
<path d="M771.309 722.363H796.644L801.177 724.138L771.309 722.363Z" fill="#EBEBEB" fill-opacity="0.44"/>
<path d="M803.831 745.977H778.477L773.962 747.752L803.831 745.977Z" fill="#EBEBEB" fill-opacity="0.44"/>
<path d="M832.961 739.986H853.307L857.84 741.743L832.961 739.986Z" fill="#C7C7C7" fill-opacity="0.35"/>
<path d="M840.06 732.044H855.837L853.746 730.604L840.06 732.044Z" fill="#C7C7C7" fill-opacity="0.35"/>
<path d="M869.946 775.653H852.253V842.611H869.946V775.653Z" fill="#EBEBEB" fill-opacity="0.44"/>
<path d="M861.108 788.865C860.378 788.865 859.665 788.649 859.058 788.243C858.451 787.838 857.979 787.262 857.699 786.587C857.42 785.913 857.347 785.171 857.489 784.456C857.632 783.74 857.983 783.083 858.499 782.567C859.015 782.051 859.673 781.699 860.388 781.557C861.104 781.414 861.846 781.487 862.52 781.767C863.194 782.046 863.771 782.519 864.176 783.126C864.581 783.732 864.798 784.446 864.798 785.176C864.798 786.154 864.409 787.093 863.717 787.785C863.025 788.476 862.087 788.865 861.108 788.865Z" fill="white"/>
<path d="M861.108 787.284C860.691 787.284 860.283 787.16 859.937 786.929C859.59 786.697 859.32 786.368 859.16 785.982C859 785.597 858.959 785.173 859.04 784.764C859.121 784.355 859.322 783.98 859.617 783.685C859.912 783.39 860.288 783.189 860.697 783.108C861.106 783.026 861.529 783.068 861.915 783.228C862.3 783.387 862.629 783.657 862.861 784.004C863.093 784.351 863.216 784.759 863.216 785.176C863.216 785.735 862.994 786.271 862.599 786.666C862.203 787.062 861.667 787.284 861.108 787.284V787.284Z" fill="#A6A6A6"/>
<path d="M869.963 832.052V815.765H852.271V832.052H869.963Z" fill="white"/>
<path d="M830.625 828.801H763.666V842.717H830.625V828.801Z" fill="#C7C7C7" fill-opacity="0.35"/>
<path d="M817.412 835.759C817.408 835.029 817.622 834.313 818.025 833.704C818.428 833.095 819.003 832.62 819.677 832.338C820.351 832.056 821.093 831.98 821.81 832.121C822.527 832.261 823.186 832.611 823.704 833.126C824.222 833.642 824.575 834.299 824.719 835.015C824.863 835.731 824.791 836.474 824.512 837.149C824.233 837.824 823.76 838.402 823.153 838.808C822.546 839.214 821.832 839.431 821.101 839.431C820.126 839.431 819.19 839.045 818.499 838.357C817.807 837.668 817.416 836.735 817.412 835.759V835.759Z" fill="white"/>
<path d="M818.993 835.759C818.993 835.342 819.117 834.934 819.348 834.588C819.58 834.241 819.909 833.971 820.295 833.811C820.68 833.651 821.104 833.61 821.513 833.691C821.922 833.772 822.298 833.973 822.592 834.268C822.887 834.563 823.088 834.939 823.169 835.348C823.251 835.757 823.209 836.181 823.049 836.566C822.89 836.951 822.62 837.28 822.273 837.512C821.926 837.744 821.519 837.867 821.102 837.867C820.542 837.867 820.006 837.645 819.611 837.25C819.215 836.854 818.993 836.318 818.993 835.759V835.759Z" fill="#A6A6A6"/>
<path d="M774.208 842.699H790.495V828.784H774.208V842.699Z" fill="white"/>
<path d="M953.719 815.905C936.869 838.746 919.317 865.188 915.065 893.792C915.065 894.231 915.715 894.372 915.803 893.933C917.75 886.154 920.239 878.522 923.253 871.092C934.339 868.035 945.197 865.54 951.013 854.541C956.952 843.244 956.196 828.52 955.072 816.204C954.949 815.501 954.053 815.466 953.719 815.905Z" fill="#FFC727"/>
<path d="M923.393 870.828C930.966 853.838 940.664 836.796 953.016 822.828C953.016 822.828 953.227 822.828 953.157 822.968C945.074 832.913 938.925 843.736 932.934 854.752C938.503 849.094 944.618 844.017 949.906 838.025C950.012 837.902 950.17 838.025 950.064 838.184C944.793 844.491 939.101 851.326 932.266 855.982C930.421 859.355 928.576 862.764 926.714 866.155C927.171 865.891 927.645 865.663 928.102 865.434L928.19 865.557C927.663 865.821 927.153 866.102 926.609 866.33L923.938 871.127C923.727 871.496 923.235 871.18 923.393 870.828Z" fill="#263238" fill-opacity="0.88"/>
<path d="M929.016 864.89C933.548 862.361 937.872 859.476 941.947 856.263C942.052 856.175 942.228 856.263 942.105 856.421C938.155 859.831 933.828 862.778 929.209 865.206C929.169 865.217 929.126 865.214 929.087 865.199C929.049 865.183 929.016 865.156 928.994 865.12C928.972 865.084 928.963 865.043 928.967 865.001C928.971 864.96 928.988 864.921 929.016 864.89V864.89Z" fill="#263238" fill-opacity="0.88"/>
<path d="M913.08 889.54C913.08 889.892 913.712 889.892 913.695 889.54C913.695 880.105 913.695 870.653 913.853 861.183C916.26 856.316 921.443 853.61 925.045 849.709C927.635 846.863 929.887 843.727 931.756 840.362C936.097 832.321 938.751 823.479 939.557 814.377C940.559 804.291 936.729 771.032 932.529 772.209C930.333 772.806 923.2 789.287 921.32 794.716C918.245 803.698 915.998 812.944 914.608 822.336C911.112 844.474 911.393 867.226 913.08 889.54Z" fill="#FFC727"/>
<path d="M912.974 848.901C913.484 836.971 916.172 824.936 918.685 813.375C921.39 800.918 924.553 789.199 930.983 778.095C931.007 778.053 931.046 778.022 931.092 778.009C931.138 777.996 931.188 778.001 931.229 778.025C931.271 778.048 931.302 778.087 931.316 778.133C931.329 778.179 931.323 778.229 931.3 778.271C927.031 786.913 923.726 795.998 921.443 805.363C921.865 804.696 922.392 804.063 922.831 803.413C923.007 803.167 923.428 803.413 923.253 803.659C922.683 804.667 922.012 805.615 921.25 806.488C921.236 806.494 921.221 806.497 921.206 806.497C921.191 806.497 921.176 806.494 921.162 806.488C918.966 815.396 917.367 824.497 916.014 833.58C916.123 833.471 916.223 833.354 916.313 833.229C916.313 833.229 916.506 833.229 916.453 833.334C916.401 833.44 916.102 833.949 915.926 834.248C915.241 838.851 914.608 843.454 913.958 848.023C922.181 840.995 929.191 832.737 933.145 822.546C933.145 822.546 933.232 822.546 933.145 822.546C929.279 833.088 923.165 842.506 913.818 848.901C913.642 850.131 913.466 851.361 913.308 852.591C913.308 852.837 912.851 852.767 912.851 852.591C912.851 851.519 912.851 850.43 912.957 849.34C912.922 849.315 912.893 849.281 912.874 849.242C912.855 849.203 912.846 849.16 912.848 849.116C912.849 849.073 912.862 849.03 912.884 848.993C912.906 848.955 912.937 848.924 912.974 848.901V848.901Z" fill="#263238" fill-opacity="0.88"/>
<path d="M916.875 831.63C923.294 822.54 928.892 812.898 933.601 802.816C933.601 802.71 933.865 802.816 933.812 802.903C930.059 813.482 924.428 823.296 917.191 831.876C917.05 832.034 916.752 831.823 916.875 831.63Z" fill="#263238" fill-opacity="0.88"/>
<path d="M925.273 800.514C927.874 795.911 930.544 791.43 933.057 786.757C933.057 786.616 933.303 786.757 933.25 786.862C931.248 791.755 928.708 796.411 925.677 800.742C925.449 801.041 925.062 800.777 925.273 800.514Z" fill="#263238" fill-opacity="0.88"/>
<path d="M906.702 862.289C906.58 868.537 905.844 874.757 904.506 880.861C904.611 881.528 904.699 882.196 904.805 882.899C906.722 876.154 907.837 869.207 908.125 862.202C908.181 862.105 908.21 861.996 908.21 861.885C908.21 861.774 908.181 861.665 908.125 861.569V861.569C908.392 852.181 907.697 842.791 906.052 833.545C903.135 816.221 896.758 799.618 884.687 786.634C884.587 786.548 884.468 786.487 884.341 786.454C884.213 786.421 884.079 786.418 883.95 786.446C883.821 786.473 883.7 786.529 883.596 786.611C883.493 786.692 883.409 786.796 883.352 786.915C878.467 799.302 880.172 814.078 884.318 826.447C886.579 833.14 889.805 839.468 893.894 845.229C898.058 851.01 903.346 855.929 906.702 862.289Z" fill="#FFC727"/>
<path d="M886.127 792.397C897.565 810.968 905.454 833.001 906.508 854.928C906.508 855.314 905.876 855.42 905.823 855.033C905.542 853.048 905.243 851.097 904.927 849.147C899.95 844.753 895.583 839.713 891.943 834.16C891.943 834.072 892.031 833.949 892.101 834.037C896.033 838.855 900.245 843.437 904.716 847.759C903.891 842.91 902.959 838.148 901.782 833.44C901.466 833.088 901.167 832.719 900.869 832.368C900.57 832.017 901.009 831.806 901.202 832.034L901.483 832.333C899.87 825.889 897.876 819.547 895.51 813.34C892.593 809.826 889.325 806.857 887.217 802.675L887.357 802.587C889.114 804.977 890.713 807.384 892.628 809.615C893.401 810.494 894.262 811.372 895.053 812.18C892.416 805.452 889.286 798.928 885.688 792.66C885.671 792.604 885.673 792.543 885.694 792.488C885.715 792.433 885.754 792.386 885.804 792.356C885.855 792.325 885.914 792.313 885.973 792.32C886.032 792.328 886.086 792.355 886.127 792.397V792.397Z" fill="#263238" fill-opacity="0.88"/>
<path d="M888.377 815.308C892.066 820.28 896.283 825.041 899.727 830.189C899.815 830.33 899.604 830.488 899.481 830.365C895.095 825.877 891.277 820.867 888.113 815.448C888.096 815.29 888.377 815.097 888.377 815.308Z" fill="#263238" fill-opacity="0.88"/>
<path d="M900.307 831.331L900.465 831.489C900.57 831.595 900.465 831.771 900.307 831.665L900.148 831.507C900.025 831.402 900.201 831.226 900.307 831.331Z" fill="#263238" fill-opacity="0.88"/>
<path d="M868.189 828.099C869.545 838.474 873.727 848.278 880.277 856.439C882.972 859.639 886.305 862.242 890.063 864.082C894.315 866.172 898.743 868.597 903.135 870.319C905.222 875.626 906.77 881.13 907.756 886.747C907.897 886.272 908.037 885.78 908.195 885.288C905.367 861.112 889.712 840.433 869.682 827.15C869.525 827.053 869.344 827.002 869.16 827.004C868.975 827.005 868.795 827.058 868.639 827.157C868.483 827.256 868.358 827.397 868.279 827.563C868.199 827.73 868.168 827.915 868.189 828.099Z" fill="#FFC727"/>
<path d="M875.111 835.249C874.971 835.126 875.111 834.88 875.322 834.986C886.326 843.167 895.098 853.981 900.833 866.436C900.974 866.77 900.535 867.051 900.341 866.717C899.41 865.101 898.462 863.502 897.495 861.956C892.927 861.095 888.605 857.879 885.196 854.822C885.108 854.734 885.196 854.611 885.337 854.682C887.085 856.272 889.028 857.636 891.117 858.74C892.98 859.689 895 860.286 896.933 861.042C895.176 858.354 893.419 855.771 891.662 853.276C886.726 851.398 882.096 848.799 877.922 845.563C877.799 845.457 877.922 845.247 878.063 845.334C882.197 847.825 886.455 850.106 890.819 852.169C888.033 848.474 885.023 844.953 881.805 841.627C880.259 840.819 878.678 839.993 877.184 839.115C877.062 839.115 877.184 838.834 877.184 838.886C878.422 839.328 879.602 839.918 880.698 840.643C878.977 838.816 877.114 837.006 875.111 835.249Z" fill="#263238" fill-opacity="0.88"/>
<path d="M875.551 843.613C875.814 843.778 876.066 843.96 876.306 844.157C876.394 844.157 876.306 844.315 876.218 844.28C875.934 844.156 875.663 844.003 875.41 843.824C875.27 843.736 875.41 843.507 875.551 843.613Z" fill="#263238" fill-opacity="0.88"/>
<path d="M939.435 939.14H884.564L888.992 889.171L889.975 878.155H934.041L935.007 889.171L939.435 939.14Z" fill="#455A64"/>
<path d="M935.007 889.171H888.992L889.976 878.155H934.041L935.007 889.171Z" fill="#263238" fill-opacity="0.88"/>
<path d="M936.658 870.442H887.34V881.353H936.658V870.442Z" fill="#455A64"/>
<path d="M439.222 748.929C431.439 753.532 423.585 757.995 415.714 762.423C407.842 766.85 399.901 771.207 392.012 775.547C384.123 779.887 376.199 784.156 368.135 788.373L356.134 794.663C352.111 796.701 348.105 798.81 344.046 800.813C347.929 798.493 351.865 796.262 355.765 793.978L367.555 787.301C375.426 782.874 383.368 778.516 391.256 774.177C399.145 769.837 407.069 765.585 415.134 761.368C423.198 757.152 431.14 752.97 439.222 748.929Z" fill="#DBDBDB"/>
<path d="M350.74 748.929C358.26 752.443 365.71 756.238 373.124 759.998C380.539 763.758 387.918 767.641 395.332 771.453C402.747 775.266 410.038 779.237 417.347 783.225L428.311 789.217C431.93 791.272 435.585 793.275 439.187 795.366C435.409 793.609 431.702 791.729 427.942 789.902L416.785 784.297C409.371 780.537 401.991 776.654 394.594 772.841C387.198 769.029 379.889 765.058 372.579 761.07C365.27 757.081 357.997 753.075 350.74 748.929Z" fill="#DBDBDB"/>
<path d="M529.039 748.929C521.273 753.532 513.419 757.995 505.548 762.423C497.677 766.85 489.735 771.207 481.829 775.547C473.922 779.887 466.016 784.156 457.951 788.373L445.951 794.663C441.928 796.701 437.922 798.81 433.881 800.813C437.764 798.493 441.682 796.262 445.582 793.978L457.372 787.301C465.243 782.874 473.185 778.516 481.091 774.177C488.997 769.837 496.904 765.585 504.968 761.368C513.033 757.152 520.957 752.97 529.039 748.929Z" fill="#DBDBDB"/>
<path d="M440.592 748.929C448.112 752.443 455.562 756.238 462.994 759.998C470.426 763.758 477.788 767.641 485.184 771.453C492.581 775.266 499.908 779.237 507.217 783.225L518.163 789.217C521.8 791.272 525.437 793.275 529.039 795.366C525.279 793.609 521.554 791.729 517.812 789.902L506.655 784.297C499.223 780.537 491.861 776.654 484.464 772.841C477.067 769.029 469.741 765.058 462.432 761.07C455.123 757.081 447.813 753.075 440.592 748.929Z" fill="#DBDBDB"/>
<path d="M512.628 736.49L517.372 765.04L549.613 939.14H554.814L531.375 765.04L527.914 736.49H512.628Z" fill="#DBDBDB"/>
<path d="M527.914 736.49H512.628L517.372 765.04H531.375L527.914 736.49Z" fill="#C7C7C7" fill-opacity="0.35"/>
<path d="M411.374 939.14H416.574L448.815 765.04L453.576 736.49H438.291L434.829 765.04L411.374 939.14Z" fill="#DBDBDB"/>
<path d="M438.291 736.49L434.83 765.04H448.815L453.577 736.49H438.291Z" fill="#C7C7C7" fill-opacity="0.35"/>
<path d="M314.669 939.14H319.87L352.111 765.04L356.872 736.49H341.586L338.125 765.04L314.669 939.14Z" fill="#DBDBDB"/>
<path d="M338.125 765.04H352.111L356.872 736.49H341.586L338.125 765.04Z" fill="#C7C7C7" fill-opacity="0.35"/>
<path d="M322.91 749.895H559.153V725.016H470.724L440.996 533.681H331.923L322.91 749.895Z" fill="#DBDBDB"/>
<path d="M322.91 749.895H335.788L344.187 533.681H331.923L322.91 749.895Z" fill="#C7C7C7" fill-opacity="0.35"/>
<path d="M295.553 830.558H253.351V837.973H295.553V830.558Z" fill="#455A64"/>
<path d="M318.447 939.14H313.879L276.719 765.62L274.593 755.728L267.916 724.577L265.439 712.964L256.074 669.373L252.806 654.105H269.041L271.694 669.373L273.433 679.388L274.593 686.064L281.252 724.577L283.413 736.964L318.447 939.14Z" fill="#455A64"/>
<path d="M269.041 654.105L271.694 669.373H256.074L252.806 654.105H269.041Z" fill="#263238" fill-opacity="0.88"/>
<path d="M283.412 736.964L276.718 765.62L274.592 755.728L267.916 724.577L265.438 712.964L273.433 679.388L274.592 686.064L281.251 724.577L283.412 736.964Z" fill="#263238" fill-opacity="0.88"/>
<path d="M296.362 654.105L293.094 669.373L281.251 724.577L274.593 755.728L235.289 939.14H230.738L267.916 724.577L274.593 686.064L277.474 669.373L280.127 654.105H296.362Z" fill="#455A64"/>
<path d="M296.362 654.105L293.094 669.373H277.474L280.127 654.105H296.362Z" fill="#263238" fill-opacity="0.88"/>
<path d="M674.2 830.558H631.998V837.973H674.2V830.558Z" fill="#455A64"/>
<path d="M697.094 939.14H692.526L655.366 765.62L653.24 755.728L646.563 724.577L644.086 712.964L634.721 669.373L631.453 654.105H647.688L650.341 669.373L652.08 679.388L653.24 686.064L659.899 724.577L662.06 736.964L697.094 939.14Z" fill="#455A64"/>
<path d="M647.688 654.105L650.341 669.373H634.721L631.453 654.105H647.688Z" fill="#263238" fill-opacity="0.88"/>
<path d="M662.06 736.964L655.366 765.62L653.24 755.728L646.563 724.577L644.086 712.964L652.08 679.388L653.24 686.064L659.899 724.577L662.06 736.964Z" fill="#263238" fill-opacity="0.88"/>
<path d="M675.009 654.105L671.741 669.373L659.898 724.577L653.24 755.728L613.936 939.14H609.385L646.563 724.577L653.24 686.064L656.121 669.373L658.774 654.105H675.009Z" fill="#455A64"/>
<path d="M675.009 654.105L671.741 669.373H656.121L658.774 654.105H675.009Z" fill="#263238" fill-opacity="0.88"/>
<path d="M706.634 642.948H221.198V654.105H706.634V642.948Z" fill="#455A64"/>
<path d="M721.832 621.636H206V642.948H721.832V621.636Z" fill="#37474F"/>
<path d="M247.711 620.582H323.401V547.86H247.711V620.582Z" fill="#EBEBEB" fill-opacity="0.44"/>
<path d="M218.949 620.582H247.711V547.86H218.949V620.582Z" fill="#C7C7C7" fill-opacity="0.35"/>
<path d="M323.402 584.212H247.711L306.816 586.092L323.402 584.212Z" fill="#C7C7C7" fill-opacity="0.35"/>
<path d="M247.711 611.797H323.402L264.297 613.677L247.711 611.797Z" fill="#C7C7C7" fill-opacity="0.35"/>
<path d="M323.402 563.884H275.454L318.078 565.412L323.402 563.884Z" fill="#C7C7C7" fill-opacity="0.35"/>
<path d="M247.711 601.097H295.659L253.035 602.625L247.711 601.097Z" fill="#C7C7C7" fill-opacity="0.35"/>
<path d="M305.252 555.802H251.172L260.185 556.715L305.252 555.802Z" fill="#C7C7C7" fill-opacity="0.35"/>
<path d="M316.04 592.013H261.978L270.991 592.927L316.04 592.013Z" fill="#C7C7C7" fill-opacity="0.35"/>
<path d="M282.798 570.824H247.711L241.456 573.266L282.798 570.824Z" fill="#EBEBEB" fill-opacity="0.44"/>
<path d="M333.065 570.824H297.978L291.723 573.266L333.065 570.824Z" fill="#DBDBDB"/>
<path d="M288.051 603.504H323.121L329.393 605.946L288.051 603.504Z" fill="#DBDBDB"/>
<path d="M247.711 595.211H219.546L213.274 597.653L247.711 595.211Z" fill="#C7C7C7" fill-opacity="0.35"/>
<path d="M237.889 584.212H216.032L218.949 582.227L237.889 584.212Z" fill="#C7C7C7" fill-opacity="0.35"/>
<path d="M944.459 252.547H558.187V765.603H944.459V252.547Z" fill="#634932"/>
<g opacity="0.1">
<path d="M944.459 252.547H558.187V765.603H944.459V252.547Z" fill="#020100"/>
</g>
<path d="M933.953 252.547H547.68V765.603H933.953V252.547Z" fill="#634932"/>
<path d="M911.987 273.026L571.02 277.37L576.909 739.577L917.876 735.233L911.987 273.026Z" fill="#EBEBEB" fill-opacity="0.44"/>
<path d="M573.787 271.587L563.784 733.723L904.699 741.102L914.702 278.966L573.787 271.587Z" fill="#DBDBDB"/>
<path d="M909.706 275.194H568.711V737.438H909.706V275.194Z" fill="white"/>
<path d="M644.419 415.243C635.318 415.472 617.661 415.823 608.559 415.928C608.366 405.386 608.419 390.645 608.331 380.033V379.155H609.21C619.874 379.26 634.58 379.155 645.105 379.366C644.982 388.484 644.665 406.142 644.419 415.243V415.243ZM644.419 415.243C644.191 406.458 643.875 388.888 643.752 380.104L644.419 380.771C634.247 380.894 619.541 380.929 609.28 380.982L610.158 380.104C610.158 390.487 610.07 405.07 609.948 415.243L609.28 414.575C618.065 414.681 635.722 415.032 644.419 415.243Z" fill="#C7C7C7" fill-opacity="0.87"/>
<path d="M663.131 386.06C688.941 384.865 714.962 384.865 740.772 386.06C714.945 387.272 688.941 387.254 663.131 386.06Z" fill="#C7C7C7" fill-opacity="0.87"/>
<path d="M663.131 394.546C729.334 393.369 802.934 393.404 869.19 394.546C802.917 395.67 729.352 395.706 663.131 394.546V394.546Z" fill="#C7C7C7" fill-opacity="0.87"/>
<path d="M611.81 395.811C613.11 396.9 614.34 398.025 615.57 399.167C616.8 400.309 617.977 401.486 619.084 402.681C621.456 405.018 623.74 407.425 625.989 409.867L621.965 410.13C625.16 403.438 628.824 396.98 632.929 390.804C634.967 387.735 637.134 384.736 639.43 381.808C641.746 378.849 644.259 376.049 646.95 373.427C645.875 377.025 644.56 380.547 643.014 383.969C641.521 387.36 639.869 390.681 638.094 393.913C634.554 400.397 630.574 406.632 626.182 412.573L623.968 415.524L622.211 412.836C620.349 410.078 618.522 407.302 616.765 404.473C615.921 403.032 615.008 401.627 614.2 400.168C613.391 398.71 612.53 397.322 611.81 395.811Z" fill="#263238" fill-opacity="0.88"/>
<path d="M644.419 481.271C635.318 481.499 617.661 481.85 608.559 481.956C608.366 471.414 608.419 456.69 608.331 446.061V445.182H609.21C619.874 445.288 634.58 445.182 645.105 445.411C644.982 454.529 644.665 472.169 644.419 481.271V481.271ZM644.419 481.271C644.191 472.486 643.875 454.916 643.752 446.131L644.419 446.816C634.247 446.939 619.541 446.957 609.28 447.009L610.158 446.131C610.158 456.515 610.07 471.115 609.948 481.271L609.28 480.603C618.065 480.708 635.722 481.06 644.419 481.271Z" fill="#C7C7C7" fill-opacity="0.87"/>
<path d="M663.131 452.034C688.941 450.84 714.962 450.822 740.772 452.034C714.945 453.229 688.941 453.229 663.131 452.034Z" fill="#C7C7C7" fill-opacity="0.87"/>
<path d="M663.131 460.503C729.334 459.343 802.934 459.361 869.19 460.503C802.917 461.645 729.352 461.68 663.131 460.503V460.503Z" fill="#C7C7C7" fill-opacity="0.87"/>
<path d="M611.81 461.768C613.11 462.857 614.34 463.982 615.57 465.124C616.8 466.266 617.977 467.443 619.084 468.638C621.456 470.992 623.74 473.399 625.989 475.841L621.965 476.087C625.168 469.433 628.831 463.01 632.929 456.866C634.967 453.797 637.134 450.799 639.43 447.87C641.742 444.908 644.254 442.108 646.95 439.489C645.875 443.088 644.56 446.609 643.014 450.031C641.521 453.44 639.869 456.743 638.094 459.993C634.554 466.472 630.573 472.7 626.182 478.635L623.968 481.604L622.211 478.899C620.349 476.158 618.522 473.382 616.765 470.535C615.921 469.095 615.008 467.689 614.2 466.231C613.391 464.772 612.53 463.279 611.81 461.768Z" fill="#263238" fill-opacity="0.88"/>
<path d="M644.419 547.175C635.318 547.403 617.661 547.755 608.559 547.86C608.366 537.318 608.419 522.577 608.331 511.965V511.139H609.21C619.874 511.245 634.58 511.139 645.105 511.35C644.982 520.469 644.665 538.109 644.419 547.228V547.175ZM644.419 547.175C644.191 538.39 643.875 520.82 643.752 512.035L644.419 512.703C634.247 512.826 619.541 512.861 609.28 512.914L610.158 512.035C610.158 522.419 610.07 537.002 609.948 547.175L609.28 546.507C618.065 546.613 635.722 546.964 644.419 547.175Z" fill="#C7C7C7" fill-opacity="0.87"/>
<path d="M663.131 517.991C688.941 516.797 714.962 516.797 740.772 517.991C714.945 519.186 688.941 519.186 663.131 517.991Z" fill="#C7C7C7" fill-opacity="0.87"/>
<path d="M663.131 526.478C729.334 525.3 802.934 525.336 869.19 526.478C802.917 527.602 729.352 527.637 663.131 526.478V526.478Z" fill="#C7C7C7" fill-opacity="0.87"/>
<path d="M644.419 613.132C635.318 613.36 617.661 613.712 608.559 613.817C608.366 603.275 608.419 588.552 608.331 577.922V577.044H609.21C619.874 577.149 634.58 577.044 645.105 577.272C644.982 586.373 644.665 604.031 644.419 613.132ZM644.419 613.132C644.191 604.347 643.875 586.777 643.752 577.992L644.419 578.678C634.247 578.801 619.541 578.818 609.28 578.871L610.158 577.992C610.158 588.376 610.07 602.977 609.948 613.132L609.28 612.464C618.065 612.57 635.722 612.921 644.419 613.132Z" fill="#C7C7C7" fill-opacity="0.87"/>
<path d="M663.131 583.966C688.941 582.754 714.962 582.754 740.772 583.966C714.945 585.161 688.941 585.161 663.131 583.966Z" fill="#C7C7C7" fill-opacity="0.87"/>
<path d="M663.131 592.435C729.334 591.275 802.934 591.293 869.19 592.435C802.917 593.577 729.352 593.612 663.131 592.435V592.435Z" fill="#C7C7C7" fill-opacity="0.87"/>
<path d="M644.419 679.107C635.318 679.335 617.661 679.669 608.559 679.792C608.366 669.25 608.419 654.509 608.331 643.897V643.018H609.21C619.874 643.124 634.58 643.018 645.105 643.229C644.982 652.348 644.665 669.988 644.419 679.107ZM644.419 679.107C644.191 670.322 643.875 652.664 643.752 643.967L644.419 644.635C634.247 644.758 619.541 644.793 609.28 644.845L610.158 643.967C610.158 654.351 610.07 668.934 609.948 679.107L609.28 678.439C618.065 678.544 635.722 678.896 644.419 679.107Z" fill="#C7C7C7" fill-opacity="0.87"/>
<path d="M663.131 649.941C688.941 648.746 714.962 648.746 740.772 649.941C714.945 651.135 688.941 651.135 663.131 649.941Z" fill="#C7C7C7" fill-opacity="0.87"/>
<path d="M663.131 658.409C729.334 657.232 802.934 657.267 869.19 658.409C802.917 659.534 729.352 659.569 663.131 658.409V658.409Z" fill="#C7C7C7" fill-opacity="0.87"/>
<path d="M707.144 324.337H702.417V340.15C702.417 340.583 702.245 340.999 701.939 341.305C701.632 341.612 701.217 341.784 700.783 341.784C700.35 341.784 699.934 341.612 699.628 341.305C699.322 340.999 699.149 340.583 699.149 340.15V324.337H694.441C694.006 324.332 693.59 324.156 693.284 323.847C692.978 323.538 692.807 323.12 692.807 322.685C692.804 322.47 692.845 322.257 692.926 322.057C693.008 321.858 693.128 321.677 693.28 321.525C693.432 321.373 693.613 321.252 693.813 321.171C694.012 321.09 694.225 321.049 694.441 321.051H707.144C707.359 321.049 707.572 321.09 707.772 321.171C707.971 321.252 708.152 321.373 708.304 321.525C708.457 321.677 708.577 321.858 708.658 322.057C708.739 322.257 708.78 322.47 708.778 322.685C708.753 323.112 708.573 323.516 708.273 323.82C707.972 324.124 707.57 324.308 707.144 324.337Z" fill="#634932"/>
<path d="M721.463 336.952H714.242L712.784 340.817C712.66 341.126 712.446 341.389 712.17 341.574C711.895 341.759 711.569 341.857 711.237 341.854C711.047 341.853 710.857 341.824 710.675 341.766C710.274 341.595 709.952 341.28 709.77 340.884C709.588 340.488 709.56 340.038 709.691 339.623L716.262 322.053C716.4 321.747 716.621 321.487 716.902 321.304C717.182 321.12 717.509 321.02 717.844 321.016C718.179 321.02 718.505 321.12 718.786 321.304C719.066 321.487 719.288 321.747 719.425 322.053L725.996 339.623C726.127 340.038 726.099 340.488 725.917 340.884C725.735 341.28 725.413 341.595 725.012 341.766C724.83 341.824 724.641 341.853 724.45 341.854C724.12 341.858 723.796 341.761 723.523 341.576C723.25 341.39 723.04 341.126 722.921 340.817L721.463 336.952ZM720.251 333.684L717.844 327.289L715.437 333.684H720.251Z" fill="#634932"/>
<path d="M728.895 336.689C729.024 336.531 729.183 336.401 729.362 336.306C729.542 336.21 729.738 336.151 729.941 336.131C730.143 336.112 730.347 336.132 730.542 336.192C730.736 336.251 730.917 336.348 731.074 336.478C732.667 337.836 734.659 338.638 736.749 338.762C738.076 338.793 739.379 338.406 740.474 337.655C740.84 337.429 741.147 337.117 741.367 336.747C741.587 336.377 741.715 335.959 741.739 335.529C741.747 335.188 741.655 334.852 741.475 334.563C741.246 334.207 740.939 333.907 740.579 333.684C739.321 332.977 737.946 332.501 736.52 332.278V332.278C735.199 332.059 733.912 331.669 732.69 331.119C731.564 330.624 730.602 329.82 729.914 328.8C729.467 328.064 729.236 327.218 729.247 326.357C729.276 325.499 729.505 324.66 729.917 323.906C730.329 323.152 730.912 322.506 731.619 322.018C733.132 320.977 734.93 320.431 736.766 320.454C739.117 320.574 741.377 321.4 743.25 322.826C743.581 323.054 743.809 323.403 743.884 323.797C743.96 324.192 743.877 324.6 743.654 324.934C743.548 325.106 743.409 325.255 743.245 325.371C743.08 325.488 742.894 325.57 742.697 325.613C742.5 325.655 742.297 325.658 742.099 325.62C741.901 325.582 741.713 325.504 741.545 325.391C740.187 324.277 738.518 323.609 736.766 323.476C735.575 323.459 734.407 323.815 733.428 324.495C733.104 324.691 732.832 324.963 732.636 325.287C732.44 325.612 732.326 325.979 732.304 326.357C732.283 326.654 732.357 326.949 732.515 327.201C732.723 327.509 732.992 327.772 733.305 327.974C734.454 328.638 735.718 329.079 737.03 329.274V329.274C738.446 329.521 739.827 329.94 741.141 330.521C742.343 331.053 743.372 331.912 744.111 332.999C744.579 333.76 744.829 334.635 744.831 335.529C744.802 336.445 744.554 337.341 744.107 338.142C743.661 338.943 743.03 339.625 742.266 340.132C740.666 341.287 738.74 341.902 736.766 341.889C733.973 341.764 731.299 340.72 729.159 338.92C728.994 338.791 728.857 338.631 728.754 338.449C728.652 338.267 728.586 338.067 728.562 337.859C728.537 337.652 728.554 337.441 728.611 337.24C728.669 337.04 728.765 336.852 728.895 336.689V336.689Z" fill="#634932"/>
<path d="M749.382 340.22V322.826C749.382 322.393 749.554 321.977 749.86 321.671C750.167 321.364 750.582 321.192 751.016 321.192C751.449 321.192 751.865 321.364 752.171 321.671C752.478 321.977 752.65 322.393 752.65 322.826V331.365L762.278 321.701C762.429 321.546 762.609 321.423 762.808 321.339C763.007 321.255 763.221 321.211 763.438 321.211C763.654 321.211 763.868 321.255 764.067 321.339C764.266 321.423 764.447 321.546 764.597 321.701C764.902 322.011 765.073 322.427 765.073 322.861C765.073 323.295 764.902 323.712 764.597 324.021L758.061 330.522L764.668 339.183C764.807 339.347 764.912 339.537 764.975 339.743C765.038 339.948 765.059 340.165 765.036 340.378C765.013 340.592 764.947 340.799 764.841 340.986C764.735 341.174 764.593 341.337 764.422 341.468C764.136 341.721 763.767 341.859 763.385 341.854C763.151 341.849 762.922 341.793 762.713 341.69C762.503 341.587 762.319 341.439 762.173 341.257L755.742 332.841L752.65 336.003V340.22C752.65 340.653 752.478 341.069 752.171 341.375C751.865 341.682 751.449 341.854 751.016 341.854C750.582 341.854 750.167 341.682 749.86 341.375C749.554 341.069 749.382 340.653 749.382 340.22V340.22Z" fill="#634932"/>
<path d="M769.692 336.689C769.818 336.53 769.975 336.398 770.153 336.302C770.331 336.205 770.527 336.145 770.728 336.125C770.93 336.106 771.133 336.127 771.327 336.187C771.52 336.248 771.699 336.346 771.853 336.478C773.448 337.833 775.439 338.635 777.528 338.762C778.855 338.793 780.159 338.406 781.253 337.655C781.624 337.432 781.935 337.122 782.159 336.751C782.382 336.381 782.512 335.961 782.536 335.529C782.545 335.185 782.447 334.848 782.255 334.563C782.028 334.211 781.728 333.911 781.376 333.684C780.113 332.975 778.732 332.499 777.3 332.278V332.278C775.979 332.059 774.691 331.669 773.47 331.119C772.346 330.628 771.388 329.823 770.711 328.8C770.251 328.069 770.013 327.221 770.026 326.357C770.055 325.499 770.285 324.66 770.697 323.906C771.109 323.152 771.691 322.506 772.398 322.018C773.911 320.977 775.71 320.431 777.546 320.454C779.897 320.57 782.158 321.397 784.029 322.826C784.369 323.059 784.603 323.417 784.679 323.823C784.755 324.228 784.666 324.647 784.433 324.987C784.2 325.327 783.842 325.561 783.437 325.637C783.031 325.712 782.612 325.624 782.272 325.391C780.914 324.277 779.245 323.609 777.493 323.476C776.301 323.459 775.134 323.815 774.155 324.495C773.834 324.694 773.564 324.967 773.369 325.291C773.173 325.615 773.057 325.98 773.031 326.357C773.019 326.653 773.092 326.946 773.241 327.201C773.457 327.509 773.732 327.772 774.05 327.974C775.192 328.638 776.45 329.079 777.757 329.274C779.167 329.523 780.541 329.942 781.851 330.521C783.053 331.053 784.081 331.912 784.82 332.999C785.296 333.756 785.546 334.634 785.54 335.529C785.511 336.445 785.263 337.341 784.817 338.142C784.37 338.943 783.739 339.625 782.975 340.132C781.376 341.289 779.449 341.905 777.476 341.889C774.684 341.756 772.012 340.713 769.868 338.92C769.708 338.786 769.576 338.622 769.48 338.437C769.384 338.252 769.326 338.049 769.31 337.841C769.294 337.633 769.319 337.424 769.385 337.226C769.45 337.028 769.555 336.845 769.692 336.689V336.689Z" fill="#634932"/>
<path d="M820.856 243.182H653.363V294.24H820.856V243.182Z" fill="#C7C7C7" fill-opacity="0.87"/>
<path d="M788.316 215.264H684.373L679.77 243.182H794.466L788.316 215.264ZM737.1 235.293C735.888 235.293 734.702 234.934 733.694 234.26C732.685 233.586 731.899 232.628 731.435 231.508C730.971 230.387 730.85 229.154 731.086 227.965C731.323 226.776 731.907 225.683 732.764 224.825C733.622 223.968 734.715 223.384 735.904 223.147C737.094 222.911 738.326 223.032 739.447 223.496C740.567 223.96 741.525 224.746 742.199 225.755C742.873 226.763 743.232 227.949 743.232 229.161C743.235 229.967 743.077 230.766 742.77 231.511C742.463 232.256 742.011 232.932 741.441 233.502C740.872 234.072 740.195 234.524 739.45 234.831C738.705 235.138 737.906 235.295 737.1 235.293Z" fill="#C7C7C7" fill-opacity="0.87"/>
<path d="M794.466 243.182H679.77L680.807 236.945H793.078L794.466 243.182Z" fill="#A6A6A6"/>
<path d="M206 939.14C446.179 938.068 715.63 938.05 955.809 939.14C715.63 940.229 446.179 940.212 206 939.14V939.14Z" fill="#263238" fill-opacity="0.88"/>
<path d="M562.773 939.122C558.486 940.528 435.954 938.964 431.333 935.924C429.576 934.818 428.75 916.949 428.381 895.338V894.653C428.293 890.208 428.241 885.605 428.223 880.966C428.223 880.316 428.223 879.684 428.223 879.051L434.144 815.483L516.107 816.274L508.043 879.244L507.937 881.739L507.445 894.776V896.111C507.445 896.111 554.076 917.687 558.802 921.552C563.528 925.418 567.077 937.769 562.773 939.122Z" fill="#AD6359"/>
<path d="M562.773 939.122C558.486 940.528 435.954 938.964 431.333 935.924C429.576 934.818 428.75 916.949 428.381 895.338V894.653C428.293 890.208 428.241 885.605 428.223 880.966C428.223 880.316 428.223 879.684 428.223 879.051L508.043 879.244L507.937 881.739L507.445 894.776V896.111C507.445 896.111 554.076 917.687 558.802 921.552C563.528 925.418 567.077 937.769 562.773 939.122Z" fill="#EBEBEB" fill-opacity="0.44"/>
<path d="M562.79 939.122C560.577 939.843 527.299 939.772 494.76 939.122C488.207 938.982 481.706 938.841 475.433 938.665C452.224 938.033 433.055 937.084 431.28 935.924C429.506 934.765 428.698 917.441 428.346 896.234C428.346 895.936 428.346 895.637 428.346 895.338C428.346 895.04 428.346 894.864 428.346 894.635H428.434L507.393 894.776V896.111C507.393 896.111 554.041 917.687 558.767 921.535C563.493 925.383 567.077 937.752 562.79 939.122Z" fill="#AD6359"/>
<path d="M561.455 934.361C540.81 933.588 457.459 932.428 436.99 933.236C436.814 933.236 436.814 933.359 436.99 933.377C457.441 934.589 540.793 935.134 561.455 934.695C561.894 934.695 561.894 934.378 561.455 934.361Z" fill="#263238" fill-opacity="0.88"/>
<path d="M516.23 895.11C508.13 893.493 498.168 894.618 491.878 900.381C491.632 900.609 491.878 900.943 492.23 900.873C500.023 898.465 508.051 896.899 516.177 896.199C516.322 896.206 516.463 896.155 516.57 896.058C516.677 895.961 516.741 895.825 516.748 895.681C516.755 895.536 516.705 895.395 516.607 895.288C516.51 895.181 516.374 895.117 516.23 895.11Z" fill="#263238" fill-opacity="0.88"/>
<path d="M522.046 898.729C513.946 897.113 503.984 898.22 497.712 904C497.466 904.229 497.712 904.58 498.045 904.492C505.844 902.083 513.878 900.516 522.011 899.819C522.155 899.823 522.296 899.77 522.401 899.671C522.506 899.573 522.568 899.436 522.573 899.291C522.578 899.147 522.525 899.007 522.426 898.901C522.327 898.796 522.19 898.734 522.046 898.729V898.729Z" fill="#263238" fill-opacity="0.88"/>
<path d="M527.879 902.331C519.762 900.715 509.817 901.839 503.527 907.602C503.281 907.83 503.527 908.164 503.861 908.094C511.658 905.678 519.693 904.111 527.826 903.42C527.971 903.427 528.112 903.377 528.219 903.279C528.326 903.182 528.39 903.046 528.397 902.902C528.404 902.758 528.353 902.616 528.256 902.509C528.159 902.402 528.023 902.338 527.879 902.331V902.331Z" fill="#263238" fill-opacity="0.88"/>
<path d="M494.813 939.122C488.259 938.982 481.758 938.841 475.486 938.665C452.276 938.033 433.108 937.084 431.333 935.924C429.559 934.765 428.75 917.441 428.399 896.234C428.399 895.936 428.399 895.637 428.399 895.338C428.399 895.04 428.399 894.864 428.399 894.635H428.487C439.292 902.226 477.419 927.544 494.813 939.122Z" fill="#263238" fill-opacity="0.88"/>
<path d="M512.154 895.057H423.918C423.918 895.057 441.629 688.946 440.944 685.344C440.065 680.741 434.847 659.885 427.907 632.634C425.728 624.095 423.374 614.959 420.879 605.471C414.29 579.837 407.034 551.813 400.709 527.426C391.204 490.899 383.807 472.081 383.807 472.081H458.584C458.584 472.081 520.078 648.096 522.52 684.465C524.681 716.196 512.154 895.057 512.154 895.057Z" fill="#263238" fill-opacity="0.88"/>
<path d="M508.236 880C494.76 879.719 498.643 879.613 485.167 879.473C478.56 879.473 435.216 879.051 429.049 880.07C428.926 880.07 428.926 880.316 429.049 880.351C435.216 881.37 478.56 880.984 485.167 880.913C498.643 880.773 494.76 880.667 508.236 880.386C508.287 880.386 508.336 880.366 508.373 880.33C508.409 880.293 508.429 880.244 508.429 880.193C508.429 880.142 508.409 880.093 508.373 880.056C508.336 880.02 508.287 880 508.236 880Z" fill="#37474F"/>
<path d="M457.547 672.781C454.648 660.026 450.326 647.534 446.548 635.006C438.899 609.565 431.198 584.142 423.444 558.736C419.579 546.033 401.64 498.489 399.865 492.164C399.145 489.599 398.758 491.004 399.689 494.272C401.552 500.861 432.194 595.105 439.959 620.933C443.848 633.888 447.743 646.831 451.643 659.762C453.613 665.921 455.209 672.193 456.422 678.544C457.462 685.191 457.721 691.937 457.195 698.644C456.352 712.138 454.788 725.631 453.559 739.055L449.816 779.465C447.333 806.335 444.873 833.2 442.437 860.058C442.138 863.467 441.839 866.858 441.576 870.266C441.576 871.408 443.21 871.32 443.333 870.266C446.232 843.701 448.463 817.047 450.941 790.446C453.418 763.846 455.895 737.509 458.355 711.031C458.988 704.39 459.69 697.731 459.69 691.054C459.657 684.902 458.938 678.774 457.547 672.781V672.781Z" fill="#37474F"/>
<path d="M450.168 472.081C444.897 512.246 435.111 578.01 427.907 632.652C411.022 566.449 383.877 472.099 383.877 472.099L450.168 472.081Z" fill="#37474F"/>
<path d="M471.532 940.334C467.228 941.74 344.696 940.616 340.075 937.611C338.318 936.504 337.404 918.636 336.965 897.025V896.34C336.86 891.895 336.79 887.309 336.754 882.653C336.754 882.02 336.754 881.37 336.754 880.738C336.456 849.534 338.705 817.17 338.705 817.17L418.788 817.68L416.556 880.65V883.145L416.1 896.182V897.517C416.1 897.517 462.8 918.934 467.562 922.765C472.323 926.595 475.819 938.946 471.532 940.334Z" fill="#AD6359"/>
<path d="M471.532 940.334C467.228 941.74 344.696 940.616 340.075 937.611C338.318 936.504 337.404 918.636 336.965 897.025V896.34C336.86 891.895 336.79 887.309 336.754 882.653C336.754 882.02 336.754 881.37 336.754 880.738L416.556 880.65V883.145L416.1 896.182V897.517C416.1 897.517 462.8 918.934 467.562 922.765C472.323 926.595 475.819 938.946 471.532 940.334Z" fill="#EBEBEB" fill-opacity="0.44"/>
<path d="M471.533 940.335C467.228 941.74 344.696 940.616 340.075 937.611C338.318 936.504 337.405 918.636 336.965 897.025V896.34L416.029 896.182V897.517C416.029 897.517 462.73 918.934 467.491 922.765C472.253 926.595 475.82 938.947 471.533 940.335Z" fill="#AD6359"/>
<path d="M470.215 935.573C449.57 934.87 366.219 934.027 345.75 934.905C345.575 934.905 345.575 935.028 345.75 935.028C366.202 936.17 449.553 936.346 470.215 935.907C470.619 935.889 470.619 935.591 470.215 935.573Z" fill="#634932"/>
<path d="M424.815 896.48C416.697 894.899 406.753 896.059 400.48 901.751C400.252 901.98 400.568 902.313 400.832 902.243C408.619 899.796 416.648 898.199 424.78 897.482C424.886 897.451 424.981 897.387 425.049 897.3C425.117 897.212 425.156 897.105 425.16 896.994C425.164 896.883 425.133 896.773 425.071 896.681C425.009 896.589 424.919 896.519 424.815 896.48V896.48Z" fill="#263238" fill-opacity="0.88"/>
<path d="M430.648 900.082C422.53 898.483 412.586 899.643 406.313 905.353C406.085 905.581 406.401 905.915 406.665 905.845C414.459 903.445 422.487 901.884 430.613 901.189C430.759 901.194 430.902 901.14 431.009 901.039C431.116 900.939 431.179 900.8 431.184 900.653C431.188 900.506 431.134 900.364 431.034 900.257C430.933 900.15 430.794 900.087 430.648 900.082Z" fill="#263238" fill-opacity="0.88"/>
<path d="M436.481 903.666C428.364 902.067 418.419 903.227 412.164 908.937C411.918 909.148 412.164 909.499 412.498 909.412C420.29 906.994 428.318 905.415 436.446 904.703C436.514 904.705 436.582 904.694 436.645 904.67C436.709 904.646 436.768 904.61 436.817 904.564C436.867 904.517 436.907 904.461 436.935 904.399C436.964 904.337 436.979 904.27 436.982 904.202C436.984 904.134 436.973 904.066 436.949 904.003C436.925 903.939 436.889 903.88 436.842 903.831C436.796 903.781 436.74 903.741 436.678 903.712C436.616 903.684 436.549 903.669 436.481 903.666V903.666Z" fill="#263238" fill-opacity="0.88"/>
<path d="M458.144 472.081C456.607 490.547 453.294 508.822 448.253 526.653C447.602 528.99 446.882 531.292 446.109 533.506C446.109 533.506 439.503 536.598 426.466 544.592C426.466 544.592 425.623 573.389 424.709 605.489C423.76 641.384 422.776 681.426 422.952 689.912C423.708 721.678 419.016 896.357 419.016 896.357L330.798 896.744C330.798 896.744 346.611 701.719 346.611 690.017C346.435 671.306 350.863 588.64 354.272 528.375C356.362 491.233 358.084 472.152 358.084 472.152L458.144 472.081Z" fill="#263238" fill-opacity="0.88"/>
<path d="M416.082 880.667C402.606 880.457 406.472 880.316 392.996 880.263C386.407 880.263 343.062 880.035 336.895 881.089C336.755 881.089 336.772 881.335 336.895 881.353C343.062 882.354 386.407 881.774 393.013 881.687C406.489 881.493 402.606 881.405 416.082 881.072C416.126 881.059 416.164 881.032 416.191 880.996C416.218 880.959 416.233 880.915 416.233 880.87C416.233 880.824 416.218 880.78 416.191 880.744C416.164 880.707 416.126 880.68 416.082 880.667V880.667Z" fill="#37474F"/>
<path d="M365.569 484.89C363.953 534.085 362.248 573.776 360.052 622.989C357.856 672.202 354.887 721.696 350.775 770.944C348.474 798.458 346.313 837.165 343.343 864.626C343.343 864.802 343.607 864.872 343.624 864.626C350.037 815.8 353.604 755.43 356.767 706.287C359.929 657.144 362.038 607.896 363.707 558.701C364.638 530.87 365.358 512.58 366.184 484.749C366.202 484.451 365.587 484.486 365.569 484.89Z" fill="#37474F"/>
<path d="M368.96 516.867C371.139 516.305 373.458 516.129 375.672 515.778C377.429 515.496 379.186 515.18 380.943 514.794C384.337 514.182 387.553 512.826 390.36 510.823C394.753 507.309 399.813 489.968 400.428 488.861C401.482 486.946 401.798 488.615 401.798 488.861C401.798 490.881 397.177 506.132 395.385 508.978C392.117 514.249 386.249 516.287 380.398 517.025C378.729 517.236 377.042 517.359 375.356 517.447C373.228 517.64 371.088 517.64 368.96 517.447C368.895 517.431 368.838 517.393 368.797 517.341C368.756 517.288 368.733 517.224 368.733 517.157C368.733 517.09 368.756 517.025 368.797 516.973C368.838 516.92 368.895 516.883 368.96 516.867Z" fill="#37474F"/>
<path d="M445.828 533.98C437.241 537.097 428.94 540.954 421.019 545.506C420.96 545.541 420.916 545.597 420.895 545.663C420.875 545.728 420.879 545.799 420.907 545.862C420.935 545.925 420.985 545.975 421.048 546.003C421.111 546.032 421.182 546.036 421.248 546.015C429.611 542.501 438.15 538.987 446.32 534.929C446.418 534.85 446.487 534.74 446.513 534.616C446.539 534.493 446.522 534.364 446.464 534.252C446.406 534.14 446.311 534.052 446.195 534.002C446.079 533.952 445.949 533.945 445.828 533.98V533.98Z" fill="#37474F"/>
<path d="M448.34 476.597C448.34 476.316 447.813 476.246 447.813 476.597C447.817 485.933 447.348 495.262 446.408 504.551C446.021 508.873 442.56 532.662 435.075 530.905C433.828 530.624 433.195 529.377 433.002 527.497C433.027 525.029 433.357 522.574 433.986 520.188C434.812 515.198 435.479 510.19 435.918 505.165C436.78 495.78 436.674 486.33 435.602 476.966C435.588 476.914 435.557 476.868 435.514 476.835C435.471 476.803 435.419 476.785 435.365 476.785C435.311 476.785 435.259 476.803 435.216 476.835C435.173 476.868 435.142 476.914 435.128 476.966C435.352 489.977 434.588 502.987 432.844 515.883C431.913 522.068 428.785 531.397 435.268 532.364C441.752 533.33 446.144 517.693 446.952 513.423C449.008 501.26 449.474 488.881 448.34 476.597Z" fill="#37474F"/>
<path d="M435.286 531.573C434.585 533.175 433.998 534.825 433.529 536.51C433.054 537.81 432.816 539.185 432.827 540.569C432.827 540.832 433.213 540.85 433.354 540.674C434.137 539.453 434.73 538.12 435.111 536.721C435.673 535.192 436.27 533.681 436.868 532.135C436.942 531.925 436.93 531.695 436.835 531.494C436.739 531.293 436.568 531.138 436.358 531.063C436.148 530.989 435.918 531.001 435.717 531.096C435.516 531.192 435.361 531.363 435.286 531.573Z" fill="#37474F"/>
<path d="M443.438 376.73C440.856 416.051 442.665 456.234 447.708 463.507C455.526 474.805 506.848 498.963 524.119 503.373C529.776 504.814 542.585 467.215 538.807 462.242C535.03 457.27 479.07 435.448 476.276 432.866C474.783 431.478 466.666 399.149 459.813 377.222C453.453 356.841 444.229 364.783 443.438 376.73Z" fill="#AD6359"/>
<path d="M504.669 498.313L521.501 450.98C521.501 450.98 482.32 433.41 477.682 430.775C475.714 429.686 465.471 389.732 460.112 372.408C456.598 361.023 445.828 355.365 441.769 378.03C439.397 391.296 437.394 455.478 445.951 466.125C452.785 474.612 504.669 498.313 504.669 498.313Z" fill="#455A64"/>
<path d="M496.903 492.023C497.571 488.509 502.736 474.366 504.072 470.939C505.407 467.513 511.1 453.616 512.558 450.031C512.558 449.838 512.944 449.891 512.857 450.031C511.556 453.545 506.848 467.917 505.548 471.414C504.247 474.91 498.941 488.984 497.079 492.094C497.074 492.105 497.067 492.116 497.059 492.124C497.05 492.133 497.04 492.14 497.028 492.145C497.017 492.15 497.005 492.153 496.992 492.153C496.98 492.153 496.967 492.151 496.956 492.146C496.944 492.142 496.934 492.135 496.925 492.126C496.916 492.117 496.909 492.107 496.904 492.096C496.899 492.084 496.897 492.072 496.896 492.06C496.896 492.047 496.899 492.035 496.903 492.023Z" fill="#263238" fill-opacity="0.88"/>
<path opacity="0.1" d="M488.189 490.512C472.376 482.817 450.273 471.467 446.021 466.143C437.465 455.478 439.45 391.296 441.84 378.03C443.878 366.575 447.655 362.376 451.328 362.463L488.189 490.512Z" fill="#020100"/>
<path d="M354.641 471.8C354.834 472.117 462.01 485.189 463.187 484.293C463.626 483.959 466.279 388.168 455.034 362.727C450.396 352.185 431.579 346.668 421.072 357.807C369.715 412.168 354.395 471.379 354.641 471.8Z" fill="#EBEBEB" fill-opacity="0.44"/>
<path d="M370.669 512.423L386.939 558.291L610.203 479.097L593.934 433.229L370.669 512.423Z" fill="#FFC727"/>
<path opacity="0.2" d="M370.669 512.423L386.939 558.291L610.203 479.097L593.934 433.229L370.669 512.423Z" fill="#020100"/>
<g opacity="0.1">
<path d="M590.586 444.62C524.137 468.761 449.395 495.274 382.577 518.413C449.026 494.272 523.768 467.759 590.586 444.62Z" fill="black"/>
<path d="M593.819 453.721C527.37 477.844 452.645 504.357 385.88 527.479C452.329 503.338 527.071 476.843 593.889 453.686L593.819 453.721Z" fill="black"/>
<path d="M597.034 462.805C530.585 486.946 455.843 513.458 389.025 536.598C455.474 512.457 530.233 485.944 597.034 462.805Z" fill="black"/>
<path d="M600.232 471.906C533.783 496.047 459.041 522.56 392.223 545.699C458.672 521.558 533.414 495.063 600.232 471.906Z" fill="black"/>
</g>
<path d="M368.573 565.412C368.573 565.412 341.217 578.572 331.993 552.569C322.769 526.565 352.304 519.538 352.304 519.538L368.573 565.412Z" fill="#FF9ABB"/>
<path d="M351.054 515.071L370.049 568.623L383.048 564.012L364.053 510.46L351.054 515.071Z" fill="#A6A6A6"/>
<path d="M365.396 509.964L384.391 563.516L397.39 558.905L378.395 505.354L365.396 509.964Z" fill="#A6A6A6"/>
<path d="M593.871 433.182L632.999 438.734L645.913 440.491L637.128 450.137L610.264 479.109L601.953 476.825C601.953 476.825 606.926 470.061 606.996 469.92L598.685 467.636C598.685 467.636 603.675 460.872 603.745 460.731L595.47 458.553C595.47 458.553 600.425 451.683 600.477 451.525L592.22 449.346C592.22 449.346 597.157 442.476 597.227 442.318L588.952 440.14C588.952 440.14 593.819 433.323 593.871 433.182Z" fill="#FFC727"/>
<path opacity="0.8" d="M593.871 433.182L632.999 438.734L645.913 440.491L637.128 450.137L610.264 479.109L601.953 476.825C601.953 476.825 606.926 470.061 606.996 469.92L598.685 467.636C598.685 467.636 603.675 460.872 603.745 460.731L595.47 458.553C595.47 458.553 600.425 451.683 600.477 451.525L592.22 449.346C592.22 449.346 597.157 442.476 597.227 442.318L588.952 440.14C588.952 440.14 593.819 433.323 593.871 433.182Z" fill="white"/>
<path d="M632.999 438.734L645.913 440.526L637.04 450.137L632.999 438.734Z" fill="#263238" fill-opacity="0.88"/>
<path d="M411.742 364.15C387.549 385.673 354.711 425.311 356.187 435.484C359.876 460.942 378.764 493.007 388.656 504.867C394.419 511.789 432.44 483.133 427.608 476.755C420.018 466.652 401.939 434.798 399.883 430.652C398.776 428.438 415.555 398.077 424.691 377.275C434.636 354.645 423.549 353.679 411.742 364.15Z" fill="#AD6359"/>
<path d="M440.346 496.732C438.976 493.938 440.434 493.218 445.389 495.59C450.343 497.962 467.983 511.684 472.253 505.13C476.522 498.577 451.362 479.619 442.771 476.263C434.179 472.907 419.262 470.5 419.262 470.5C423.374 475.156 432.369 487.455 440.346 496.732Z" fill="#AD6359"/>
<path d="M388.392 504.674C400.568 517.394 414.958 533.998 434.074 539.391C436.185 540.053 438.458 539.979 440.522 539.181C449.061 541.763 452.821 538.495 452.821 538.495C461.5 538.495 464.909 534.612 464.909 534.612C464.909 534.612 474.941 537.511 477.717 531.731C480.844 525.265 466.121 522.437 458.97 515.918C442.595 501.019 423.479 475.244 419.192 470.483L388.392 504.674Z" fill="#AD6359"/>
<path d="M430.858 512.369C435.602 516.81 440.644 520.919 445.951 524.668C451.998 528.384 458.311 531.649 464.838 534.437C464.865 534.44 464.891 534.449 464.914 534.463C464.937 534.478 464.956 534.497 464.97 534.52C464.984 534.543 464.992 534.569 464.995 534.596C464.997 534.623 464.993 534.65 464.983 534.675C464.974 534.7 464.958 534.723 464.938 534.741C464.918 534.759 464.895 534.773 464.869 534.78C464.843 534.788 464.815 534.789 464.789 534.784C464.762 534.78 464.737 534.769 464.715 534.753C451.557 530.639 439.78 522.994 430.665 512.65C430.454 512.352 430.612 512.158 430.858 512.369Z" fill="#263238" fill-opacity="0.88"/>
<path d="M420.44 520.961C425.447 524.861 434.285 531.678 452.926 538.302C452.926 538.302 452.926 538.443 452.926 538.425C440.656 535.822 429.352 529.854 420.282 521.189C419.948 520.926 420.106 520.697 420.44 520.961Z" fill="#263238" fill-opacity="0.88"/>
<path d="M414.905 525.669C423.69 531.995 429.998 534.876 440.522 539.128C440.522 539.128 440.522 539.268 440.522 539.233C428.065 535.719 423.954 532.943 414.694 525.933C414.343 525.705 414.571 525.423 414.905 525.669Z" fill="#263238" fill-opacity="0.88"/>
<path d="M378.36 503.444L426.818 470.254L402.22 430.775C410.671 414.101 426.413 381.14 430.525 368.736C435.356 354.188 427.011 352.414 414.607 362.024C386.495 383.986 350.178 426.347 348.509 435.132C346.119 447.695 378.36 503.444 378.36 503.444Z" fill="#455A64"/>
<path d="M378.94 491.426C381.54 488.825 393.927 480.023 397.037 477.862C400.147 475.701 412.85 467.443 416.135 465.247C416.311 465.124 416.522 465.335 416.346 465.458C413.218 467.689 401.078 476.966 397.985 479.145C394.893 481.323 382.366 490.055 379.045 491.584C378.94 491.654 378.852 491.514 378.94 491.426Z" fill="#263238" fill-opacity="0.88"/>
<path d="M421.687 390.681C416.838 402.663 410.214 414.997 404.767 426.734C404.381 427.577 403.168 430.248 403.01 430.669C408.457 440.333 415.309 450.734 421.019 460.362L426.888 470.114L425.552 470.957L426.8 469.973V470.096L420.352 460.696C414.237 451.455 407.455 441.369 401.886 431.899C401.657 431.39 401.341 431.126 401.376 430.423C401.816 428.86 402.404 427.342 403.133 425.89C408.58 414.47 415.713 401.697 421.634 390.558L421.687 390.681Z" fill="#263238" fill-opacity="0.88"/>
<path d="M422.039 393.017C421.082 394.888 419.712 396.517 418.033 397.779C419.271 396.113 420.609 394.523 422.039 393.017V393.017Z" fill="#263238" fill-opacity="0.88"/>
<path d="M523.188 487.438C526.122 482.167 530.673 488.632 530.673 488.632C530.673 488.632 526.385 477.721 531.516 473.452C536.646 469.182 541.689 477.388 542.058 477.95C541.829 477.37 538.157 467.232 543.815 463.472C549.472 459.712 553.478 468.532 553.724 469.112C553.724 468.515 553.338 460.327 558.24 458.57C566.673 455.337 569.642 478.424 575.37 482.992L588.6 479.672C585.953 481.97 584.025 484.984 583.048 488.351C581.502 493.183 580.501 496.398 578.269 498.647C577.298 499.69 576.016 500.392 574.613 500.649C573.211 500.905 571.764 500.702 570.486 500.07C570.486 500.07 571.768 506.36 567.446 509.452C565.232 511.034 560.717 508.89 560.717 508.89C560.717 508.89 561.525 513.968 557.519 516.48C554.322 518.501 550.298 516.041 550.298 516.041C550.298 516.041 548.822 521.312 544.887 522.278C536.98 524.246 516.898 498.735 523.188 487.438Z" fill="#AD6359"/>
<path d="M578.515 482.623L588.319 479.707H589.479C602.568 479.478 613.303 492.357 604.36 495.221C597.561 497.4 588.196 489.686 581.52 492.937L578.515 482.623Z" fill="#AD6359"/>
<path d="M549.578 515.672C549.578 515.672 549.578 515.883 549.472 515.813C540.459 508.795 533.797 499.197 530.374 488.298C530.286 487.947 530.813 487.631 530.989 488C535.806 498.079 542.068 507.401 549.578 515.672V515.672Z" fill="#263238" fill-opacity="0.88"/>
<path d="M560.752 508.996C560.752 509.083 560.752 509.224 560.576 509.136C551.704 502.108 543.674 490.512 541.619 477.862C541.619 477.423 541.917 476.966 542.04 477.458C544.008 485.768 553.584 501.335 560.752 508.996Z" fill="#263238" fill-opacity="0.88"/>
<path d="M553.865 468.181C556.307 480.234 562.369 490.301 570.082 499.807C570.187 499.93 569.994 500.053 569.889 499.982C564.864 496.468 560.577 489.862 557.59 484.503C554.798 479.575 553.345 474.003 553.373 468.339C553.443 468.04 553.812 467.935 553.865 468.181Z" fill="#263238" fill-opacity="0.88"/>
<path d="M435.831 350.323C430.56 352.449 430.999 359.406 434.601 367.998C438.203 376.59 443.825 382.651 449.605 382.194C455.386 381.738 457.547 373.568 458.074 368.876C458.478 365.187 457.125 357.737 450.765 354.1C444.405 350.463 438.835 349.11 435.831 350.323Z" fill="#455A64"/>
<path d="M448.147 378.909C441.822 377.942 434.496 363.869 433.477 355.154C433.477 354.557 436.235 349.69 439.415 343.611C441.313 339.921 443.351 335.775 444.932 331.839L467.14 347.74C463.762 352.064 460.924 356.784 458.689 361.796C458.474 362.336 458.309 362.894 458.197 363.465C458.203 363.559 458.203 363.652 458.197 363.746C457.389 367.067 454.262 379.84 448.147 378.909Z" fill="#AD6359"/>
<path d="M458.197 363.553C458.197 363.553 458.197 363.711 458.197 363.816C457.314 363.595 456.45 363.301 455.614 362.938C441.559 356.876 445.178 338.077 446.513 332.911L452.048 336.882L467.21 347.758C463.83 352.08 460.992 356.8 458.759 361.813C458.514 362.373 458.326 362.956 458.197 363.553Z" fill="#263238" fill-opacity="0.88"/>
<path d="M449.324 304.22C444.405 312.758 443.175 340.378 448.34 347.793C455.825 358.528 471.181 362.903 481.02 353.204C490.613 343.804 491.562 307.769 485.536 300.723C476.61 290.357 456.563 291.622 449.324 304.22Z" fill="#AD6359"/>
<path d="M471.462 327.429C471.462 327.429 471.322 327.429 471.322 327.587C471.322 329.45 470.935 331.576 469.213 332.103C469.213 332.103 469.213 332.226 469.213 332.208C471.304 332.033 471.743 329.204 471.462 327.429Z" fill="#263238" fill-opacity="0.88"/>
<path d="M469.899 325.409C466.93 325.022 466.385 331.013 469.161 331.365C471.937 331.716 472.411 325.725 469.899 325.409Z" fill="#263238" fill-opacity="0.88"/>
<path d="M482.022 328.027C482.022 328.027 482.162 328.027 482.145 328.202C481.934 330.047 481.987 332.208 483.603 332.964C483.603 332.964 483.603 333.087 483.603 333.069C481.565 332.595 481.512 329.731 482.022 328.027Z" fill="#263238" fill-opacity="0.88"/>
<path d="M483.849 326.235C486.854 326.235 486.555 332.279 483.849 332.243C481.143 332.208 481.337 326.199 483.849 326.235Z" fill="#263238" fill-opacity="0.88"/>
<path d="M467.369 320.718C468.189 320.638 469.004 320.514 469.811 320.349C470.688 320.346 471.539 320.056 472.235 319.523C472.405 319.297 472.497 319.023 472.497 318.741C472.497 318.459 472.405 318.185 472.235 317.959C471.852 317.549 471.368 317.248 470.831 317.084C470.295 316.921 469.725 316.901 469.178 317.028C468.031 317.126 466.96 317.645 466.174 318.486C465.993 318.693 465.88 318.95 465.848 319.223C465.817 319.496 465.87 319.773 466 320.015C466.13 320.257 466.33 320.454 466.575 320.58C466.819 320.705 467.096 320.753 467.369 320.718V320.718Z" fill="#263238" fill-opacity="0.88"/>
<path d="M486.854 321.473C486.067 321.238 485.293 320.962 484.534 320.647C483.676 320.464 482.899 320.008 482.321 319.347C482.195 319.112 482.147 318.843 482.181 318.578C482.216 318.314 482.332 318.067 482.514 317.871C482.97 317.544 483.503 317.343 484.062 317.287C484.62 317.232 485.183 317.324 485.694 317.555C486.798 317.876 487.744 318.596 488.347 319.576C488.453 319.802 488.493 320.054 488.465 320.303C488.436 320.551 488.339 320.787 488.184 320.984C488.029 321.18 487.823 321.33 487.588 321.416C487.353 321.503 487.099 321.522 486.854 321.473Z" fill="#263238" fill-opacity="0.88"/>
<path d="M442.455 322.58C442.173 320.032 441.049 298.404 442.209 295.663C443.368 292.922 445.933 294.697 446.004 294.556C446.074 294.416 446.548 292.061 448.147 291.411C448.689 291.286 449.25 291.273 449.797 291.372C450.344 291.472 450.865 291.683 451.327 291.991C451.327 291.991 452.188 289.566 453.857 289.145C454.412 289.07 454.976 289.14 455.496 289.346C456.016 289.552 456.474 289.888 456.827 290.322C457.08 289.681 457.486 289.113 458.01 288.666C458.534 288.218 459.159 287.906 459.831 287.757C460.418 287.691 461.01 287.816 461.519 288.113C462.029 288.411 462.429 288.865 462.66 289.408C462.66 289.408 463.732 287.142 465.436 286.948C467.14 286.755 468.282 288.705 468.282 288.705C468.618 288.149 469.096 287.692 469.668 287.383C470.239 287.074 470.883 286.924 471.533 286.948C472.148 287.092 472.706 287.416 473.135 287.88C473.563 288.343 473.844 288.925 473.94 289.549C474.345 289.033 474.863 288.616 475.453 288.33C476.044 288.044 476.692 287.896 477.348 287.897C479.228 288.143 479.492 290.585 479.492 290.585C479.492 290.585 480.581 288.635 482.32 289.057C484.06 289.478 484.077 292.009 484.077 292.009C484.077 292.009 485.659 289.549 487.398 290.902C489.454 292.518 489.594 308.471 489.155 315.148C489.155 315.148 488.417 310.211 486.52 310.141C484.622 310.07 483.339 314.164 479.896 312.881C476.452 311.599 471.884 307.611 466.789 307.821C461.693 308.032 457.6 313.092 454.63 320.401C451.345 328.642 443.122 328.606 442.455 322.58Z" fill="#263238" fill-opacity="0.88"/>
<path d="M466.385 336.003C464.953 335.684 463.639 334.968 462.594 333.939C461.549 332.91 460.813 331.607 460.471 330.181C460.13 328.754 460.195 327.26 460.661 325.869C461.127 324.477 461.973 323.245 463.105 322.311C464.237 321.377 465.608 320.78 467.062 320.587C468.517 320.394 469.996 320.614 471.332 321.22C472.668 321.827 473.806 322.796 474.618 324.018C475.43 325.24 475.883 326.666 475.925 328.132V328.132C475.952 329.322 475.709 330.503 475.213 331.586C474.718 332.669 473.983 333.625 473.065 334.383C472.147 335.141 471.068 335.68 469.911 335.961C468.754 336.242 467.548 336.256 466.385 336.003V336.003ZM469.582 321.719C469.005 321.599 468.415 321.545 467.825 321.561C466.105 321.631 464.475 322.353 463.267 323.581C462.059 324.808 461.363 326.449 461.321 328.171C461.279 329.892 461.893 331.566 463.039 332.851C464.186 334.136 465.778 334.938 467.493 335.092C469.208 335.246 470.918 334.742 472.275 333.682C473.633 332.622 474.536 331.086 474.802 329.384C475.067 327.683 474.676 325.944 473.707 324.52C472.737 323.097 471.263 322.095 469.582 321.719V321.719Z" fill="#FFC727"/>
<path d="M484.271 337.778C481.354 337.11 479.369 333.526 479.79 329.45C479.958 327.504 480.733 325.661 482.004 324.179C482.535 323.533 483.211 323.022 483.978 322.689C484.745 322.356 485.58 322.21 486.414 322.264C487.24 322.377 488.026 322.689 488.705 323.173C489.385 323.656 489.937 324.297 490.315 325.04C491.256 326.754 491.637 328.72 491.404 330.662C490.947 334.967 487.978 338.182 484.78 337.848L484.271 337.778ZM486.695 323.371H486.309C485.639 323.333 484.97 323.457 484.359 323.732C483.747 324.008 483.211 324.426 482.795 324.952C481.664 326.263 480.981 327.9 480.845 329.626C480.44 333.35 482.268 336.653 484.886 336.882C487.503 337.11 489.963 334.352 490.367 330.627C490.566 328.906 490.235 327.165 489.419 325.637C489.151 325.088 488.769 324.603 488.3 324.212C487.83 323.821 487.284 323.535 486.695 323.371V323.371Z" fill="#FFC727"/>
<path d="M475.573 329.011L474.994 328.132C476.276 327.271 479.14 326.217 480.844 328.448L480.001 329.081C478.49 327.078 475.696 328.923 475.573 329.011Z" fill="#FFC727"/>
<path d="M440.628 327.394L439.767 326.814C440.03 326.41 442.455 322.826 444.809 322.685C447.163 322.545 460.85 325.321 461.448 325.444L461.237 326.48C457.266 325.672 446.584 323.634 444.879 323.74C443.175 323.845 441.278 326.41 440.628 327.394Z" fill="#FFC727"/>
<path d="M450.027 327.131C450.027 327.131 445.793 317.274 441.436 318.592C437.078 319.909 439.011 333.35 443.193 336.021C443.711 336.401 444.301 336.672 444.927 336.817C445.553 336.962 446.202 336.978 446.835 336.865C447.467 336.751 448.07 336.511 448.607 336.157C449.144 335.804 449.603 335.345 449.957 334.809L450.027 327.131Z" fill="#AD6359"/>
<path d="M442.103 322.439C442.103 322.439 441.998 322.439 442.103 322.545C445.055 324.53 446.127 327.816 446.671 331.207C446.554 330.844 446.358 330.511 446.099 330.232C445.839 329.953 445.522 329.733 445.169 329.589C444.816 329.446 444.435 329.38 444.055 329.399C443.674 329.417 443.302 329.519 442.964 329.696C442.859 329.696 442.964 329.889 442.964 329.889C443.567 329.823 444.175 329.947 444.704 330.243C445.233 330.539 445.656 330.993 445.916 331.541C446.342 332.457 446.666 333.417 446.882 334.404C446.987 334.738 447.532 334.686 447.497 334.404V334.317C448.393 330.17 446.408 323.757 442.103 322.439Z" fill="#263238" fill-opacity="0.88"/>
<defs>
<linearGradient id="paint0_linear_275_1251" x1="736.5" y1="-53" x2="736.5" y2="1373" gradientUnits="userSpaceOnUse">
<stop stop-color="#967258"/>
<stop offset="0.671875" stop-color="#C1B5AB" stop-opacity="0.354167"/>
<stop offset="1" stop-color="#D9D9D9" stop-opacity="0"/>
</linearGradient>
</defs>
</svg>
