<svg width="789" height="899" viewBox="0 0 789 899" fill="none" xmlns="http://www.w3.org/2000/svg">
<ellipse cx="464.315" cy="449.5" rx="464.315" ry="449.5" fill="url(#paint0_linear_316_1248)"/>
<path d="M188.886 545.351H153.219V557.746H188.886V545.351Z" fill="#EBEBEB" fill-opacity="0.44"/>
<path d="M168.981 560.98H133.314V573.375H168.981V560.98Z" fill="#EBEBEB" fill-opacity="0.44"/>
<path d="M271.063 313.074H235.396V325.469H271.063V313.074Z" fill="#EBEBEB" fill-opacity="0.44"/>
<path d="M251.17 328.704H215.503V341.098H251.17V328.704Z" fill="#EBEBEB" fill-opacity="0.44"/>
<path d="M231.354 313.074H195.687V325.469H231.354V313.074Z" fill="#EBEBEB" fill-opacity="0.44"/>
<path d="M599.12 560.98H563.453V573.375H599.12V560.98Z" fill="#EBEBEB" fill-opacity="0.44"/>
<path d="M579.226 170.851H543.559V183.245H579.226V170.851Z" fill="#EBEBEB" fill-opacity="0.44"/>
<path d="M599.12 186.48H563.453V198.874H599.12V186.48Z" fill="#EBEBEB" fill-opacity="0.44"/>
<path d="M168.981 170.851H133.314V183.245H168.981V170.851Z" fill="#EBEBEB" fill-opacity="0.44"/>
<path d="M291.145 253.449H129.87V260.372H291.145V253.449Z" fill="#EBEBEB" fill-opacity="0.44"/>
<path d="M153.319 287.631H147.038L144.513 260.372H153.319V287.631Z" fill="#EBEBEB" fill-opacity="0.44"/>
<path d="M267.696 287.631H273.976L276.502 260.372H267.696V287.631Z" fill="#EBEBEB" fill-opacity="0.44"/>
<path d="M144.513 260.372H153.308V269.754H145.377L144.513 260.372Z" fill="#DBDBDB"/>
<path d="M276.491 260.372L275.627 269.754H267.696V260.372H276.491Z" fill="#DBDBDB"/>
<path d="M176.458 216.442C170.089 225.071 163.443 235.095 161.826 245.917C161.826 246.083 162.069 246.138 162.103 245.917C162.836 242.962 163.78 240.064 164.927 237.244C169.114 236.136 173.224 235.15 175.428 230.986C177.632 226.821 177.388 221.138 176.956 216.475C176.934 216.287 176.591 216.276 176.458 216.442Z" fill="#EBEBEB" fill-opacity="0.44"/>
<path d="M164.982 237.222C167.793 230.639 171.575 224.516 176.203 219.056C176.203 219.056 176.28 219.056 176.203 219.056C173.287 222.822 170.725 226.849 168.549 231.085C170.665 228.948 172.98 227.031 174.973 224.749C174.973 224.749 175.073 224.749 175.04 224.816C173.126 227.371 170.871 229.651 168.338 231.595C167.652 232.88 166.954 234.165 166.245 235.438L166.777 235.173C166.583 235.28 166.383 235.376 166.179 235.461C165.846 236.07 165.514 236.679 165.171 237.288C165.115 237.477 164.927 237.355 164.982 237.222Z" fill="#A6A6A6"/>
<path d="M167.12 234.984C168.831 234.004 170.465 232.893 172.005 231.661C172.005 231.661 172.116 231.661 172.071 231.661C170.576 232.953 168.937 234.068 167.186 234.984C167.109 235.139 167.042 235.029 167.12 234.984Z" fill="#A6A6A6"/>
<path d="M161.128 245.817C161.135 245.842 161.151 245.864 161.172 245.879C161.193 245.894 161.218 245.903 161.244 245.903C161.27 245.903 161.295 245.894 161.316 245.879C161.337 245.864 161.352 245.842 161.36 245.817C161.36 242.251 161.36 238.673 161.36 235.095C162.268 233.245 164.229 232.226 165.591 230.753C166.573 229.672 167.427 228.483 168.139 227.208C169.782 224.165 170.785 220.818 171.085 217.372C171.462 213.562 169.978 200.979 168.416 201.411C167.574 201.633 164.883 207.869 164.163 209.929C163.002 213.33 162.153 216.83 161.626 220.385C160.486 228.816 160.319 237.349 161.128 245.817V245.817Z" fill="#EBEBEB" fill-opacity="0.44"/>
<path d="M161.094 230.487C161.454 225.954 162.195 221.46 163.31 217.051C164.137 212.359 165.704 207.828 167.951 203.626C167.951 203.549 168.106 203.626 168.073 203.693C166.453 206.963 165.202 210.403 164.34 213.95C164.495 213.695 164.694 213.451 164.861 213.208C165.027 212.964 165.082 213.208 165.027 213.307C164.81 213.701 164.554 214.073 164.262 214.415C163.432 217.738 162.834 221.227 162.313 224.661L162.413 224.506C162.413 224.506 162.479 224.506 162.413 224.506C162.346 224.506 162.28 224.727 162.213 224.849C161.958 226.588 161.715 228.327 161.471 230.055C164.65 227.531 167.147 224.253 168.737 220.518C168.737 220.518 168.737 220.518 168.737 220.518C167.409 224.533 164.842 228.023 161.405 230.487L161.205 231.883C161.205 231.971 161.039 231.949 161.039 231.883C161.039 231.462 161.039 231.052 161.039 230.642C161.03 230.629 161.023 230.614 161.021 230.598C161.019 230.582 161.02 230.565 161.026 230.55C161.031 230.535 161.04 230.521 161.052 230.51C161.064 230.499 161.079 230.491 161.094 230.487V230.487Z" fill="#A6A6A6"/>
<path d="M162.568 223.897C164.992 220.456 167.109 216.809 168.893 212.997C168.893 212.997 168.992 212.997 168.97 212.997C167.554 217.003 165.422 220.718 162.679 223.963C162.667 223.969 162.654 223.971 162.642 223.97C162.629 223.97 162.616 223.966 162.605 223.96C162.594 223.953 162.585 223.944 162.579 223.933C162.572 223.922 162.568 223.909 162.568 223.897Z" fill="#A6A6A6"/>
<path d="M159.378 236.679C159.335 239.045 159.057 241.401 158.547 243.713C158.547 243.956 158.625 244.211 158.658 244.477C159.383 241.925 159.803 239.296 159.909 236.646C159.933 236.61 159.946 236.567 159.946 236.524C159.946 236.481 159.933 236.438 159.909 236.402V236.402C160.008 232.846 159.733 229.289 159.09 225.791C157.982 219.233 155.579 212.942 151.004 208.068C150.967 208.036 150.923 208.013 150.875 208C150.828 207.987 150.778 207.986 150.73 207.996C150.682 208.005 150.637 208.026 150.598 208.056C150.559 208.085 150.527 208.124 150.505 208.168C148.656 212.864 149.298 218.458 150.871 223.132C151.723 225.667 152.943 228.063 154.493 230.243C156.11 232.414 158.104 234.275 159.378 236.679Z" fill="#EBEBEB" fill-opacity="0.44"/>
<path d="M151.591 210.228C156.116 217.345 158.782 225.484 159.344 233.899C159.344 234.043 159.112 234.076 159.09 233.899C158.99 233.157 158.868 232.415 158.746 231.683C156.849 230.037 155.18 228.144 153.784 226.057C153.784 226.057 153.784 225.979 153.85 226.057C155.336 227.882 156.931 229.617 158.624 231.251C158.314 229.413 157.949 227.607 157.517 225.824L157.173 225.425C157.096 225.337 157.229 225.204 157.306 225.292L157.406 225.414C156.813 222.975 156.073 220.575 155.191 218.225C153.988 217.008 152.936 215.65 152.056 214.182C152.056 214.182 152.056 214.116 152.056 214.182C152.676 215.104 153.345 215.991 154.061 216.841C154.349 217.173 154.67 217.494 154.969 217.816C153.973 215.268 152.788 212.798 151.425 210.427C151.336 210.217 151.524 210.128 151.591 210.228Z" fill="#A6A6A6"/>
<path d="M152.444 218.901C153.85 220.784 155.445 222.578 156.741 224.528C156.75 224.54 156.754 224.554 156.752 224.569C156.75 224.584 156.742 224.597 156.73 224.605C156.718 224.614 156.704 224.618 156.689 224.616C156.675 224.614 156.662 224.606 156.653 224.594C154.991 222.902 153.547 221.008 152.355 218.956C152.333 218.89 152.444 218.846 152.444 218.901Z" fill="#A6A6A6"/>
<path d="M156.963 224.949L157.018 225.015C157.018 225.015 157.018 225.115 156.952 225.082V225.015C156.952 225.015 156.874 224.949 156.963 224.949Z" fill="#A6A6A6"/>
<path d="M144.136 221.969C144.648 225.899 146.231 229.612 148.711 232.702C149.743 233.91 151.014 234.891 152.444 235.582C154.05 236.369 155.767 237.288 157.395 237.942C158.166 239.951 158.734 242.033 159.09 244.156C159.09 243.978 159.201 243.79 159.245 243.613C158.204 234.453 152.278 226.633 144.69 221.626C144.632 221.595 144.567 221.58 144.501 221.582C144.435 221.584 144.37 221.603 144.314 221.638C144.258 221.673 144.212 221.722 144.181 221.78C144.15 221.838 144.134 221.903 144.136 221.969V221.969Z" fill="#EBEBEB" fill-opacity="0.44"/>
<path d="M146.761 224.672C146.754 224.66 146.75 224.647 146.75 224.633C146.751 224.619 146.755 224.605 146.764 224.594C146.773 224.583 146.784 224.575 146.798 224.571C146.811 224.567 146.826 224.567 146.839 224.572C151.001 227.667 154.318 231.757 156.487 236.469C156.496 236.493 156.496 236.52 156.488 236.545C156.479 236.569 156.462 236.59 156.439 236.604C156.417 236.617 156.39 236.622 156.364 236.617C156.339 236.613 156.315 236.599 156.298 236.579C155.955 235.959 155.589 235.361 155.191 234.774C153.427 234.302 151.821 233.369 150.538 232.071C150.538 232.071 150.538 231.994 150.538 232.071C151.212 232.672 151.956 233.189 152.754 233.611C153.463 233.965 154.216 234.187 154.969 234.475C154.327 233.456 153.662 232.481 152.964 231.539C151.097 230.828 149.346 229.842 147.769 228.615C147.714 228.615 147.769 228.493 147.769 228.527C149.334 229.473 150.946 230.338 152.599 231.118C151.55 229.72 150.41 228.391 149.187 227.142C148.6 226.832 148.013 226.511 147.437 226.178C147.437 226.178 147.437 226.079 147.437 226.09C147.908 226.259 148.357 226.482 148.777 226.754C148.212 226.056 147.515 225.337 146.761 224.672Z" fill="#A6A6A6"/>
<path d="M146.906 227.829C147.008 227.89 147.104 227.96 147.194 228.039C147.088 227.995 146.988 227.939 146.895 227.873C146.895 227.873 146.906 227.796 146.906 227.829Z" fill="#A6A6A6"/>
<path d="M168.593 253.438H152.986L153.751 243.214L154.05 239.88H167.386L167.685 243.214L168.593 253.438Z" fill="#DBDBDB"/>
<path d="M167.685 243.214H153.75L154.05 239.88H167.386L167.685 243.214Z" fill="#C7C7C7" fill-opacity="0.35"/>
<path d="M168.449 237.144H152.986V240.567H168.449V237.144Z" fill="#DBDBDB"/>
<path d="M219.28 253.416V206.883H207.561V253.416H219.28Z" fill="#C7C7C7" fill-opacity="0.35"/>
<path d="M219.28 209.508V204.391H207.561V209.508H219.28Z" fill="#DBDBDB"/>
<path d="M219.28 217.948V216.054H207.561V217.948H219.28Z" fill="#DBDBDB"/>
<path d="M219.28 247.313V242.195H207.561V247.313H219.28Z" fill="#DBDBDB"/>
<path d="M227.466 253.416V199.129H219.28V253.416H227.466Z" fill="#DBDBDB"/>
<path d="M225.804 225.115V204.236H220.886V225.115H225.804Z" fill="#EBEBEB" fill-opacity="0.44"/>
<path d="M285.793 247.531L247.187 209.367L241.432 215.188L280.039 253.353L285.793 247.531Z" fill="#C7C7C7" fill-opacity="0.35"/>
<path d="M275.601 239.721L260.752 225.042L257.294 228.54L272.143 243.218L275.601 239.721Z" fill="#DBDBDB"/>
<path d="M241.367 253.427V212.189H227.455V253.427H241.367Z" fill="#A6A6A6"/>
<path d="M241.367 249.052V245.208H227.455V249.052H241.367Z" fill="#C7C7C7" fill-opacity="0.35"/>
<path d="M241.378 242.694V241.198H227.466V242.694H241.378Z" fill="#C7C7C7" fill-opacity="0.35"/>
<path d="M192.355 253.446L207.638 217.841L198.813 214.053L183.531 249.658L192.355 253.446Z" fill="#A6A6A6"/>
<path d="M193.973 249.667L195.397 246.349L186.573 242.561L185.148 245.879L193.973 249.667Z" fill="#C7C7C7" fill-opacity="0.35"/>
<path d="M203.058 228.481L204.483 225.163L195.659 221.374L194.234 224.692L203.058 228.481Z" fill="#C7C7C7" fill-opacity="0.35"/>
<path d="M201.522 232.039L202.072 230.757L193.248 226.967L192.697 228.25L201.522 232.039Z" fill="#C7C7C7" fill-opacity="0.35"/>
<path d="M457.826 460.593V625.479H557.516V460.593H457.826ZM548.455 564.624H466.876V521.703H548.455V564.624ZM548.455 511.457H466.876V468.557H548.455V511.457Z" fill="#DBDBDB"/>
<path d="M602.576 460.593H557.505V625.479H602.576V460.593Z" fill="#EBEBEB" fill-opacity="0.44"/>
<path d="M486.26 468.557H466.876V511.479H486.26V468.557Z" fill="#EBEBEB" fill-opacity="0.44"/>
<path d="M548.732 615.411H467.108V573.929H548.732V615.411ZM467.662 614.857H548.178V574.483H467.662V614.857Z" fill="#EBEBEB" fill-opacity="0.44"/>
<path d="M515.967 585.714H499.862V591.596H515.967V585.714Z" fill="#EBEBEB" fill-opacity="0.44"/>
<path d="M486.26 521.703H466.876V564.624H486.26V521.703Z" fill="#EBEBEB" fill-opacity="0.44"/>
<path d="M537.301 564.624V525.048H523.665V564.624H537.301Z" fill="#A6A6A6"/>
<path d="M537.29 558.266V549.726H523.655V558.266H537.29Z" fill="#DBDBDB"/>
<path d="M537.29 542.859V537.797H523.655V542.859H537.29Z" fill="#DBDBDB"/>
<path d="M525.128 478.36H490.657V511.479H525.128V478.36Z" fill="#EBEBEB" fill-opacity="0.44"/>
<path d="M538.231 478.36H525.127V511.479H538.231V478.36Z" fill="#C7C7C7" fill-opacity="0.35"/>
<path d="M490.657 494.919H525.128L498.211 495.772L490.657 494.919Z" fill="#C7C7C7" fill-opacity="0.35"/>
<path d="M525.128 507.48H490.657L517.573 508.333L525.128 507.48Z" fill="#C7C7C7" fill-opacity="0.35"/>
<path d="M490.657 485.659H512.489L493.083 486.357L490.657 485.659Z" fill="#C7C7C7" fill-opacity="0.35"/>
<path d="M525.128 502.606H503.296L522.702 503.304L525.128 502.606Z" fill="#C7C7C7" fill-opacity="0.35"/>
<path d="M498.932 481.982H523.555L519.446 482.392L498.932 481.982Z" fill="#C7C7C7" fill-opacity="0.35"/>
<path d="M494.013 498.475H518.637L514.527 498.885L494.013 498.475Z" fill="#C7C7C7" fill-opacity="0.35"/>
<path d="M509.155 488.816H525.128L527.986 489.935L509.155 488.816Z" fill="#EBEBEB" fill-opacity="0.44"/>
<path d="M486.26 488.816H502.232L505.09 489.935L486.26 488.816Z" fill="#EBEBEB" fill-opacity="0.44"/>
<path d="M506.763 503.703H490.779L487.933 504.822L506.763 503.703Z" fill="#EBEBEB" fill-opacity="0.44"/>
<path d="M525.127 499.926H537.954L540.812 501.034L525.127 499.926Z" fill="#C7C7C7" fill-opacity="0.35"/>
<path d="M529.603 494.919H539.549L538.231 494.011L529.603 494.919Z" fill="#C7C7C7" fill-opacity="0.35"/>
<path d="M548.444 522.411H537.29V564.624H548.444V522.411Z" fill="#EBEBEB" fill-opacity="0.44"/>
<path d="M542.872 530.741C542.412 530.741 541.963 530.605 541.58 530.349C541.198 530.093 540.9 529.73 540.723 529.305C540.547 528.88 540.501 528.412 540.591 527.961C540.681 527.51 540.902 527.096 541.228 526.77C541.553 526.445 541.967 526.223 542.419 526.134C542.87 526.044 543.338 526.09 543.763 526.266C544.188 526.442 544.551 526.74 544.807 527.123C545.062 527.505 545.199 527.955 545.199 528.415C545.199 529.032 544.954 529.624 544.517 530.06C544.081 530.496 543.489 530.741 542.872 530.741Z" fill="white"/>
<path d="M542.872 529.744C542.609 529.744 542.352 529.666 542.134 529.52C541.915 529.374 541.745 529.167 541.644 528.924C541.544 528.681 541.517 528.414 541.569 528.156C541.62 527.898 541.746 527.661 541.932 527.475C542.118 527.289 542.355 527.163 542.613 527.111C542.871 527.06 543.138 527.086 543.381 527.187C543.624 527.288 543.831 527.458 543.977 527.677C544.123 527.895 544.201 528.152 544.201 528.415C544.201 528.768 544.061 529.106 543.812 529.355C543.563 529.604 543.225 529.744 542.872 529.744V529.744Z" fill="#A6A6A6"/>
<path d="M548.455 557.967V547.699H537.301V557.967H548.455Z" fill="white"/>
<path d="M523.654 555.918H481.441V564.691H523.654V555.918Z" fill="#C7C7C7" fill-opacity="0.35"/>
<path d="M515.325 560.305C515.323 559.844 515.457 559.393 515.711 559.009C515.966 558.625 516.328 558.325 516.753 558.148C517.178 557.97 517.646 557.922 518.098 558.011C518.55 558.099 518.965 558.32 519.292 558.645C519.618 558.97 519.841 559.384 519.931 559.836C520.022 560.287 519.977 560.755 519.801 561.181C519.625 561.607 519.327 561.971 518.944 562.227C518.562 562.483 518.111 562.62 517.651 562.62C517.036 562.62 516.446 562.376 516.01 561.942C515.574 561.508 515.328 560.92 515.325 560.305V560.305Z" fill="white"/>
<path d="M516.322 560.305C516.322 560.042 516.4 559.785 516.546 559.566C516.692 559.348 516.899 559.177 517.142 559.077C517.385 558.976 517.652 558.95 517.91 559.001C518.168 559.052 518.405 559.179 518.591 559.365C518.777 559.551 518.903 559.787 518.955 560.045C519.006 560.303 518.98 560.57 518.879 560.813C518.778 561.056 518.608 561.264 518.389 561.41C518.171 561.556 517.914 561.634 517.651 561.634C517.298 561.634 516.96 561.494 516.711 561.244C516.462 560.995 516.322 560.657 516.322 560.305V560.305Z" fill="#A6A6A6"/>
<path d="M488.087 564.68H498.355V555.907H488.087V564.68Z" fill="white"/>
<path d="M601.258 547.788C590.635 562.188 579.57 578.858 576.889 596.891C576.889 597.168 577.299 597.256 577.354 596.979C578.581 592.076 580.151 587.264 582.051 582.58C589.04 580.652 595.886 579.079 599.552 572.145C603.296 565.023 602.82 555.741 602.111 547.976C602.033 547.533 601.468 547.511 601.258 547.788Z" fill="#FFC727"/>
<path d="M582.139 582.413C586.913 571.702 593.027 560.958 600.814 552.152C600.814 552.152 600.947 552.152 600.903 552.241C595.808 558.51 591.931 565.333 588.154 572.278C591.665 568.712 595.52 565.511 598.854 561.733C598.92 561.656 599.02 561.733 598.953 561.833C595.63 565.81 592.042 570.118 587.733 573.054C586.57 575.18 585.407 577.329 584.233 579.467C584.521 579.301 584.82 579.157 585.108 579.013L585.163 579.091C584.831 579.257 584.509 579.434 584.166 579.578L582.482 582.602C582.349 582.834 582.039 582.635 582.139 582.413Z" fill="#263238" fill-opacity="0.88"/>
<path d="M585.684 578.67C588.541 577.076 591.267 575.257 593.836 573.231C593.903 573.176 594.013 573.231 593.936 573.331C591.445 575.48 588.718 577.338 585.806 578.869C585.78 578.876 585.753 578.874 585.729 578.864C585.705 578.855 585.684 578.837 585.67 578.815C585.657 578.792 585.65 578.766 585.653 578.74C585.655 578.714 585.666 578.689 585.684 578.67V578.67Z" fill="#263238" fill-opacity="0.88"/>
<path d="M575.637 594.21C575.637 594.432 576.036 594.432 576.025 594.21C576.025 588.262 576.025 582.303 576.124 576.332C577.642 573.264 580.91 571.558 583.18 569.099C584.813 567.305 586.233 565.328 587.412 563.207C590.148 558.137 591.821 552.563 592.33 546.824C592.961 540.466 590.546 519.498 587.899 520.24C586.514 520.617 582.017 531.007 580.832 534.43C578.893 540.092 577.477 545.921 576.601 551.842C574.397 565.799 574.574 580.143 575.637 594.21Z" fill="#FFC727"/>
<path d="M575.571 568.59C575.892 561.069 577.587 553.481 579.171 546.193C580.877 538.34 582.87 530.952 586.924 523.951C586.939 523.925 586.964 523.905 586.993 523.897C587.022 523.888 587.053 523.892 587.079 523.907C587.106 523.921 587.125 523.946 587.134 523.975C587.142 524.004 587.138 524.035 587.124 524.062C584.433 529.51 582.349 535.238 580.91 541.142C581.176 540.721 581.508 540.322 581.785 539.912C581.896 539.757 582.161 539.912 582.051 540.068C581.691 540.703 581.268 541.301 580.788 541.851C580.779 541.855 580.77 541.857 580.76 541.857C580.751 541.857 580.741 541.855 580.733 541.851C579.348 547.467 578.34 553.204 577.487 558.931C577.556 558.862 577.619 558.788 577.675 558.71C577.675 558.71 577.797 558.71 577.764 558.776C577.731 558.842 577.542 559.164 577.432 559.352C577 562.254 576.601 565.156 576.191 568.036C581.375 563.605 585.795 558.399 588.287 551.975C588.287 551.975 588.342 551.975 588.287 551.975C585.85 558.621 581.995 564.558 576.102 568.59C575.992 569.365 575.881 570.141 575.781 570.916C575.781 571.071 575.493 571.027 575.493 570.916C575.493 570.24 575.493 569.554 575.56 568.867C575.537 568.851 575.52 568.829 575.507 568.805C575.495 568.78 575.49 568.753 575.491 568.725C575.492 568.698 575.5 568.671 575.514 568.648C575.528 568.624 575.547 568.604 575.571 568.59V568.59Z" fill="#263238" fill-opacity="0.88"/>
<path d="M578.03 557.702C582.076 551.971 585.605 545.892 588.574 539.536C588.574 539.469 588.741 539.536 588.707 539.591C586.341 546.26 582.791 552.448 578.229 557.857C578.14 557.956 577.952 557.823 578.03 557.702Z" fill="#263238" fill-opacity="0.88"/>
<path d="M583.325 538.085C584.964 535.183 586.647 532.358 588.231 529.412C588.231 529.323 588.387 529.412 588.353 529.478C587.091 532.563 585.49 535.498 583.579 538.229C583.435 538.417 583.192 538.251 583.325 538.085Z" fill="#263238" fill-opacity="0.88"/>
<path d="M571.616 577.03C571.539 580.969 571.076 584.89 570.232 588.738C570.298 589.159 570.354 589.58 570.42 590.023C571.629 585.771 572.332 581.392 572.514 576.975C572.549 576.914 572.567 576.845 572.567 576.776C572.567 576.706 572.549 576.637 572.514 576.576V576.576C572.681 570.658 572.244 564.738 571.207 558.909C569.368 547.987 565.347 537.52 557.737 529.334C557.674 529.28 557.599 529.242 557.519 529.221C557.438 529.2 557.354 529.199 557.273 529.216C557.192 529.233 557.115 529.268 557.05 529.32C556.984 529.371 556.932 529.437 556.896 529.512C553.816 537.321 554.891 546.636 557.505 554.434C558.93 558.654 560.964 562.643 563.542 566.275C566.167 569.919 569.501 573.021 571.616 577.03Z" fill="#FFC727"/>
<path d="M558.646 532.967C565.857 544.675 570.83 558.566 571.495 572.389C571.495 572.633 571.096 572.699 571.063 572.456C570.885 571.204 570.697 569.974 570.498 568.745C567.36 565.975 564.607 562.797 562.312 559.297C562.312 559.241 562.368 559.164 562.412 559.219C564.89 562.257 567.546 565.145 570.365 567.87C569.844 564.813 569.257 561.811 568.515 558.842C568.316 558.621 568.127 558.388 567.939 558.167C567.751 557.945 568.028 557.812 568.15 557.956L568.327 558.145C567.31 554.082 566.052 550.084 564.561 546.171C562.722 543.955 560.662 542.084 559.333 539.447L559.421 539.392C560.529 540.898 561.537 542.416 562.744 543.823C563.232 544.376 563.774 544.93 564.273 545.44C562.61 541.198 560.637 537.085 558.369 533.134C558.358 533.098 558.359 533.06 558.372 533.025C558.385 532.99 558.41 532.961 558.442 532.942C558.474 532.922 558.511 532.915 558.548 532.919C558.585 532.924 558.62 532.941 558.646 532.967V532.967Z" fill="#263238" fill-opacity="0.88"/>
<path d="M560.064 547.411C562.39 550.546 565.048 553.548 567.219 556.793C567.274 556.882 567.142 556.982 567.064 556.904C564.299 554.075 561.892 550.916 559.897 547.5C559.886 547.4 560.064 547.278 560.064 547.411Z" fill="#263238" fill-opacity="0.88"/>
<path d="M567.585 557.513L567.684 557.613C567.751 557.679 567.684 557.79 567.585 557.724L567.485 557.624C567.407 557.558 567.518 557.447 567.585 557.513Z" fill="#263238" fill-opacity="0.88"/>
<path d="M547.336 555.475C548.192 562.016 550.828 568.197 554.957 573.342C556.656 575.359 558.758 577 561.127 578.16C563.807 579.478 566.599 581.007 569.368 582.092C570.683 585.438 571.659 588.908 572.281 592.449C572.37 592.15 572.458 591.84 572.558 591.53C570.775 576.288 560.905 563.251 548.278 554.877C548.179 554.816 548.065 554.784 547.948 554.785C547.832 554.786 547.718 554.819 547.62 554.882C547.522 554.944 547.443 555.033 547.393 555.138C547.343 555.243 547.323 555.36 547.336 555.475Z" fill="#FFC727"/>
<path d="M551.701 559.983C551.612 559.906 551.701 559.751 551.834 559.817C558.771 564.975 564.301 571.793 567.917 579.644C568.005 579.855 567.729 580.032 567.607 579.822C567.02 578.803 566.422 577.795 565.812 576.82C562.932 576.277 560.208 574.25 558.059 572.323C558.003 572.267 558.059 572.19 558.147 572.234C559.25 573.237 560.474 574.096 561.791 574.793C562.966 575.391 564.239 575.768 565.458 576.244C564.35 574.549 563.243 572.921 562.135 571.348C559.023 570.164 556.104 568.525 553.473 566.485C553.395 566.419 553.473 566.286 553.562 566.341C556.168 567.912 558.852 569.35 561.603 570.65C559.847 568.32 557.95 566.101 555.921 564.004C554.946 563.495 553.949 562.974 553.008 562.42C552.93 562.42 553.008 562.243 553.008 562.276C553.788 562.555 554.532 562.927 555.223 563.384C554.138 562.232 552.963 561.091 551.701 559.983Z" fill="#263238" fill-opacity="0.88"/>
<path d="M551.978 565.256C552.144 565.36 552.303 565.475 552.454 565.599C552.51 565.599 552.454 565.699 552.399 565.677C552.22 565.598 552.049 565.502 551.889 565.389C551.801 565.333 551.889 565.189 551.978 565.256Z" fill="#263238" fill-opacity="0.88"/>
<path d="M592.252 625.479H557.66L560.451 593.977L561.071 587.032H588.851L589.461 593.977L592.252 625.479Z" fill="#455A64"/>
<path d="M589.461 593.977H560.451L561.071 587.032H588.852L589.461 593.977Z" fill="#263238" fill-opacity="0.88"/>
<path d="M590.502 582.17H559.41V589.048H590.502V582.17Z" fill="#455A64"/>
<path d="M276.901 505.564C271.994 508.466 267.043 511.279 262.08 514.071C257.118 516.862 252.112 519.609 247.138 522.345C242.165 525.081 237.169 527.773 232.085 530.431L224.52 534.396C221.983 535.681 219.458 537.01 216.899 538.273C219.347 536.811 221.828 535.404 224.287 533.964L231.719 529.755C236.682 526.964 241.688 524.217 246.662 521.481C251.635 518.745 256.631 516.065 261.715 513.406C266.799 510.748 271.806 508.112 276.901 505.564Z" fill="#DBDBDB"/>
<path d="M221.119 505.564C225.859 507.779 230.556 510.172 235.23 512.542C239.905 514.913 244.557 517.361 249.231 519.764C253.905 522.168 258.502 524.671 263.11 527.185L270.022 530.963C272.304 532.259 274.608 533.521 276.878 534.839C274.497 533.732 272.16 532.547 269.789 531.395L262.756 527.861C258.081 525.491 253.429 523.043 248.766 520.639C244.103 518.236 239.495 515.732 234.887 513.218C230.279 510.703 225.693 508.178 221.119 505.564Z" fill="#DBDBDB"/>
<path d="M333.525 505.564C328.629 508.466 323.678 511.279 318.715 514.071C313.753 516.862 308.746 519.609 303.762 522.345C298.777 525.081 293.793 527.773 288.709 530.431L281.143 534.396C278.607 535.681 276.081 537.01 273.534 538.273C275.982 536.811 278.452 535.404 280.911 533.964L288.343 529.755C293.305 526.964 298.312 524.217 303.297 521.481C308.281 518.745 313.266 516.065 318.35 513.406C323.434 510.748 328.429 508.112 333.525 505.564Z" fill="#DBDBDB"/>
<path d="M277.765 505.564C282.505 507.779 287.202 510.172 291.887 512.542C296.573 514.913 301.214 517.361 305.877 519.764C310.54 522.168 315.159 524.671 319.767 527.185L326.668 530.963C328.961 532.259 331.254 533.521 333.524 534.839C331.154 533.732 328.806 532.547 326.446 531.395L319.413 527.861C314.727 525.491 310.086 523.043 305.423 520.639C300.76 518.236 296.141 515.732 291.533 513.218C286.925 510.703 282.317 508.178 277.765 505.564Z" fill="#DBDBDB"/>
<path d="M323.179 497.722L326.169 515.721L346.495 625.479H349.774L334.997 515.721L332.815 497.722H323.179Z" fill="#DBDBDB"/>
<path d="M332.815 497.722H323.179L326.169 515.721H334.997L332.815 497.722Z" fill="#C7C7C7" fill-opacity="0.35"/>
<path d="M259.344 625.479H262.623L282.949 515.721L285.95 497.722H276.314L274.132 515.721L259.344 625.479Z" fill="#DBDBDB"/>
<path d="M276.314 497.722L274.132 515.721H282.949L285.951 497.722H276.314Z" fill="#C7C7C7" fill-opacity="0.35"/>
<path d="M198.378 625.479H201.657L221.983 515.721L224.984 497.722H215.348L213.166 515.721L198.378 625.479Z" fill="#DBDBDB"/>
<path d="M213.166 515.721H221.983L224.984 497.722H215.348L213.166 515.721Z" fill="#C7C7C7" fill-opacity="0.35"/>
<path d="M203.573 506.173H352.509V490.489H296.761L278.019 369.864H209.256L203.573 506.173Z" fill="#DBDBDB"/>
<path d="M203.573 506.173H211.692L216.987 369.864H209.256L203.573 506.173Z" fill="#C7C7C7" fill-opacity="0.35"/>
<path d="M186.327 557.026H159.721V561.7H186.327V557.026Z" fill="#455A64"/>
<path d="M200.76 625.479H197.88L174.453 516.087L173.113 509.851L168.904 490.212L167.342 482.89L161.438 455.409L159.378 445.783H169.613L171.285 455.409L172.382 461.723L173.113 465.932L177.311 490.212L178.673 498.021L200.76 625.479Z" fill="#455A64"/>
<path d="M169.613 445.783L171.285 455.409H161.438L159.378 445.783H169.613Z" fill="#263238" fill-opacity="0.88"/>
<path d="M178.673 498.021L174.453 516.087L173.113 509.851L168.904 490.212L167.342 482.89L172.382 461.723L173.113 465.932L177.311 490.212L178.673 498.021Z" fill="#263238" fill-opacity="0.88"/>
<path d="M186.837 445.783L184.776 455.409L177.311 490.212L173.113 509.851L148.334 625.479H145.465L168.903 490.212L173.113 465.932L174.929 455.409L176.602 445.783H186.837Z" fill="#455A64"/>
<path d="M186.837 445.783L184.776 455.409H174.929L176.602 445.783H186.837Z" fill="#263238" fill-opacity="0.88"/>
<path d="M425.039 557.026H398.433V561.7H425.039V557.026Z" fill="#455A64"/>
<path d="M439.472 625.479H436.592L413.165 516.087L411.825 509.851L407.616 490.212L406.054 482.89L400.15 455.409L398.09 445.783H408.325L409.997 455.409L411.094 461.723L411.825 465.932L416.023 490.212L417.385 498.021L439.472 625.479Z" fill="#455A64"/>
<path d="M408.325 445.783L409.997 455.409H400.15L398.09 445.783H408.325Z" fill="#263238" fill-opacity="0.88"/>
<path d="M417.386 498.021L413.165 516.087L411.825 509.851L407.616 490.212L406.054 482.89L411.094 461.723L411.825 465.932L416.023 490.212L417.386 498.021Z" fill="#263238" fill-opacity="0.88"/>
<path d="M425.549 445.783L423.489 455.409L416.023 490.212L411.825 509.851L387.047 625.479H384.178L407.616 490.212L411.825 465.932L413.642 455.409L415.314 445.783H425.549Z" fill="#455A64"/>
<path d="M425.549 445.783L423.489 455.409H413.642L415.314 445.783H425.549Z" fill="#263238" fill-opacity="0.88"/>
<path d="M445.487 438.75H139.451V445.783H445.487V438.75Z" fill="#455A64"/>
<path d="M455.068 425.314H129.87V438.75H455.068V425.314Z" fill="#37474F"/>
<path d="M156.165 424.649H203.883V378.803H156.165V424.649Z" fill="#EBEBEB" fill-opacity="0.44"/>
<path d="M138.033 424.649H156.166V378.803H138.033V424.649Z" fill="#C7C7C7" fill-opacity="0.35"/>
<path d="M203.884 401.721H156.166L193.427 402.906L203.884 401.721Z" fill="#C7C7C7" fill-opacity="0.35"/>
<path d="M156.166 419.111H203.884L166.622 420.296L156.166 419.111Z" fill="#C7C7C7" fill-opacity="0.35"/>
<path d="M203.884 388.905H173.656L200.528 389.869L203.884 388.905Z" fill="#C7C7C7" fill-opacity="0.35"/>
<path d="M156.166 412.365H186.394L159.522 413.329L156.166 412.365Z" fill="#C7C7C7" fill-opacity="0.35"/>
<path d="M192.441 383.81H158.348L164.03 384.386L192.441 383.81Z" fill="#C7C7C7" fill-opacity="0.35"/>
<path d="M199.242 406.639H165.16L170.842 407.215L199.242 406.639Z" fill="#C7C7C7" fill-opacity="0.35"/>
<path d="M178.285 393.28H156.165L152.222 394.82L178.285 393.28Z" fill="#EBEBEB" fill-opacity="0.44"/>
<path d="M209.976 393.28H187.856L183.913 394.82L209.976 393.28Z" fill="#DBDBDB"/>
<path d="M181.598 413.883H203.707L207.661 415.422L181.598 413.883Z" fill="#DBDBDB"/>
<path d="M156.165 408.655H138.409L134.455 410.194L156.165 408.655Z" fill="#C7C7C7" fill-opacity="0.35"/>
<path d="M149.974 401.721H136.194L138.033 400.469L149.974 401.721Z" fill="#C7C7C7" fill-opacity="0.35"/>
<path d="M595.42 192.627H351.9V516.076H595.42V192.627Z" fill="#634932"/>
<g opacity="0.1">
<path d="M595.42 192.627H351.9V516.076H595.42V192.627Z" fill="#020100"/>
</g>
<path d="M588.796 192.627H345.277V516.076H588.796V192.627Z" fill="#634932"/>
<path d="M574.948 205.538L359.991 208.277L363.704 499.668L578.661 496.929L574.948 205.538Z" fill="#EBEBEB" fill-opacity="0.44"/>
<path d="M361.736 204.631L355.429 495.977L570.354 500.63L576.66 209.283L361.736 204.631Z" fill="#DBDBDB"/>
<path d="M573.511 206.905H358.536V498.32H573.511V206.905Z" fill="white"/>
<path d="M406.265 295.197C400.527 295.341 389.395 295.562 383.657 295.629C383.535 288.983 383.569 279.689 383.513 272.999V272.445H384.067C390.791 272.512 400.062 272.445 406.697 272.578C406.619 278.327 406.42 289.459 406.265 295.197V295.197ZM406.265 295.197C406.121 289.658 405.921 278.582 405.844 273.044L406.265 273.464C399.851 273.542 390.58 273.564 384.111 273.597L384.665 273.044C384.665 279.59 384.61 288.783 384.532 295.197L384.111 294.776C389.65 294.842 400.782 295.064 406.265 295.197Z" fill="#C7C7C7" fill-opacity="0.87"/>
<path d="M418.061 276.798C434.333 276.045 450.737 276.045 467.009 276.798C450.726 277.563 434.333 277.552 418.061 276.798Z" fill="#C7C7C7" fill-opacity="0.87"/>
<path d="M418.061 282.149C459.798 281.406 506.198 281.429 547.968 282.149C506.187 282.857 459.809 282.88 418.061 282.149V282.149Z" fill="#C7C7C7" fill-opacity="0.87"/>
<path d="M385.707 282.946C386.526 283.633 387.302 284.342 388.077 285.062C388.852 285.782 389.594 286.524 390.292 287.277C391.788 288.75 393.228 290.268 394.645 291.807L392.109 291.973C394.123 287.754 396.433 283.683 399.021 279.789C400.306 277.854 401.672 275.964 403.119 274.118C404.579 272.253 406.163 270.488 407.86 268.834C407.182 271.103 406.353 273.323 405.379 275.48C404.437 277.618 403.396 279.712 402.277 281.75C400.045 285.837 397.536 289.768 394.767 293.513L393.372 295.374L392.264 293.679C391.09 291.94 389.938 290.19 388.83 288.407C388.298 287.499 387.723 286.612 387.213 285.693C386.703 284.774 386.161 283.899 385.707 282.946Z" fill="#263238" fill-opacity="0.88"/>
<path d="M406.265 336.823C400.527 336.967 389.395 337.188 383.657 337.255C383.535 330.609 383.569 321.327 383.513 314.625V314.071H384.067C390.791 314.138 400.062 314.071 406.697 314.215C406.619 319.964 406.42 331.085 406.265 336.823V336.823ZM406.265 336.823C406.121 331.284 405.921 320.208 405.844 314.669L406.265 315.101C399.851 315.179 390.58 315.19 384.111 315.223L384.665 314.669C384.665 321.216 384.61 330.42 384.532 336.823L384.111 336.402C389.65 336.468 400.782 336.69 406.265 336.823Z" fill="#C7C7C7" fill-opacity="0.87"/>
<path d="M418.061 318.391C434.333 317.638 450.737 317.627 467.009 318.391C450.726 319.144 434.333 319.144 418.061 318.391Z" fill="#C7C7C7" fill-opacity="0.87"/>
<path d="M418.061 323.73C459.798 322.999 506.198 323.01 547.968 323.73C506.187 324.45 459.809 324.472 418.061 323.73V323.73Z" fill="#C7C7C7" fill-opacity="0.87"/>
<path d="M385.707 324.528C386.526 325.214 387.302 325.923 388.077 326.643C388.852 327.363 389.594 328.105 390.292 328.859C391.788 330.343 393.228 331.86 394.645 333.4L392.109 333.555C394.128 329.36 396.437 325.311 399.021 321.437C400.306 319.503 401.672 317.612 403.119 315.766C404.577 313.899 406.161 312.133 407.86 310.482C407.182 312.751 406.353 314.971 405.379 317.128C404.437 319.277 403.396 321.36 402.277 323.409C400.045 327.493 397.536 331.42 394.767 335.161L393.372 337.033L392.264 335.327C391.09 333.599 389.938 331.849 388.83 330.055C388.298 329.147 387.723 328.26 387.213 327.341C386.703 326.422 386.161 325.48 385.707 324.528Z" fill="#263238" fill-opacity="0.88"/>
<path d="M406.265 378.371C400.527 378.515 389.395 378.737 383.657 378.803C383.535 372.157 383.569 362.864 383.513 356.174V355.653H384.067C390.791 355.719 400.062 355.653 406.697 355.786C406.619 361.535 406.42 372.656 406.265 378.404V378.371ZM406.265 378.371C406.121 372.833 405.921 361.756 405.844 356.218L406.265 356.639C399.851 356.716 390.58 356.738 384.111 356.772L384.665 356.218C384.665 362.764 384.61 371.958 384.532 378.371L384.111 377.95C389.65 378.017 400.782 378.238 406.265 378.371Z" fill="#C7C7C7" fill-opacity="0.87"/>
<path d="M418.061 359.973C434.333 359.22 450.737 359.22 467.009 359.973C450.726 360.726 434.333 360.726 418.061 359.973Z" fill="#C7C7C7" fill-opacity="0.87"/>
<path d="M418.061 365.323C459.798 364.581 506.198 364.603 547.968 365.323C506.187 366.032 459.809 366.054 418.061 365.323V365.323Z" fill="#C7C7C7" fill-opacity="0.87"/>
<path d="M406.265 419.953C400.527 420.097 389.395 420.318 383.657 420.385C383.535 413.739 383.569 404.457 383.513 397.755V397.201H384.067C390.791 397.268 400.062 397.201 406.697 397.345C406.619 403.083 406.42 414.215 406.265 419.953ZM406.265 419.953C406.121 414.414 405.921 403.338 405.844 397.8L406.265 398.231C399.851 398.309 390.58 398.32 384.111 398.353L384.665 397.8C384.665 404.346 384.61 413.55 384.532 419.953L384.111 419.532C389.65 419.598 400.782 419.82 406.265 419.953Z" fill="#C7C7C7" fill-opacity="0.87"/>
<path d="M418.061 401.566C434.333 400.801 450.737 400.801 467.009 401.566C450.726 402.319 434.333 402.319 418.061 401.566Z" fill="#C7C7C7" fill-opacity="0.87"/>
<path d="M418.061 406.904C459.798 406.173 506.198 406.184 547.968 406.904C506.187 407.624 459.809 407.647 418.061 406.904V406.904Z" fill="#C7C7C7" fill-opacity="0.87"/>
<path d="M406.265 461.545C400.527 461.689 389.395 461.9 383.657 461.977C383.535 455.331 383.569 446.038 383.513 439.348V438.794H384.067C390.791 438.861 400.062 438.794 406.697 438.927C406.619 444.676 406.42 455.797 406.265 461.545ZM406.265 461.545C406.121 456.007 405.921 444.875 405.844 439.392L406.265 439.813C399.851 439.891 390.58 439.913 384.111 439.946L384.665 439.392C384.665 445.938 384.61 455.132 384.532 461.545L384.111 461.125C389.65 461.191 400.782 461.413 406.265 461.545Z" fill="#C7C7C7" fill-opacity="0.87"/>
<path d="M418.061 443.158C434.333 442.405 450.737 442.405 467.009 443.158C450.726 443.911 434.333 443.911 418.061 443.158Z" fill="#C7C7C7" fill-opacity="0.87"/>
<path d="M418.061 448.497C459.798 447.755 506.198 447.777 547.968 448.497C506.187 449.206 459.809 449.228 418.061 448.497V448.497Z" fill="#C7C7C7" fill-opacity="0.87"/>
<path d="M445.808 237.886H442.829V247.855C442.829 248.128 442.72 248.391 442.527 248.584C442.334 248.777 442.072 248.885 441.798 248.885C441.525 248.885 441.263 248.777 441.07 248.584C440.877 248.391 440.768 248.128 440.768 247.855V237.886H437.8C437.525 237.883 437.263 237.772 437.071 237.577C436.878 237.383 436.77 237.119 436.77 236.845C436.768 236.709 436.794 236.575 436.845 236.449C436.896 236.324 436.972 236.209 437.068 236.113C437.164 236.017 437.278 235.942 437.404 235.89C437.529 235.839 437.664 235.814 437.8 235.815H445.808C445.944 235.814 446.078 235.839 446.204 235.89C446.33 235.942 446.444 236.017 446.54 236.113C446.636 236.209 446.712 236.324 446.763 236.449C446.814 236.575 446.84 236.709 446.838 236.845C446.823 237.114 446.709 237.369 446.52 237.56C446.33 237.752 446.077 237.868 445.808 237.886Z" fill="#634932"/>
<path d="M454.835 245.839H450.283L449.364 248.276C449.286 248.47 449.151 248.637 448.977 248.753C448.803 248.87 448.598 248.931 448.389 248.93C448.269 248.929 448.149 248.911 448.034 248.874C447.782 248.766 447.578 248.568 447.464 248.318C447.349 248.068 447.331 247.785 447.414 247.523L451.557 236.446C451.643 236.254 451.783 236.09 451.96 235.974C452.136 235.858 452.342 235.795 452.554 235.793C452.765 235.795 452.971 235.858 453.147 235.974C453.324 236.09 453.464 236.254 453.551 236.446L457.693 247.523C457.776 247.785 457.758 248.068 457.643 248.318C457.529 248.568 457.325 248.766 457.073 248.874C456.958 248.911 456.839 248.929 456.718 248.93C456.51 248.932 456.306 248.871 456.134 248.754C455.962 248.637 455.829 248.471 455.755 248.276L454.835 245.839ZM454.071 243.779L452.554 239.747L451.036 243.779H454.071Z" fill="#634932"/>
<path d="M459.521 245.673C459.602 245.574 459.702 245.492 459.815 245.432C459.929 245.372 460.052 245.334 460.18 245.322C460.308 245.31 460.436 245.322 460.559 245.36C460.682 245.397 460.795 245.459 460.894 245.54C461.899 246.396 463.155 246.902 464.472 246.98C465.309 247 466.13 246.756 466.82 246.282C467.052 246.14 467.245 245.944 467.384 245.71C467.523 245.477 467.603 245.213 467.618 244.942C467.623 244.727 467.565 244.516 467.452 244.333C467.307 244.109 467.114 243.919 466.887 243.779C466.094 243.334 465.227 243.033 464.328 242.893V242.893C463.495 242.755 462.683 242.509 461.913 242.162C461.203 241.85 460.597 241.343 460.163 240.7C459.881 240.236 459.735 239.703 459.742 239.16C459.761 238.619 459.905 238.09 460.165 237.615C460.425 237.139 460.792 236.732 461.238 236.424C462.192 235.768 463.325 235.424 464.483 235.438C465.965 235.514 467.39 236.035 468.57 236.934C468.779 237.077 468.923 237.297 468.97 237.546C469.018 237.795 468.966 238.052 468.825 238.263C468.759 238.371 468.671 238.465 468.567 238.538C468.464 238.612 468.346 238.664 468.222 238.691C468.098 238.718 467.97 238.719 467.845 238.695C467.72 238.671 467.601 238.622 467.496 238.551C466.639 237.849 465.588 237.427 464.483 237.344C463.732 237.333 462.996 237.557 462.379 237.986C462.174 238.11 462.003 238.281 461.879 238.486C461.756 238.69 461.684 238.922 461.67 239.16C461.657 239.347 461.703 239.533 461.803 239.692C461.934 239.886 462.104 240.052 462.301 240.179C463.025 240.598 463.822 240.876 464.649 240.999V240.999C465.542 241.155 466.413 241.419 467.241 241.785C467.999 242.121 468.648 242.662 469.113 243.347C469.409 243.827 469.566 244.379 469.567 244.942C469.549 245.52 469.392 246.085 469.111 246.59C468.83 247.094 468.432 247.525 467.95 247.844C466.941 248.572 465.727 248.96 464.483 248.952C462.722 248.873 461.036 248.215 459.687 247.08C459.583 246.999 459.496 246.898 459.432 246.783C459.367 246.668 459.326 246.542 459.311 246.411C459.295 246.28 459.306 246.148 459.342 246.021C459.378 245.894 459.439 245.776 459.521 245.673V245.673Z" fill="#634932"/>
<path d="M472.437 247.9V236.934C472.437 236.661 472.545 236.399 472.738 236.205C472.931 236.012 473.193 235.904 473.467 235.904C473.74 235.904 474.002 236.012 474.195 236.205C474.388 236.399 474.497 236.661 474.497 236.934V242.317L480.567 236.225C480.662 236.127 480.775 236.049 480.901 235.996C481.027 235.943 481.161 235.916 481.298 235.916C481.434 235.916 481.569 235.943 481.695 235.996C481.82 236.049 481.934 236.127 482.029 236.225C482.221 236.42 482.329 236.682 482.329 236.956C482.329 237.23 482.221 237.492 482.029 237.687L477.908 241.785L482.073 247.246C482.161 247.349 482.227 247.469 482.267 247.599C482.307 247.728 482.32 247.865 482.306 247.999C482.291 248.134 482.249 248.265 482.183 248.383C482.116 248.501 482.026 248.604 481.918 248.686C481.738 248.846 481.505 248.933 481.265 248.93C481.117 248.927 480.973 248.891 480.841 248.826C480.709 248.761 480.592 248.668 480.5 248.553L476.446 243.247L474.497 245.241V247.9C474.497 248.173 474.388 248.435 474.195 248.628C474.002 248.821 473.74 248.93 473.467 248.93C473.193 248.93 472.931 248.821 472.738 248.628C472.545 248.435 472.437 248.173 472.437 247.9V247.9Z" fill="#634932"/>
<path d="M485.241 245.673C485.32 245.573 485.419 245.49 485.531 245.429C485.643 245.368 485.767 245.33 485.894 245.318C486.021 245.306 486.149 245.319 486.271 245.357C486.393 245.395 486.506 245.458 486.603 245.54C487.608 246.395 488.864 246.9 490.181 246.98C491.017 247 491.839 246.756 492.529 246.282C492.763 246.142 492.959 245.946 493.1 245.713C493.241 245.479 493.322 245.215 493.338 244.942C493.343 244.726 493.281 244.513 493.16 244.333C493.017 244.111 492.828 243.922 492.607 243.779C491.81 243.332 490.94 243.032 490.037 242.893V242.893C489.204 242.755 488.392 242.509 487.622 242.162C486.914 241.852 486.31 241.345 485.883 240.7C485.593 240.239 485.443 239.704 485.451 239.16C485.469 238.619 485.614 238.09 485.874 237.615C486.134 237.139 486.501 236.732 486.946 236.424C487.9 235.768 489.034 235.424 490.192 235.438C491.674 235.512 493.099 236.033 494.279 236.934C494.494 237.081 494.641 237.307 494.689 237.562C494.736 237.818 494.681 238.082 494.534 238.296C494.387 238.511 494.161 238.658 493.905 238.706C493.65 238.753 493.386 238.698 493.171 238.551C492.315 237.849 491.263 237.427 490.159 237.344C489.407 237.333 488.671 237.557 488.054 237.986C487.851 238.112 487.681 238.284 487.558 238.488C487.435 238.692 487.362 238.922 487.345 239.16C487.338 239.346 487.384 239.531 487.478 239.692C487.614 239.886 487.787 240.052 487.988 240.179C488.708 240.598 489.501 240.876 490.325 240.999C491.214 241.156 492.08 241.42 492.906 241.785C493.663 242.121 494.312 242.662 494.778 243.347C495.078 243.825 495.236 244.378 495.232 244.942C495.213 245.52 495.057 246.085 494.776 246.59C494.494 247.094 494.096 247.525 493.615 247.844C492.606 248.573 491.392 248.962 490.148 248.952C488.387 248.868 486.703 248.211 485.351 247.08C485.25 246.996 485.167 246.892 485.107 246.775C485.046 246.659 485.01 246.531 485 246.4C484.989 246.269 485.005 246.137 485.047 246.012C485.088 245.887 485.154 245.772 485.241 245.673V245.673Z" fill="#634932"/>
<path d="M517.496 186.723H411.903V218.912H517.496V186.723Z" fill="#C7C7C7" fill-opacity="0.87"/>
<path d="M496.982 169.123H431.453L428.551 186.723H500.859L496.982 169.123ZM464.694 181.75C463.929 181.75 463.182 181.523 462.546 181.099C461.91 180.674 461.415 180.07 461.122 179.364C460.83 178.657 460.753 177.88 460.902 177.13C461.051 176.38 461.42 175.691 461.96 175.151C462.501 174.61 463.19 174.242 463.94 174.093C464.69 173.944 465.467 174.02 466.173 174.313C466.88 174.605 467.483 175.101 467.908 175.737C468.333 176.372 468.56 177.12 468.56 177.884C468.561 178.392 468.462 178.896 468.268 179.365C468.074 179.835 467.79 180.262 467.431 180.621C467.071 180.98 466.645 181.265 466.175 181.459C465.705 181.652 465.202 181.751 464.694 181.75Z" fill="#C7C7C7" fill-opacity="0.87"/>
<path d="M500.859 186.723H428.551L429.204 182.791H499.984L500.859 186.723Z" fill="#A6A6A6"/>
<path d="M129.87 625.479C281.287 624.804 451.158 624.793 602.576 625.479C451.158 626.166 281.287 626.155 129.87 625.479V625.479Z" fill="#263238" fill-opacity="0.88"/>
<path d="M354.792 625.468C352.089 626.354 274.84 625.369 271.927 623.452C270.82 622.755 270.299 611.49 270.066 597.865V597.433C270.011 594.631 269.978 591.729 269.967 588.805C269.967 588.395 269.967 587.996 269.967 587.597L273.7 547.522L325.372 548.021L320.288 587.719L320.221 589.292L319.911 597.511V598.353C319.911 598.353 349.309 611.955 352.288 614.392C355.268 616.829 357.505 624.615 354.792 625.468Z" fill="#AD6359"/>
<path d="M354.792 625.468C352.089 626.354 274.84 625.369 271.927 623.452C270.82 622.755 270.299 611.49 270.066 597.865V597.433C270.011 594.631 269.978 591.729 269.967 588.805C269.967 588.395 269.967 587.996 269.967 587.597L320.288 587.719L320.221 589.292L319.911 597.511V598.353C319.911 598.353 349.309 611.955 352.288 614.392C355.268 616.829 357.505 624.615 354.792 625.468Z" fill="#EBEBEB" fill-opacity="0.44"/>
<path d="M354.803 625.468C353.407 625.922 332.428 625.878 311.914 625.468C307.782 625.38 303.684 625.291 299.73 625.18C285.098 624.782 273.013 624.183 271.894 623.452C270.775 622.721 270.266 611.8 270.044 598.43C270.044 598.242 270.044 598.054 270.044 597.865C270.044 597.677 270.044 597.566 270.044 597.422H270.1L319.878 597.511V598.353C319.878 598.353 349.287 611.955 352.266 614.381C355.246 616.806 357.505 624.604 354.803 625.468Z" fill="#AD6359"/>
<path d="M353.96 622.467C340.945 621.979 288.398 621.248 275.494 621.758C275.383 621.758 275.383 621.835 275.494 621.846C288.387 622.611 340.934 622.954 353.96 622.677C354.237 622.677 354.237 622.478 353.96 622.467Z" fill="#263238" fill-opacity="0.88"/>
<path d="M325.45 597.721C320.343 596.702 314.063 597.411 310.097 601.044C309.942 601.188 310.097 601.399 310.319 601.355C315.232 599.837 320.293 598.849 325.416 598.408C325.507 598.413 325.596 598.381 325.664 598.319C325.731 598.258 325.772 598.172 325.776 598.081C325.781 597.99 325.749 597.901 325.687 597.834C325.626 597.766 325.541 597.726 325.45 597.721Z" fill="#263238" fill-opacity="0.88"/>
<path d="M329.116 600.003C324.01 598.984 317.729 599.682 313.775 603.326C313.62 603.47 313.775 603.692 313.985 603.636C318.902 602.118 323.967 601.13 329.094 600.69C329.185 600.693 329.273 600.66 329.34 600.597C329.406 600.535 329.445 600.449 329.448 600.358C329.451 600.267 329.418 600.178 329.356 600.112C329.293 600.045 329.207 600.006 329.116 600.003V600.003Z" fill="#263238" fill-opacity="0.88"/>
<path d="M332.793 602.274C327.676 601.255 321.406 601.964 317.441 605.597C317.286 605.741 317.441 605.951 317.651 605.907C322.567 604.384 327.632 603.396 332.76 602.961C332.851 602.965 332.94 602.933 333.007 602.872C333.075 602.811 333.115 602.725 333.12 602.634C333.124 602.543 333.092 602.454 333.031 602.386C332.97 602.319 332.884 602.278 332.793 602.274V602.274Z" fill="#263238" fill-opacity="0.88"/>
<path d="M311.947 625.468C307.816 625.38 303.717 625.291 299.763 625.18C285.131 624.782 273.046 624.183 271.927 623.452C270.809 622.721 270.299 611.8 270.078 598.43C270.078 598.242 270.078 598.054 270.078 597.865C270.078 597.677 270.078 597.566 270.078 597.422H270.133C276.945 602.207 300.981 618.169 311.947 625.468Z" fill="#263238" fill-opacity="0.88"/>
<path d="M322.88 597.688H267.253C267.253 597.688 278.418 467.748 277.986 465.478C277.432 462.576 274.142 449.428 269.767 432.248C268.394 426.865 266.909 421.105 265.337 415.123C261.183 398.963 256.608 381.295 252.621 365.921C246.628 342.893 241.965 331.03 241.965 331.03H289.107C289.107 331.03 327.875 441.995 329.415 464.924C330.777 484.928 322.88 597.688 322.88 597.688Z" fill="#263238" fill-opacity="0.88"/>
<path d="M320.41 588.196C311.914 588.018 314.362 587.952 305.866 587.863C301.701 587.863 274.375 587.597 270.487 588.24C270.41 588.24 270.41 588.395 270.487 588.417C274.375 589.06 301.701 588.816 305.866 588.771C314.362 588.683 311.914 588.616 320.41 588.439C320.442 588.439 320.473 588.426 320.496 588.404C320.519 588.381 320.532 588.35 320.532 588.317C320.532 588.285 320.519 588.254 320.496 588.231C320.473 588.208 320.442 588.196 320.41 588.196Z" fill="#37474F"/>
<path d="M288.454 457.558C286.626 449.516 283.901 441.641 281.52 433.743C276.698 417.704 271.842 401.676 266.954 385.66C264.517 377.651 253.208 347.678 252.089 343.69C251.635 342.073 251.391 342.959 251.978 345.019C253.152 349.173 272.47 408.588 277.366 424.871C279.818 433.038 282.273 441.198 284.732 449.35C285.973 453.233 286.98 457.187 287.745 461.191C288.4 465.382 288.563 469.634 288.232 473.863C287.7 482.369 286.715 490.876 285.939 499.339L283.58 524.815C282.014 541.755 280.464 558.691 278.928 575.624C278.739 577.772 278.551 579.91 278.385 582.059C278.385 582.779 279.415 582.724 279.493 582.059C281.32 565.311 282.727 548.508 284.289 531.738C285.851 514.968 287.412 498.364 288.963 481.672C289.362 477.485 289.805 473.287 289.805 469.078C289.784 465.199 289.331 461.336 288.454 457.558V457.558Z" fill="#37474F"/>
<path d="M283.801 331.03C280.478 356.351 274.309 397.811 269.767 432.259C259.123 390.522 242.009 331.041 242.009 331.041L283.801 331.03Z" fill="#37474F"/>
<path d="M297.271 626.233C294.557 627.119 217.309 626.41 214.395 624.516C213.288 623.818 212.712 612.553 212.435 598.929V598.497C212.368 595.694 212.324 592.803 212.302 589.868C212.302 589.469 212.302 589.059 212.302 588.661C212.114 568.989 213.531 548.586 213.531 548.586L264.019 548.907L262.612 588.605V590.178L262.324 598.397V599.239C262.324 599.239 291.766 612.741 294.767 615.156C297.769 617.571 299.973 625.358 297.271 626.233Z" fill="#AD6359"/>
<path d="M297.271 626.233C294.557 627.119 217.308 626.41 214.395 624.516C213.288 623.818 212.712 612.553 212.435 598.929V598.497C212.368 595.694 212.324 592.803 212.302 589.868C212.302 589.469 212.302 589.059 212.302 588.661L262.612 588.605V590.178L262.324 598.397V599.239C262.324 599.239 291.765 612.741 294.767 615.156C297.769 617.571 299.973 625.358 297.271 626.233Z" fill="#EBEBEB" fill-opacity="0.44"/>
<path d="M297.27 626.233C294.557 627.119 217.308 626.41 214.395 624.516C213.287 623.818 212.711 612.553 212.435 598.929V598.497L262.279 598.397V599.239C262.279 599.239 291.721 612.741 294.723 615.156C297.725 617.571 299.973 625.358 297.27 626.233Z" fill="#AD6359"/>
<path d="M296.44 623.231C283.425 622.788 230.877 622.256 217.973 622.81C217.862 622.81 217.862 622.887 217.973 622.887C230.866 623.607 283.414 623.718 296.44 623.441C296.695 623.43 296.695 623.242 296.44 623.231Z" fill="#634932"/>
<path d="M267.818 598.585C262.701 597.589 256.431 598.32 252.477 601.908C252.333 602.052 252.532 602.263 252.698 602.219C257.608 600.675 262.67 599.669 267.796 599.217C267.863 599.197 267.923 599.157 267.966 599.102C268.009 599.047 268.033 598.979 268.036 598.909C268.038 598.839 268.019 598.77 267.979 598.712C267.94 598.654 267.884 598.61 267.818 598.585V598.585Z" fill="#263238" fill-opacity="0.88"/>
<path d="M271.495 600.856C266.378 599.848 260.108 600.579 256.154 604.179C256.01 604.323 256.209 604.534 256.376 604.489C261.289 602.976 266.35 601.992 271.473 601.554C271.566 601.557 271.655 601.523 271.723 601.46C271.79 601.396 271.83 601.309 271.833 601.216C271.836 601.124 271.802 601.034 271.739 600.966C271.675 600.899 271.588 600.859 271.495 600.856Z" fill="#263238" fill-opacity="0.88"/>
<path d="M275.173 603.116C270.055 602.108 263.786 602.839 259.843 606.439C259.688 606.572 259.843 606.793 260.053 606.738C264.966 605.213 270.027 604.218 275.151 603.769C275.193 603.771 275.236 603.764 275.276 603.749C275.317 603.734 275.354 603.711 275.385 603.681C275.416 603.652 275.442 603.617 275.459 603.578C275.477 603.539 275.487 603.496 275.488 603.454C275.49 603.411 275.483 603.368 275.468 603.328C275.453 603.287 275.43 603.251 275.401 603.219C275.371 603.188 275.336 603.163 275.297 603.145C275.258 603.127 275.216 603.117 275.173 603.116V603.116Z" fill="#263238" fill-opacity="0.88"/>
<path d="M288.83 331.03C287.861 342.671 285.773 354.192 282.594 365.434C282.184 366.907 281.73 368.358 281.243 369.753C281.243 369.753 277.078 371.703 268.859 376.743C268.859 376.743 268.327 394.897 267.751 415.134C267.153 437.764 266.533 463.008 266.644 468.358C267.12 488.384 264.163 598.508 264.163 598.508L208.547 598.752C208.547 598.752 218.516 475.801 218.516 468.424C218.405 456.627 221.196 404.512 223.345 366.519C224.663 343.103 225.749 331.074 225.749 331.074L288.83 331.03Z" fill="#263238" fill-opacity="0.88"/>
<path d="M262.313 588.616C253.817 588.484 256.254 588.395 247.758 588.362C243.604 588.362 216.278 588.218 212.391 588.882C212.302 588.882 212.313 589.037 212.391 589.048C216.278 589.68 243.604 589.314 247.769 589.259C256.265 589.137 253.817 589.082 262.313 588.871C262.34 588.863 262.364 588.846 262.381 588.823C262.399 588.8 262.408 588.772 262.408 588.744C262.408 588.715 262.399 588.687 262.381 588.664C262.364 588.641 262.34 588.625 262.313 588.616V588.616Z" fill="#37474F"/>
<path d="M230.467 339.105C229.448 370.119 228.374 395.141 226.989 426.167C225.605 457.192 223.733 488.395 221.141 519.443C219.69 536.789 218.328 561.191 216.456 578.503C216.456 578.614 216.622 578.659 216.633 578.503C220.676 547.722 222.924 509.662 224.918 478.681C226.912 447.7 228.241 416.652 229.293 385.637C229.88 368.092 230.335 356.561 230.855 339.016C230.866 338.828 230.479 338.85 230.467 339.105Z" fill="#37474F"/>
<path d="M232.605 359.264C233.979 358.909 235.441 358.799 236.837 358.577C237.944 358.4 239.052 358.201 240.16 357.957C242.299 357.571 244.327 356.717 246.097 355.454C248.866 353.238 252.056 342.306 252.444 341.608C253.108 340.4 253.308 341.453 253.308 341.608C253.308 342.882 250.394 352.496 249.265 354.291C247.204 357.613 243.505 358.898 239.816 359.364C238.764 359.497 237.701 359.574 236.637 359.629C235.296 359.751 233.947 359.751 232.605 359.629C232.565 359.619 232.528 359.596 232.502 359.563C232.476 359.53 232.462 359.489 232.462 359.447C232.462 359.405 232.476 359.364 232.502 359.331C232.528 359.298 232.565 359.274 232.605 359.264Z" fill="#37474F"/>
<path d="M281.065 370.053C275.652 372.018 270.419 374.449 265.425 377.319C265.388 377.341 265.36 377.376 265.347 377.418C265.334 377.459 265.337 377.504 265.354 377.543C265.372 377.583 265.404 377.615 265.443 377.633C265.483 377.65 265.528 377.653 265.569 377.64C270.842 375.425 276.225 373.209 281.376 370.651C281.438 370.601 281.481 370.532 281.497 370.454C281.514 370.376 281.503 370.295 281.466 370.224C281.43 370.154 281.37 370.098 281.297 370.067C281.223 370.035 281.142 370.03 281.065 370.053V370.053Z" fill="#37474F"/>
<path d="M282.649 333.876C282.649 333.699 282.317 333.655 282.317 333.876C282.319 339.762 282.024 345.644 281.431 351.499C281.187 354.224 279.005 369.222 274.286 368.114C273.5 367.937 273.101 367.15 272.979 365.965C272.995 364.41 273.203 362.862 273.6 361.357C274.12 358.212 274.541 355.055 274.818 351.887C275.361 345.97 275.294 340.012 274.619 334.109C274.61 334.076 274.59 334.047 274.563 334.027C274.536 334.006 274.503 333.995 274.469 333.995C274.435 333.995 274.402 334.006 274.375 334.027C274.348 334.047 274.329 334.076 274.32 334.109C274.461 342.312 273.979 350.514 272.88 358.644C272.293 362.543 270.321 368.424 274.408 369.034C278.495 369.643 281.265 359.785 281.774 357.093C283.07 349.425 283.364 341.62 282.649 333.876Z" fill="#37474F"/>
<path d="M274.42 368.535C273.978 369.545 273.607 370.585 273.312 371.648C273.012 372.467 272.862 373.334 272.869 374.206C272.869 374.372 273.113 374.384 273.201 374.273C273.695 373.503 274.069 372.663 274.309 371.781C274.663 370.817 275.04 369.864 275.417 368.89C275.464 368.757 275.456 368.612 275.396 368.485C275.336 368.358 275.227 368.261 275.095 368.214C274.963 368.167 274.818 368.174 274.691 368.234C274.564 368.295 274.467 368.403 274.42 368.535Z" fill="#37474F"/>
<path d="M279.559 270.917C277.931 295.706 279.072 321.039 282.251 325.624C287.18 332.747 319.535 347.977 330.423 350.757C333.99 351.665 342.064 327.961 339.683 324.827C337.302 321.692 302.022 307.935 300.261 306.307C299.32 305.432 294.202 285.051 289.883 271.227C285.873 258.378 280.058 263.385 279.559 270.917Z" fill="#AD6359"/>
<path d="M318.161 347.567L328.773 317.727C328.773 317.727 304.072 306.65 301.147 304.989C299.907 304.302 293.449 279.114 290.071 268.192C287.856 261.014 281.066 257.448 278.507 271.737C277.012 280.099 275.749 320.562 281.143 327.275C285.452 332.625 318.161 347.567 318.161 347.567Z" fill="#455A64"/>
<path d="M313.265 343.602C313.686 341.386 316.942 332.47 317.784 330.31C318.626 328.15 322.215 319.388 323.134 317.129C323.134 317.007 323.378 317.04 323.323 317.129C322.503 319.344 319.534 328.405 318.715 330.609C317.895 332.813 314.55 341.685 313.376 343.646C313.373 343.653 313.369 343.66 313.363 343.665C313.358 343.671 313.351 343.676 313.344 343.679C313.337 343.682 313.329 343.683 313.321 343.683C313.313 343.684 313.306 343.682 313.298 343.679C313.291 343.676 313.284 343.672 313.279 343.666C313.273 343.661 313.269 343.654 313.266 343.647C313.262 343.64 313.261 343.632 313.261 343.625C313.261 343.617 313.262 343.609 313.265 343.602Z" fill="#263238" fill-opacity="0.88"/>
<path opacity="0.1" d="M307.771 342.649C297.802 337.797 283.868 330.642 281.187 327.286C275.793 320.562 277.045 280.099 278.551 271.737C279.836 264.515 282.217 261.867 284.532 261.923L307.771 342.649Z" fill="#020100"/>
<path d="M223.578 330.852C223.7 331.052 291.267 339.293 292.009 338.728C292.286 338.517 293.959 278.128 286.87 262.089C283.946 255.443 272.083 251.965 265.459 258.987C233.082 293.258 223.423 330.587 223.578 330.852Z" fill="#EBEBEB" fill-opacity="0.44"/>
<path d="M233.683 356.462L243.94 385.379L384.694 335.453L374.437 306.536L233.683 356.462Z" fill="#FFC727"/>
<path opacity="0.2" d="M233.683 356.462L243.94 385.379L384.694 335.453L374.437 306.536L233.683 356.462Z" fill="#020100"/>
<g opacity="0.1">
<path d="M372.326 313.717C330.434 328.936 283.314 345.651 241.189 360.239C283.081 345.019 330.201 328.305 372.326 313.717Z" fill="black"/>
<path d="M374.364 319.455C332.472 334.663 285.363 351.377 243.272 365.954C285.164 350.735 332.284 334.031 374.408 319.432L374.364 319.455Z" fill="black"/>
<path d="M376.391 325.181C334.499 340.4 287.379 357.115 245.255 371.703C287.147 356.484 334.278 339.769 376.391 325.181Z" fill="black"/>
<path d="M378.407 330.919C336.515 346.138 289.395 362.853 247.271 377.441C289.163 362.221 336.283 345.518 378.407 330.919Z" fill="black"/>
</g>
<path d="M232.361 389.869C232.361 389.869 215.115 398.165 209.3 381.772C203.485 365.378 222.104 360.948 222.104 360.948L232.361 389.869Z" fill="#FF9ABB"/>
<path d="M221.317 358.132L233.292 391.893L241.487 388.986L229.512 355.225L221.317 358.132Z" fill="#A6A6A6"/>
<path d="M230.358 354.912L242.333 388.673L250.528 385.766L238.553 352.005L230.358 354.912Z" fill="#A6A6A6"/>
<path d="M374.397 306.506L399.064 310.006L407.206 311.114L401.667 317.195L384.731 335.46L379.492 334.02C379.492 334.02 382.627 329.756 382.671 329.667L377.432 328.227C377.432 328.227 380.578 323.963 380.622 323.874L375.405 322.501C375.405 322.501 378.528 318.17 378.562 318.07L373.356 316.696C373.356 316.696 376.468 312.366 376.513 312.266L371.295 310.892C371.295 310.892 374.364 306.595 374.397 306.506Z" fill="#FFC727"/>
<path opacity="0.8" d="M374.397 306.506L399.064 310.006L407.206 311.114L401.667 317.195L384.731 335.46L379.492 334.02C379.492 334.02 382.627 329.756 382.671 329.667L377.432 328.227C377.432 328.227 380.578 323.963 380.622 323.874L375.405 322.501C375.405 322.501 378.528 318.17 378.562 318.07L373.356 316.696C373.356 316.696 376.468 312.366 376.513 312.266L371.295 310.892C371.295 310.892 374.364 306.595 374.397 306.506Z" fill="white"/>
<path d="M399.064 310.006L407.206 311.136L401.612 317.195L399.064 310.006Z" fill="#263238" fill-opacity="0.88"/>
<path d="M259.577 262.986C244.324 276.555 223.622 301.544 224.552 307.957C226.878 324.007 238.786 344.222 245.022 351.699C248.655 356.063 272.625 337.997 269.579 333.976C264.794 327.607 253.396 307.525 252.1 304.911C251.402 303.515 261.98 284.375 267.74 271.26C274.009 256.993 267.02 256.384 259.577 262.986Z" fill="#AD6359"/>
<path d="M277.609 346.57C276.745 344.809 277.665 344.355 280.788 345.85C283.912 347.345 295.033 355.996 297.724 351.865C300.416 347.733 284.554 335.781 279.138 333.666C273.721 331.55 264.317 330.033 264.317 330.033C266.909 332.968 272.581 340.722 277.609 346.57Z" fill="#AD6359"/>
<path d="M244.856 351.577C252.532 359.596 261.604 370.064 273.655 373.464C274.986 373.882 276.419 373.835 277.72 373.331C283.104 374.96 285.474 372.899 285.474 372.899C290.946 372.899 293.095 370.451 293.095 370.451C293.095 370.451 299.419 372.279 301.17 368.635C303.141 364.559 293.859 362.775 289.351 358.666C279.027 349.273 266.976 333.023 264.273 330.022L244.856 351.577Z" fill="#AD6359"/>
<path d="M271.628 356.428C274.618 359.228 277.797 361.818 281.143 364.182C284.955 366.525 288.935 368.583 293.05 370.341C293.067 370.342 293.083 370.348 293.098 370.357C293.112 370.366 293.124 370.379 293.133 370.393C293.142 370.408 293.147 370.424 293.149 370.441C293.15 370.458 293.148 370.475 293.142 370.491C293.135 370.507 293.126 370.521 293.113 370.532C293.101 370.544 293.086 370.552 293.069 370.557C293.053 370.562 293.036 370.563 293.019 370.56C293.002 370.557 292.986 370.55 292.973 370.54C284.677 367.946 277.252 363.127 271.506 356.606C271.373 356.417 271.473 356.295 271.628 356.428Z" fill="#263238" fill-opacity="0.88"/>
<path d="M265.06 361.845C268.217 364.304 273.788 368.602 285.541 372.777C285.541 372.777 285.541 372.866 285.541 372.855C277.805 371.214 270.679 367.451 264.96 361.989C264.75 361.823 264.85 361.679 265.06 361.845Z" fill="#263238" fill-opacity="0.88"/>
<path d="M261.571 364.813C267.109 368.801 271.086 370.617 277.72 373.298C277.72 373.298 277.72 373.387 277.72 373.364C269.867 371.149 267.275 369.399 261.438 364.979C261.216 364.835 261.36 364.658 261.571 364.813Z" fill="#263238" fill-opacity="0.88"/>
<path d="M238.531 350.801L269.081 329.878L253.573 304.989C258.901 294.477 268.826 273.697 271.418 265.877C274.464 256.706 269.202 255.587 261.382 261.646C243.66 275.491 220.764 302.197 219.712 307.736C218.206 315.655 238.531 350.801 238.531 350.801Z" fill="#455A64"/>
<path d="M238.897 343.225C240.536 341.586 248.345 336.036 250.306 334.674C252.266 333.311 260.275 328.105 262.346 326.721C262.457 326.643 262.59 326.776 262.479 326.854C260.507 328.26 252.853 334.109 250.904 335.482C248.954 336.856 241.057 342.361 238.963 343.325C238.897 343.369 238.841 343.28 238.897 343.225Z" fill="#263238" fill-opacity="0.88"/>
<path d="M265.846 279.712C262.789 287.266 258.613 295.042 255.18 302.441C254.936 302.973 254.172 304.656 254.072 304.922C257.506 311.014 261.825 317.572 265.425 323.642L269.125 329.789L268.283 330.321L269.07 329.7V329.778L265.004 323.852C261.15 318.026 256.874 311.668 253.363 305.697C253.219 305.376 253.02 305.21 253.042 304.767C253.319 303.781 253.69 302.824 254.149 301.909C257.583 294.709 262.08 286.657 265.813 279.634L265.846 279.712Z" fill="#263238" fill-opacity="0.88"/>
<path d="M266.068 281.185C265.465 282.364 264.601 283.391 263.542 284.187C264.323 283.136 265.167 282.134 266.068 281.185V281.185Z" fill="#263238" fill-opacity="0.88"/>
<path d="M329.836 340.711C331.686 337.388 334.554 341.464 334.554 341.464C334.554 341.464 331.852 334.585 335.086 331.894C338.32 329.202 341.499 334.375 341.732 334.729C341.588 334.364 339.273 327.972 342.84 325.602C346.406 323.232 348.932 328.792 349.087 329.158C349.087 328.781 348.843 323.619 351.934 322.512C357.25 320.474 359.122 335.028 362.733 337.908L371.074 335.815C369.405 337.264 368.19 339.164 367.574 341.287C366.599 344.333 365.968 346.36 364.561 347.777C363.948 348.435 363.14 348.878 362.256 349.039C361.372 349.201 360.46 349.073 359.654 348.675C359.654 348.675 360.463 352.64 357.738 354.59C356.342 355.586 353.495 354.235 353.495 354.235C353.495 354.235 354.005 357.436 351.479 359.02C349.464 360.294 346.927 358.743 346.927 358.743C346.927 358.743 345.997 362.066 343.515 362.676C338.531 363.916 325.87 347.833 329.836 340.711Z" fill="#AD6359"/>
<path d="M364.716 337.676L370.897 335.837H371.628C379.88 335.693 386.648 343.812 381.01 345.618C376.723 346.991 370.819 342.128 366.61 344.178L364.716 337.676Z" fill="#AD6359"/>
<path d="M346.473 358.511C346.473 358.511 346.473 358.644 346.406 358.599C340.724 354.175 336.524 348.124 334.366 341.253C334.311 341.032 334.643 340.832 334.754 341.065C337.791 347.419 341.739 353.297 346.473 358.511V358.511Z" fill="#263238" fill-opacity="0.88"/>
<path d="M353.518 354.302C353.518 354.357 353.518 354.446 353.407 354.39C347.813 349.96 342.751 342.649 341.455 334.674C341.455 334.397 341.643 334.109 341.721 334.419C342.962 339.658 348.998 349.472 353.518 354.302Z" fill="#263238" fill-opacity="0.88"/>
<path d="M349.176 328.571C350.715 336.169 354.537 342.516 359.399 348.509C359.466 348.586 359.344 348.664 359.278 348.619C356.11 346.404 353.407 342.239 351.524 338.861C349.764 335.754 348.848 332.241 348.865 328.67C348.91 328.482 349.142 328.416 349.176 328.571Z" fill="#263238" fill-opacity="0.88"/>
<path d="M274.763 254.269C271.44 255.609 271.717 259.995 273.988 265.412C276.258 270.828 279.803 274.65 283.447 274.362C287.091 274.074 288.454 268.923 288.786 265.966C289.041 263.639 288.188 258.943 284.178 256.65C280.168 254.357 276.657 253.504 274.763 254.269Z" fill="#455A64"/>
<path d="M282.528 272.29C278.54 271.681 273.921 262.809 273.279 257.315C273.279 256.938 275.018 253.87 277.023 250.037C278.219 247.711 279.504 245.097 280.501 242.616L294.502 252.64C292.372 255.366 290.583 258.342 289.174 261.502C289.038 261.842 288.934 262.194 288.864 262.554C288.867 262.613 288.867 262.672 288.864 262.731C288.354 264.825 286.382 272.877 282.528 272.29Z" fill="#AD6359"/>
<path d="M288.864 262.609C288.864 262.609 288.864 262.709 288.864 262.775C288.307 262.636 287.762 262.451 287.235 262.222C278.374 258.4 280.656 246.548 281.498 243.292L284.987 245.795L294.546 252.651C292.415 255.376 290.625 258.352 289.218 261.513C289.064 261.865 288.945 262.233 288.864 262.609Z" fill="#263238" fill-opacity="0.88"/>
<path d="M283.27 225.204C280.168 230.587 279.393 247.999 282.649 252.674C287.368 259.441 297.049 262.2 303.252 256.085C309.3 250.159 309.898 227.441 306.099 222.999C300.472 216.464 287.833 217.262 283.27 225.204Z" fill="#AD6359"/>
<path d="M297.226 239.836C297.226 239.836 297.138 239.836 297.138 239.936C297.138 241.11 296.894 242.45 295.809 242.782C295.809 242.782 295.809 242.86 295.809 242.849C297.127 242.738 297.404 240.955 297.226 239.836Z" fill="#263238" fill-opacity="0.88"/>
<path d="M296.241 238.562C294.369 238.318 294.025 242.095 295.775 242.317C297.525 242.539 297.824 238.761 296.241 238.562Z" fill="#263238" fill-opacity="0.88"/>
<path d="M303.883 240.212C303.883 240.212 303.972 240.212 303.961 240.323C303.828 241.486 303.861 242.849 304.88 243.325C304.88 243.325 304.88 243.403 304.88 243.391C303.595 243.092 303.562 241.287 303.883 240.212Z" fill="#263238" fill-opacity="0.88"/>
<path d="M305.035 239.083C306.929 239.083 306.741 242.893 305.035 242.871C303.33 242.849 303.451 239.06 305.035 239.083Z" fill="#263238" fill-opacity="0.88"/>
<path d="M294.645 235.605C295.162 235.554 295.676 235.477 296.185 235.372C296.738 235.37 297.275 235.188 297.714 234.851C297.821 234.709 297.878 234.536 297.878 234.358C297.878 234.181 297.821 234.008 297.714 233.866C297.472 233.607 297.167 233.417 296.829 233.314C296.49 233.211 296.131 233.199 295.786 233.278C295.063 233.34 294.388 233.668 293.892 234.198C293.778 234.328 293.707 234.49 293.687 234.663C293.668 234.835 293.701 235.009 293.783 235.162C293.864 235.314 293.991 235.438 294.145 235.518C294.299 235.597 294.474 235.627 294.645 235.605V235.605Z" fill="#263238" fill-opacity="0.88"/>
<path d="M306.93 236.081C306.434 235.932 305.946 235.759 305.467 235.56C304.926 235.444 304.437 235.157 304.072 234.741C303.993 234.592 303.962 234.423 303.984 234.256C304.006 234.089 304.079 233.933 304.194 233.81C304.481 233.604 304.817 233.477 305.169 233.442C305.521 233.407 305.876 233.465 306.198 233.611C306.895 233.813 307.491 234.267 307.871 234.885C307.938 235.028 307.963 235.186 307.945 235.343C307.927 235.5 307.866 235.648 307.768 235.772C307.671 235.896 307.541 235.991 307.392 236.045C307.244 236.1 307.084 236.112 306.93 236.081Z" fill="#263238" fill-opacity="0.88"/>
<path d="M278.939 236.779C278.762 235.173 278.053 221.537 278.784 219.809C279.515 218.081 281.132 219.2 281.176 219.111C281.221 219.023 281.52 217.539 282.528 217.129C282.869 217.05 283.223 217.041 283.568 217.104C283.913 217.167 284.241 217.3 284.532 217.494C284.532 217.494 285.075 215.966 286.127 215.7C286.477 215.653 286.833 215.697 287.16 215.827C287.488 215.957 287.777 216.168 287.999 216.442C288.159 216.038 288.415 215.68 288.745 215.398C289.076 215.116 289.47 214.919 289.894 214.825C290.263 214.783 290.637 214.862 290.958 215.05C291.279 215.237 291.531 215.524 291.677 215.866C291.677 215.866 292.353 214.437 293.427 214.315C294.501 214.193 295.221 215.423 295.221 215.423C295.433 215.072 295.734 214.784 296.095 214.59C296.455 214.395 296.861 214.3 297.271 214.315C297.658 214.406 298.01 214.61 298.28 214.902C298.551 215.195 298.728 215.561 298.788 215.955C299.044 215.629 299.37 215.367 299.742 215.186C300.115 215.006 300.523 214.912 300.937 214.913C302.122 215.068 302.288 216.608 302.288 216.608C302.288 216.608 302.975 215.379 304.072 215.644C305.168 215.91 305.179 217.505 305.179 217.505C305.179 217.505 306.176 215.955 307.273 216.808C308.569 217.827 308.657 227.884 308.38 232.093C308.38 232.093 307.915 228.981 306.719 228.936C305.523 228.892 304.714 231.473 302.543 230.664C300.372 229.856 297.492 227.341 294.28 227.474C291.068 227.607 288.487 230.797 286.615 235.405C284.544 240.6 279.36 240.578 278.939 236.779Z" fill="#263238" fill-opacity="0.88"/>
<path d="M294.025 245.241C293.122 245.04 292.294 244.589 291.635 243.94C290.976 243.291 290.512 242.47 290.297 241.57C290.082 240.671 290.123 239.729 290.417 238.852C290.71 237.975 291.244 237.198 291.957 236.609C292.671 236.021 293.535 235.644 294.452 235.522C295.369 235.401 296.302 235.539 297.144 235.922C297.986 236.304 298.704 236.915 299.216 237.685C299.728 238.456 300.013 239.354 300.039 240.279V240.279C300.057 241.029 299.903 241.774 299.591 242.457C299.279 243.139 298.816 243.742 298.236 244.22C297.657 244.697 296.978 245.038 296.248 245.215C295.519 245.391 294.758 245.401 294.025 245.241V245.241ZM296.041 236.236C295.677 236.16 295.305 236.127 294.933 236.136C293.848 236.18 292.821 236.636 292.059 237.409C291.298 238.183 290.859 239.218 290.833 240.303C290.806 241.389 291.193 242.444 291.916 243.254C292.639 244.064 293.642 244.569 294.724 244.667C295.805 244.764 296.883 244.446 297.739 243.778C298.594 243.11 299.164 242.141 299.331 241.068C299.499 239.996 299.252 238.899 298.641 238.002C298.03 237.104 297.1 236.473 296.041 236.236V236.236Z" fill="#FFC727"/>
<path d="M305.301 246.36C303.462 245.939 302.211 243.679 302.476 241.11C302.583 239.883 303.071 238.721 303.872 237.787C304.207 237.379 304.633 237.057 305.117 236.848C305.6 236.638 306.126 236.546 306.652 236.579C307.173 236.651 307.669 236.848 308.097 237.152C308.525 237.457 308.873 237.861 309.111 238.329C309.705 239.41 309.945 240.65 309.798 241.874C309.51 244.588 307.638 246.615 305.622 246.404L305.301 246.36ZM306.83 237.277H306.586C306.164 237.253 305.742 237.332 305.357 237.505C304.971 237.679 304.633 237.942 304.371 238.274C303.658 239.1 303.227 240.132 303.141 241.22C302.886 243.569 304.038 245.651 305.689 245.795C307.339 245.939 308.89 244.2 309.145 241.852C309.27 240.767 309.061 239.669 308.546 238.706C308.377 238.36 308.137 238.054 307.841 237.808C307.545 237.561 307.2 237.381 306.83 237.277V237.277Z" fill="#FFC727"/>
<path d="M299.818 240.833L299.453 240.279C300.261 239.736 302.067 239.072 303.141 240.478L302.609 240.877C301.657 239.614 299.896 240.777 299.818 240.833Z" fill="#FFC727"/>
<path d="M277.787 239.814L277.244 239.448C277.41 239.193 278.939 236.934 280.423 236.845C281.907 236.757 290.536 238.507 290.913 238.584L290.78 239.238C288.276 238.728 281.542 237.443 280.467 237.51C279.393 237.576 278.197 239.193 277.787 239.814Z" fill="#FFC727"/>
<path d="M283.713 239.648C283.713 239.648 281.043 233.434 278.296 234.264C275.549 235.095 276.768 243.569 279.404 245.252C279.731 245.492 280.103 245.663 280.497 245.754C280.892 245.845 281.301 245.856 281.7 245.784C282.099 245.713 282.479 245.561 282.817 245.338C283.156 245.115 283.445 244.826 283.669 244.488L283.713 239.648Z" fill="#AD6359"/>
<path d="M278.717 236.69C278.717 236.69 278.651 236.69 278.717 236.757C280.578 238.008 281.254 240.08 281.597 242.217C281.523 241.989 281.4 241.779 281.236 241.603C281.073 241.427 280.872 241.288 280.65 241.198C280.427 241.107 280.188 241.066 279.947 241.078C279.707 241.089 279.473 241.153 279.26 241.265C279.193 241.265 279.26 241.387 279.26 241.387C279.64 241.345 280.023 241.423 280.357 241.61C280.69 241.796 280.957 242.082 281.121 242.428C281.39 243.005 281.594 243.611 281.73 244.233C281.796 244.444 282.14 244.41 282.118 244.233V244.178C282.682 241.564 281.431 237.521 278.717 236.69Z" fill="#263238" fill-opacity="0.88"/>
<defs>
<linearGradient id="paint0_linear_316_1248" x1="464.315" y1="0" x2="464.315" y2="899" gradientUnits="userSpaceOnUse">
<stop stop-color="#967258"/>
<stop offset="0.671875" stop-color="#C1B5AB" stop-opacity="0.354167"/>
<stop offset="1" stop-color="#D9D9D9" stop-opacity="0"/>
</linearGradient>
</defs>
</svg>
