<svg width="912" height="883" viewBox="0 0 912 883" fill="none" xmlns="http://www.w3.org/2000/svg">
<ellipse cx="456" cy="441.45" rx="456" ry="441.45" fill="url(#paint0_linear_316_1248)"/>
<path d="M185.503 535.585H150.475V547.757H185.503V535.585Z" fill="#EBEBEB" fill-opacity="0.44"/>
<path d="M165.955 550.934H130.927V563.107H165.955V550.934Z" fill="#EBEBEB" fill-opacity="0.44"/>
<path d="M266.209 307.468H231.181V319.64H266.209V307.468Z" fill="#EBEBEB" fill-opacity="0.44"/>
<path d="M246.672 322.817H211.644V334.99H246.672V322.817Z" fill="#EBEBEB" fill-opacity="0.44"/>
<path d="M227.211 307.468H192.183V319.64H227.211V307.468Z" fill="#EBEBEB" fill-opacity="0.44"/>
<path d="M588.39 550.934H553.362V563.107H588.39V550.934Z" fill="#EBEBEB" fill-opacity="0.44"/>
<path d="M568.853 167.791H533.825V179.964H568.853V167.791Z" fill="#EBEBEB" fill-opacity="0.44"/>
<path d="M588.39 183.14H553.362V195.313H588.39V183.14Z" fill="#EBEBEB" fill-opacity="0.44"/>
<path d="M165.955 167.791H130.927V179.964H165.955V167.791Z" fill="#EBEBEB" fill-opacity="0.44"/>
<path d="M285.931 248.91H127.544V255.709H285.931V248.91Z" fill="#EBEBEB" fill-opacity="0.44"/>
<path d="M150.573 282.48H144.405L141.925 255.709H150.573V282.48Z" fill="#EBEBEB" fill-opacity="0.44"/>
<path d="M262.902 282.48H269.07L271.55 255.709H262.902V282.48Z" fill="#EBEBEB" fill-opacity="0.44"/>
<path d="M141.925 255.709H150.562V264.923H142.773L141.925 255.709Z" fill="#DBDBDB"/>
<path d="M271.539 255.709L270.691 264.923H262.902V255.709H271.539Z" fill="#DBDBDB"/>
<path d="M173.298 212.566C167.043 221.04 160.516 230.885 158.928 241.513C158.928 241.676 159.167 241.73 159.2 241.513C159.92 238.611 160.847 235.765 161.974 232.995C166.086 231.907 170.121 230.939 172.286 226.849C174.451 222.759 174.212 217.178 173.787 212.598C173.766 212.414 173.428 212.403 173.298 212.566Z" fill="#EBEBEB" fill-opacity="0.44"/>
<path d="M162.028 232.973C164.788 226.509 168.503 220.495 173.048 215.133C173.048 215.133 173.124 215.133 173.048 215.133C170.184 218.831 167.667 222.786 165.531 226.947C167.609 224.847 169.882 222.965 171.84 220.725C171.84 220.725 171.938 220.725 171.905 220.79C170.025 223.299 167.811 225.539 165.324 227.447C164.65 228.709 163.964 229.971 163.268 231.222L163.79 230.961C163.6 231.066 163.404 231.161 163.203 231.244C162.876 231.842 162.55 232.44 162.213 233.039C162.159 233.224 161.974 233.104 162.028 232.973Z" fill="#A6A6A6"/>
<path d="M164.127 230.776C165.808 229.813 167.412 228.722 168.925 227.513C168.925 227.513 169.033 227.513 168.99 227.513C167.521 228.781 165.912 229.876 164.192 230.776C164.116 230.928 164.051 230.82 164.127 230.776Z" fill="#A6A6A6"/>
<path d="M158.242 241.415C158.25 241.439 158.265 241.461 158.285 241.476C158.306 241.491 158.331 241.499 158.356 241.499C158.382 241.499 158.407 241.491 158.427 241.476C158.448 241.461 158.463 241.439 158.471 241.415C158.471 237.912 158.471 234.399 158.471 230.885C159.363 229.068 161.288 228.067 162.626 226.621C163.59 225.559 164.429 224.391 165.128 223.14C166.742 220.151 167.726 216.863 168.022 213.48C168.392 209.738 166.934 197.38 165.4 197.804C164.573 198.022 161.93 204.146 161.223 206.169C160.083 209.51 159.249 212.947 158.732 216.439C157.612 224.718 157.448 233.098 158.242 241.415V241.415Z" fill="#EBEBEB" fill-opacity="0.44"/>
<path d="M158.209 226.359C158.562 221.908 159.29 217.494 160.385 213.164C161.198 208.556 162.736 204.106 164.943 199.98C164.943 199.904 165.095 199.98 165.063 200.045C163.472 203.257 162.243 206.635 161.397 210.118C161.549 209.868 161.745 209.629 161.908 209.389C162.071 209.15 162.126 209.389 162.071 209.487C161.858 209.874 161.607 210.239 161.321 210.575C160.505 213.839 159.917 217.265 159.406 220.637L159.504 220.485C159.504 220.485 159.569 220.485 159.504 220.485C159.439 220.485 159.373 220.703 159.308 220.822C159.058 222.53 158.819 224.238 158.579 225.935C161.701 223.456 164.154 220.237 165.715 216.569C165.715 216.569 165.715 216.569 165.715 216.569C164.411 220.512 161.889 223.94 158.514 226.359L158.318 227.73C158.318 227.817 158.155 227.795 158.155 227.73C158.155 227.317 158.155 226.914 158.155 226.512C158.146 226.499 158.139 226.484 158.137 226.468C158.135 226.452 158.137 226.436 158.142 226.421C158.147 226.406 158.156 226.393 158.168 226.382C158.18 226.371 158.194 226.363 158.209 226.359V226.359Z" fill="#A6A6A6"/>
<path d="M159.656 219.887C162.037 216.508 164.116 212.926 165.868 209.183C165.868 209.183 165.966 209.183 165.944 209.183C164.553 213.117 162.459 216.766 159.765 219.952C159.754 219.958 159.741 219.96 159.729 219.959C159.716 219.959 159.704 219.955 159.693 219.949C159.682 219.942 159.673 219.933 159.667 219.922C159.66 219.912 159.657 219.899 159.656 219.887Z" fill="#A6A6A6"/>
<path d="M156.523 232.44C156.481 234.764 156.208 237.078 155.708 239.348C155.708 239.587 155.784 239.838 155.816 240.099C156.528 237.593 156.941 235.011 157.046 232.408C157.069 232.372 157.081 232.331 157.081 232.288C157.081 232.246 157.069 232.204 157.046 232.168V232.168C157.142 228.676 156.873 225.183 156.241 221.747C155.153 215.307 152.792 209.128 148.299 204.342C148.263 204.31 148.22 204.287 148.173 204.275C148.127 204.263 148.078 204.261 148.031 204.271C147.983 204.28 147.939 204.3 147.901 204.33C147.862 204.359 147.831 204.397 147.81 204.44C145.993 209.052 146.624 214.546 148.169 219.136C149.006 221.626 150.204 223.979 151.726 226.12C153.314 228.252 155.272 230.08 156.523 232.44Z" fill="#EBEBEB" fill-opacity="0.44"/>
<path d="M148.876 206.463C153.32 213.453 155.938 221.446 156.491 229.71C156.491 229.851 156.262 229.884 156.241 229.71C156.143 228.981 156.023 228.252 155.903 227.534C154.04 225.917 152.401 224.059 151.03 222.008C151.03 222.008 151.03 221.932 151.095 222.008C152.554 223.801 154.12 225.505 155.784 227.11C155.479 225.304 155.12 223.531 154.696 221.78L154.359 221.388C154.282 221.301 154.413 221.171 154.489 221.258L154.587 221.377C154.005 218.982 153.278 216.625 152.411 214.317C151.231 213.121 150.197 211.788 149.333 210.347C149.333 210.347 149.333 210.281 149.333 210.347C149.942 211.252 150.599 212.123 151.302 212.957C151.585 213.284 151.9 213.599 152.194 213.915C151.216 211.413 150.052 208.988 148.713 206.659C148.626 206.452 148.811 206.365 148.876 206.463Z" fill="#A6A6A6"/>
<path d="M149.714 214.981C151.095 216.83 152.662 218.592 153.935 220.507C153.943 220.519 153.947 220.533 153.945 220.547C153.943 220.562 153.935 220.574 153.924 220.583C153.912 220.592 153.898 220.595 153.883 220.593C153.869 220.591 153.856 220.584 153.848 220.572C152.215 218.91 150.797 217.05 149.627 215.035C149.605 214.97 149.714 214.926 149.714 214.981Z" fill="#A6A6A6"/>
<path d="M154.152 220.92L154.206 220.986C154.206 220.986 154.206 221.084 154.141 221.051V220.986C154.141 220.986 154.065 220.92 154.152 220.92Z" fill="#A6A6A6"/>
<path d="M141.555 217.994C142.058 221.853 143.612 225.5 146.048 228.535C147.061 229.721 148.309 230.685 149.714 231.363C151.291 232.136 152.978 233.039 154.577 233.681C155.334 235.654 155.891 237.699 156.241 239.783C156.241 239.609 156.35 239.424 156.393 239.25C155.371 230.254 149.551 222.574 142.099 217.657C142.042 217.626 141.978 217.611 141.913 217.613C141.848 217.616 141.785 217.635 141.73 217.669C141.675 217.703 141.63 217.751 141.599 217.808C141.569 217.865 141.553 217.929 141.555 217.994V217.994Z" fill="#EBEBEB" fill-opacity="0.44"/>
<path d="M144.133 220.648C144.126 220.637 144.122 220.623 144.122 220.61C144.123 220.596 144.127 220.583 144.136 220.572C144.144 220.561 144.156 220.553 144.169 220.549C144.182 220.545 144.196 220.546 144.209 220.55C148.297 223.589 151.555 227.607 153.684 232.234C153.693 232.258 153.694 232.284 153.685 232.309C153.677 232.333 153.66 232.353 153.638 232.366C153.616 232.379 153.59 232.384 153.564 232.38C153.539 232.375 153.516 232.362 153.499 232.343C153.162 231.733 152.803 231.146 152.412 230.569C150.68 230.106 149.103 229.19 147.843 227.915C147.843 227.915 147.843 227.839 147.843 227.915C148.504 228.505 149.235 229.013 150.018 229.427C150.715 229.775 151.454 229.993 152.194 230.276C151.563 229.275 150.91 228.318 150.225 227.393C148.391 226.694 146.672 225.726 145.123 224.521C145.069 224.521 145.123 224.401 145.123 224.434C146.659 225.363 148.243 226.213 149.866 226.98C148.836 225.606 147.717 224.301 146.516 223.074C145.939 222.77 145.362 222.454 144.797 222.128C144.797 222.128 144.797 222.03 144.797 222.041C145.259 222.207 145.701 222.426 146.113 222.693C145.558 222.008 144.873 221.301 144.133 220.648Z" fill="#A6A6A6"/>
<path d="M144.275 223.749C144.375 223.809 144.47 223.878 144.557 223.955C144.454 223.912 144.355 223.857 144.264 223.792C144.264 223.792 144.275 223.716 144.275 223.749Z" fill="#A6A6A6"/>
<path d="M165.574 248.899H150.247L150.997 238.859L151.291 235.584H164.388L164.682 238.859L165.574 248.899Z" fill="#DBDBDB"/>
<path d="M164.682 238.859H150.997L151.291 235.584H164.388L164.682 238.859Z" fill="#C7C7C7" fill-opacity="0.35"/>
<path d="M165.433 232.897H150.247V236.259H165.433V232.897Z" fill="#DBDBDB"/>
<path d="M215.353 248.877V203.178H203.844V248.877H215.353Z" fill="#C7C7C7" fill-opacity="0.35"/>
<path d="M215.353 205.756V200.73H203.844V205.756H215.353Z" fill="#DBDBDB"/>
<path d="M215.353 214.045V212.185H203.844V214.045H215.353Z" fill="#DBDBDB"/>
<path d="M215.353 242.884V237.858H203.844V242.884H215.353Z" fill="#DBDBDB"/>
<path d="M223.392 248.877V195.563H215.353V248.877H223.392Z" fill="#DBDBDB"/>
<path d="M221.76 221.083V200.578H216.93V221.083H221.76Z" fill="#EBEBEB" fill-opacity="0.44"/>
<path d="M280.675 243.099L242.76 205.617L237.108 211.334L275.024 248.816L280.675 243.099Z" fill="#C7C7C7" fill-opacity="0.35"/>
<path d="M270.665 235.428L256.083 221.012L252.687 224.447L267.27 238.863L270.665 235.428Z" fill="#DBDBDB"/>
<path d="M237.044 248.888V208.389H223.381V248.888H237.044Z" fill="#A6A6A6"/>
<path d="M237.044 244.591V240.817H223.381V244.591H237.044Z" fill="#C7C7C7" fill-opacity="0.35"/>
<path d="M237.055 238.347V236.879H223.392V238.347H237.055Z" fill="#C7C7C7" fill-opacity="0.35"/>
<path d="M188.911 248.907L203.919 213.94L195.253 210.22L180.244 245.187L188.911 248.907Z" fill="#A6A6A6"/>
<path d="M190.499 245.196L191.898 241.937L183.231 238.217L181.832 241.476L190.499 245.196Z" fill="#C7C7C7" fill-opacity="0.35"/>
<path d="M199.422 224.39L200.821 221.131L192.155 217.41L190.756 220.668L199.422 224.39Z" fill="#C7C7C7" fill-opacity="0.35"/>
<path d="M197.913 227.884L198.454 226.624L189.787 222.903L189.247 224.162L197.913 227.884Z" fill="#C7C7C7" fill-opacity="0.35"/>
<path d="M449.627 452.344V614.278H547.531V452.344H449.627ZM538.633 554.513H458.514V512.36H538.633V554.513ZM538.633 502.297H458.514V460.166H538.633V502.297Z" fill="#DBDBDB"/>
<path d="M591.784 452.344H547.521V614.278H591.784V452.344Z" fill="#EBEBEB" fill-opacity="0.44"/>
<path d="M477.552 460.166H458.515V502.319H477.552V460.166Z" fill="#EBEBEB" fill-opacity="0.44"/>
<path d="M538.905 604.39H458.743V563.651H538.905V604.39ZM459.287 603.846H538.361V564.195H459.287V603.846Z" fill="#EBEBEB" fill-opacity="0.44"/>
<path d="M506.727 575.225H490.91V581.001H506.727V575.225Z" fill="#EBEBEB" fill-opacity="0.44"/>
<path d="M477.552 512.36H458.515V554.513H477.552V512.36Z" fill="#EBEBEB" fill-opacity="0.44"/>
<path d="M527.679 554.513V515.645H514.288V554.513H527.679Z" fill="#A6A6A6"/>
<path d="M527.668 548.269V539.882H514.277V548.269H527.668Z" fill="#DBDBDB"/>
<path d="M527.668 533.137V528.166H514.277V533.137H527.668Z" fill="#DBDBDB"/>
<path d="M515.724 469.793H481.871V502.319H515.724V469.793Z" fill="#EBEBEB" fill-opacity="0.44"/>
<path d="M528.592 469.793H515.723V502.319H528.592V469.793Z" fill="#C7C7C7" fill-opacity="0.35"/>
<path d="M481.871 486.056H515.724L489.29 486.894L481.871 486.056Z" fill="#C7C7C7" fill-opacity="0.35"/>
<path d="M515.724 498.392H481.871L508.305 499.23L515.724 498.392Z" fill="#C7C7C7" fill-opacity="0.35"/>
<path d="M481.871 476.962H503.312L484.253 477.647L481.871 476.962Z" fill="#C7C7C7" fill-opacity="0.35"/>
<path d="M515.723 493.606H494.282L513.341 494.291L515.723 493.606Z" fill="#C7C7C7" fill-opacity="0.35"/>
<path d="M489.997 473.35H514.179L510.143 473.753L489.997 473.35Z" fill="#C7C7C7" fill-opacity="0.35"/>
<path d="M485.167 489.548H509.349L505.313 489.95L485.167 489.548Z" fill="#C7C7C7" fill-opacity="0.35"/>
<path d="M500.037 480.062H515.724L518.53 481.161L500.037 480.062Z" fill="#EBEBEB" fill-opacity="0.44"/>
<path d="M477.552 480.062H493.238L496.045 481.161L477.552 480.062Z" fill="#EBEBEB" fill-opacity="0.44"/>
<path d="M497.687 494.682H481.99L479.194 495.781L497.687 494.682Z" fill="#EBEBEB" fill-opacity="0.44"/>
<path d="M515.723 490.973H528.32L531.127 492.061L515.723 490.973Z" fill="#C7C7C7" fill-opacity="0.35"/>
<path d="M520.118 486.056H529.887L528.592 485.164L520.118 486.056Z" fill="#C7C7C7" fill-opacity="0.35"/>
<path d="M538.622 513.056H527.668V554.513H538.622V513.056Z" fill="#EBEBEB" fill-opacity="0.44"/>
<path d="M533.151 521.236C532.699 521.236 532.257 521.102 531.881 520.851C531.506 520.6 531.213 520.243 531.04 519.826C530.867 519.409 530.822 518.949 530.91 518.506C530.998 518.063 531.216 517.656 531.535 517.337C531.855 517.017 532.262 516.799 532.705 516.711C533.148 516.623 533.607 516.668 534.025 516.841C534.442 517.014 534.799 517.307 535.05 517.683C535.301 518.058 535.435 518.5 535.435 518.952C535.435 519.558 535.194 520.139 534.766 520.567C534.338 520.996 533.757 521.236 533.151 521.236Z" fill="white"/>
<path d="M533.15 520.257C532.892 520.257 532.64 520.181 532.425 520.037C532.21 519.894 532.043 519.69 531.944 519.451C531.845 519.213 531.819 518.95 531.87 518.697C531.92 518.444 532.044 518.211 532.227 518.029C532.41 517.846 532.642 517.722 532.895 517.672C533.149 517.621 533.411 517.647 533.65 517.746C533.888 517.845 534.092 518.012 534.235 518.227C534.379 518.441 534.455 518.694 534.455 518.952C534.455 519.298 534.318 519.63 534.073 519.875C533.828 520.12 533.496 520.257 533.15 520.257V520.257Z" fill="#A6A6A6"/>
<path d="M538.633 547.975V537.891H527.679V547.975H538.633Z" fill="white"/>
<path d="M514.277 545.963H472.82V554.578H514.277V545.963Z" fill="#C7C7C7" fill-opacity="0.35"/>
<path d="M506.096 550.27C506.094 549.818 506.226 549.375 506.476 548.998C506.726 548.621 507.082 548.327 507.499 548.152C507.916 547.977 508.376 547.931 508.82 548.018C509.263 548.105 509.672 548.321 509.992 548.64C510.313 548.959 510.531 549.366 510.62 549.81C510.709 550.253 510.665 550.713 510.492 551.131C510.32 551.549 510.027 551.907 509.651 552.158C509.275 552.41 508.833 552.544 508.381 552.544C507.777 552.544 507.197 552.305 506.769 551.879C506.341 551.453 506.099 550.874 506.096 550.27V550.27Z" fill="white"/>
<path d="M507.075 550.27C507.075 550.012 507.152 549.76 507.295 549.545C507.439 549.33 507.643 549.163 507.881 549.064C508.12 548.965 508.382 548.94 508.635 548.99C508.888 549.04 509.121 549.165 509.304 549.347C509.486 549.53 509.611 549.762 509.661 550.016C509.711 550.269 509.685 550.531 509.587 550.77C509.488 551.008 509.32 551.212 509.106 551.356C508.891 551.499 508.639 551.576 508.381 551.576C508.034 551.576 507.702 551.438 507.458 551.193C507.213 550.949 507.075 550.617 507.075 550.27V550.27Z" fill="#A6A6A6"/>
<path d="M479.347 554.567H489.431V545.952H479.347V554.567Z" fill="white"/>
<path d="M590.49 537.978C580.058 552.12 569.191 568.491 566.558 586.201C566.558 586.473 566.961 586.56 567.015 586.288C568.22 581.472 569.761 576.747 571.627 572.146C578.492 570.254 585.214 568.709 588.815 561.899C592.492 554.904 592.024 545.788 591.328 538.163C591.252 537.728 590.697 537.706 590.49 537.978Z" fill="#FFC727"/>
<path d="M571.714 571.983C576.403 561.464 582.408 550.912 590.055 542.264C590.055 542.264 590.186 542.264 590.142 542.351C585.138 548.508 581.331 555.209 577.621 562.03C581.07 558.527 584.855 555.383 588.13 551.674C588.195 551.597 588.293 551.674 588.228 551.772C584.964 555.677 581.44 559.908 577.208 562.791C576.066 564.88 574.923 566.99 573.77 569.09C574.053 568.927 574.347 568.785 574.63 568.644L574.684 568.72C574.358 568.883 574.042 569.057 573.705 569.198L572.052 572.168C571.921 572.397 571.616 572.201 571.714 571.983Z" fill="#263238" fill-opacity="0.88"/>
<path d="M575.195 568.306C578.001 566.741 580.679 564.955 583.202 562.965C583.267 562.911 583.376 562.965 583.3 563.063C580.854 565.174 578.175 566.999 575.315 568.502C575.29 568.509 575.264 568.507 575.24 568.498C575.216 568.488 575.196 568.471 575.182 568.449C575.169 568.427 575.163 568.401 575.165 568.376C575.167 568.35 575.178 568.326 575.195 568.306V568.306Z" fill="#263238" fill-opacity="0.88"/>
<path d="M565.329 583.569C565.329 583.786 565.72 583.786 565.709 583.569C565.709 577.727 565.709 571.875 565.807 566.011C567.297 562.998 570.507 561.323 572.737 558.908C574.341 557.145 575.735 555.203 576.892 553.12C579.579 548.142 581.223 542.667 581.722 537.031C582.342 530.787 579.971 510.195 577.371 510.924C576.011 511.294 571.594 521.497 570.43 524.859C568.526 530.42 567.135 536.144 566.275 541.959C564.11 555.666 564.284 569.753 565.329 583.569Z" fill="#FFC727"/>
<path d="M565.263 558.407C565.579 551.021 567.243 543.569 568.799 536.411C570.474 528.699 572.432 521.443 576.413 514.568C576.428 514.542 576.452 514.523 576.481 514.515C576.509 514.506 576.54 514.51 576.566 514.524C576.592 514.539 576.611 514.563 576.619 514.592C576.627 514.62 576.624 514.651 576.609 514.677C573.966 520.027 571.92 525.653 570.507 531.451C570.768 531.038 571.094 530.646 571.366 530.243C571.475 530.091 571.736 530.243 571.627 530.396C571.274 531.02 570.859 531.607 570.387 532.147C570.378 532.151 570.369 532.153 570.36 532.153C570.35 532.153 570.341 532.151 570.332 532.147C568.973 537.662 567.983 543.297 567.145 548.921C567.213 548.854 567.274 548.781 567.33 548.704C567.33 548.704 567.45 548.704 567.417 548.769C567.384 548.834 567.2 549.15 567.091 549.335C566.667 552.185 566.275 555.035 565.872 557.863C570.963 553.512 575.304 548.399 577.751 542.09C577.751 542.09 577.806 542.09 577.751 542.09C575.358 548.617 571.573 554.448 565.785 558.407C565.677 559.169 565.568 559.93 565.47 560.692C565.47 560.844 565.187 560.8 565.187 560.692C565.187 560.028 565.187 559.354 565.252 558.679C565.23 558.663 565.213 558.643 565.201 558.618C565.189 558.594 565.184 558.567 565.185 558.54C565.186 558.513 565.194 558.487 565.207 558.464C565.221 558.441 565.24 558.421 565.263 558.407V558.407Z" fill="#263238" fill-opacity="0.88"/>
<path d="M567.678 547.714C571.653 542.086 575.118 536.116 578.034 529.874C578.034 529.808 578.197 529.874 578.165 529.928C575.841 536.477 572.355 542.554 567.874 547.866C567.787 547.964 567.602 547.834 567.678 547.714Z" fill="#263238" fill-opacity="0.88"/>
<path d="M572.878 528.449C574.488 525.598 576.141 522.824 577.697 519.931C577.697 519.844 577.849 519.931 577.817 519.996C576.577 523.026 575.005 525.908 573.128 528.59C572.987 528.775 572.747 528.612 572.878 528.449Z" fill="#263238" fill-opacity="0.88"/>
<path d="M561.38 566.696C561.304 570.565 560.849 574.416 560.02 578.195C560.085 578.608 560.14 579.022 560.205 579.457C561.392 575.281 562.082 570.98 562.261 566.642C562.295 566.583 562.313 566.515 562.313 566.446C562.313 566.378 562.295 566.31 562.261 566.25V566.25C562.426 560.438 561.996 554.624 560.977 548.9C559.171 538.174 555.223 527.894 547.749 519.855C547.687 519.802 547.614 519.764 547.535 519.743C547.456 519.723 547.373 519.721 547.293 519.738C547.213 519.755 547.138 519.79 547.074 519.84C547.01 519.891 546.958 519.955 546.923 520.029C543.898 527.698 544.954 536.847 547.521 544.505C548.921 548.649 550.918 552.566 553.45 556.134C556.028 559.713 559.302 562.759 561.38 566.696Z" fill="#FFC727"/>
<path d="M548.641 523.423C555.723 534.921 560.607 548.562 561.26 562.138C561.26 562.378 560.868 562.443 560.836 562.204C560.662 560.975 560.477 559.767 560.281 558.56C557.199 555.839 554.495 552.718 552.242 549.28C552.242 549.226 552.296 549.15 552.34 549.204C554.774 552.187 557.382 555.024 560.15 557.7C559.639 554.698 559.063 551.75 558.334 548.834C558.138 548.617 557.953 548.388 557.768 548.171C557.583 547.953 557.855 547.823 557.975 547.964L558.149 548.149C557.15 544.159 555.915 540.233 554.45 536.39C552.644 534.214 550.621 532.376 549.316 529.787L549.403 529.732C550.49 531.212 551.48 532.702 552.666 534.083C553.145 534.627 553.678 535.171 554.167 535.672C552.535 531.506 550.597 527.466 548.369 523.586C548.358 523.551 548.359 523.513 548.373 523.479C548.386 523.445 548.41 523.416 548.441 523.397C548.472 523.379 548.509 523.371 548.546 523.375C548.582 523.38 548.615 523.397 548.641 523.423V523.423Z" fill="#263238" fill-opacity="0.88"/>
<path d="M550.034 537.608C552.318 540.687 554.929 543.635 557.061 546.822C557.116 546.909 556.985 547.007 556.909 546.931C554.193 544.152 551.83 541.05 549.871 537.695C549.86 537.597 550.034 537.477 550.034 537.608Z" fill="#263238" fill-opacity="0.88"/>
<path d="M557.42 547.529L557.518 547.627C557.583 547.692 557.518 547.801 557.42 547.736L557.322 547.638C557.246 547.573 557.355 547.464 557.42 547.529Z" fill="#263238" fill-opacity="0.88"/>
<path d="M537.535 545.527C538.375 551.952 540.964 558.021 545.019 563.074C546.688 565.055 548.751 566.667 551.078 567.806C553.711 569.101 556.452 570.602 559.171 571.668C560.463 574.954 561.422 578.361 562.032 581.839C562.119 581.545 562.207 581.241 562.304 580.936C560.553 565.968 550.86 553.164 538.459 544.94C538.362 544.88 538.25 544.849 538.136 544.85C538.021 544.85 537.91 544.883 537.813 544.945C537.717 545.006 537.64 545.093 537.59 545.196C537.541 545.299 537.522 545.414 537.535 545.527Z" fill="#FFC727"/>
<path d="M541.821 549.955C541.734 549.879 541.821 549.726 541.951 549.792C548.764 554.857 554.195 561.553 557.746 569.264C557.833 569.47 557.561 569.644 557.442 569.438C556.865 568.437 556.278 567.447 555.68 566.49C552.851 565.957 550.175 563.966 548.065 562.073C548.01 562.019 548.065 561.943 548.152 561.986C549.234 562.971 550.437 563.815 551.731 564.499C552.884 565.086 554.135 565.456 555.331 565.924C554.244 564.26 553.156 562.661 552.068 561.116C549.012 559.953 546.145 558.344 543.561 556.34C543.485 556.275 543.561 556.145 543.648 556.199C546.208 557.741 548.844 559.153 551.546 560.431C549.821 558.143 547.958 555.963 545.965 553.904C545.008 553.403 544.029 552.892 543.104 552.348C543.028 552.348 543.104 552.174 543.104 552.207C543.871 552.48 544.601 552.845 545.28 553.294C544.214 552.163 543.061 551.043 541.821 549.955Z" fill="#263238" fill-opacity="0.88"/>
<path d="M542.093 555.133C542.256 555.235 542.412 555.348 542.561 555.47C542.615 555.47 542.561 555.568 542.506 555.546C542.33 555.469 542.162 555.375 542.006 555.263C541.919 555.209 542.006 555.068 542.093 555.133Z" fill="#263238" fill-opacity="0.88"/>
<path d="M581.646 614.278H547.673L550.415 583.34L551.024 576.52H578.307L578.905 583.34L581.646 614.278Z" fill="#455A64"/>
<path d="M578.905 583.34H550.415L551.024 576.52H578.306L578.905 583.34Z" fill="#263238" fill-opacity="0.88"/>
<path d="M579.927 571.744H549.392V578.499H579.927V571.744Z" fill="#455A64"/>
<path d="M271.942 496.51C267.123 499.36 262.26 502.123 257.387 504.864C252.514 507.606 247.597 510.304 242.712 512.991C237.828 515.677 232.922 518.321 227.929 520.932L220.499 524.826C218.008 526.088 215.528 527.393 213.015 528.633C215.419 527.198 217.855 525.816 220.27 524.402L227.57 520.268C232.443 517.527 237.36 514.829 242.245 512.142C247.129 509.455 252.035 506.823 257.028 504.212C262.021 501.601 266.938 499.012 271.942 496.51Z" fill="#DBDBDB"/>
<path d="M217.159 496.51C221.815 498.686 226.427 501.035 231.018 503.363C235.608 505.691 240.177 508.095 244.768 510.456C249.358 512.816 253.873 515.275 258.398 517.744L265.186 521.454C267.427 522.727 269.69 523.967 271.92 525.261C269.581 524.173 267.286 523.009 264.958 521.878L258.05 518.408C253.459 516.08 248.891 513.676 244.311 511.315C239.731 508.955 235.206 506.496 230.68 504.027C226.155 501.557 221.651 499.077 217.159 496.51Z" fill="#DBDBDB"/>
<path d="M327.551 496.51C322.743 499.36 317.881 502.123 313.007 504.864C308.134 507.606 303.217 510.304 298.322 512.991C293.426 515.677 288.531 518.321 283.538 520.932L276.108 524.826C273.617 526.088 271.137 527.393 268.635 528.633C271.039 527.198 273.465 525.816 275.88 524.402L283.179 520.268C288.052 517.527 292.969 514.829 297.865 512.142C302.76 509.455 307.655 506.823 312.648 504.212C317.641 501.601 322.547 499.012 327.551 496.51Z" fill="#DBDBDB"/>
<path d="M272.791 496.51C277.446 498.686 282.059 501.035 286.66 503.363C291.262 505.691 295.82 508.095 300.4 510.456C304.979 512.816 309.516 515.275 314.041 517.744L320.818 521.454C323.07 522.727 325.322 523.967 327.552 525.261C325.224 524.173 322.918 523.009 320.6 521.878L313.693 518.408C309.091 516.08 304.533 513.676 299.954 511.315C295.374 508.955 290.838 506.496 286.312 504.027C281.787 501.557 277.261 499.077 272.791 496.51Z" fill="#DBDBDB"/>
<path d="M317.391 488.808L320.328 506.485L340.29 614.278H343.51L328.998 506.485L326.855 488.808H317.391Z" fill="#DBDBDB"/>
<path d="M326.855 488.808H317.391L320.328 506.485H328.998L326.855 488.808Z" fill="#C7C7C7" fill-opacity="0.35"/>
<path d="M254.7 614.278H257.92L277.881 506.485L280.829 488.808H271.365L269.222 506.485L254.7 614.278Z" fill="#DBDBDB"/>
<path d="M271.365 488.808L269.222 506.485H277.881L280.829 488.808H271.365Z" fill="#C7C7C7" fill-opacity="0.35"/>
<path d="M194.826 614.278H198.046L218.007 506.485L220.955 488.808H211.491L209.348 506.485L194.826 614.278Z" fill="#DBDBDB"/>
<path d="M209.348 506.485H218.007L220.955 488.808H211.491L209.348 506.485Z" fill="#C7C7C7" fill-opacity="0.35"/>
<path d="M199.928 497.108H346.197V481.705H291.446L273.04 363.241H205.508L199.928 497.108Z" fill="#DBDBDB"/>
<path d="M199.928 497.108H207.901L213.101 363.241H205.508L199.928 497.108Z" fill="#C7C7C7" fill-opacity="0.35"/>
<path d="M182.99 547.05H156.861V551.641H182.99V547.05Z" fill="#455A64"/>
<path d="M197.165 614.278H194.336L171.329 506.844L170.012 500.72L165.879 481.433L164.345 474.242L158.547 447.253L156.523 437.8H166.575L168.218 447.253L169.295 453.454L170.012 457.588L174.135 481.433L175.473 489.102L197.165 614.278Z" fill="#455A64"/>
<path d="M166.575 437.8L168.218 447.253H158.547L156.523 437.8H166.575Z" fill="#263238" fill-opacity="0.88"/>
<path d="M175.473 489.102L171.329 506.844L170.012 500.72L165.879 481.433L164.345 474.242L169.294 453.454L170.012 457.588L174.135 481.433L175.473 489.102Z" fill="#263238" fill-opacity="0.88"/>
<path d="M183.491 437.8L181.467 447.253L174.135 481.433L170.012 500.72L145.678 614.278H142.86L165.879 481.433L170.012 457.588L171.797 447.253L173.439 437.8H183.491Z" fill="#455A64"/>
<path d="M183.491 437.8L181.467 447.253H171.796L173.439 437.8H183.491Z" fill="#263238" fill-opacity="0.88"/>
<path d="M417.427 547.05H391.298V551.641H417.427V547.05Z" fill="#455A64"/>
<path d="M431.602 614.278H428.774L405.766 506.844L404.45 500.72L400.316 481.433L398.782 474.242L392.984 447.253L390.961 437.8H401.012L402.655 447.253L403.732 453.454L404.45 457.588L408.573 481.433L409.911 489.102L431.602 614.278Z" fill="#455A64"/>
<path d="M401.012 437.8L402.655 447.253H392.984L390.961 437.8H401.012Z" fill="#263238" fill-opacity="0.88"/>
<path d="M409.911 489.102L405.766 506.844L404.45 500.72L400.316 481.433L398.782 474.242L403.732 453.454L404.45 457.588L408.573 481.433L409.911 489.102Z" fill="#263238" fill-opacity="0.88"/>
<path d="M417.928 437.8L415.904 447.253L408.572 481.433L404.45 500.72L380.115 614.278H377.297L400.316 481.433L404.45 457.588L406.234 447.253L407.876 437.8H417.928Z" fill="#455A64"/>
<path d="M417.928 437.8L415.905 447.253H406.234L407.877 437.8H417.928Z" fill="#263238" fill-opacity="0.88"/>
<path d="M437.509 430.892H136.954V437.8H437.509V430.892Z" fill="#455A64"/>
<path d="M446.919 417.697H127.544V430.892H446.919V417.697Z" fill="#37474F"/>
<path d="M153.369 417.044H200.232V372.019H153.369V417.044Z" fill="#EBEBEB" fill-opacity="0.44"/>
<path d="M135.561 417.044H153.369V372.019H135.561V417.044Z" fill="#C7C7C7" fill-opacity="0.35"/>
<path d="M200.232 394.526H153.369L189.963 395.69L200.232 394.526Z" fill="#C7C7C7" fill-opacity="0.35"/>
<path d="M153.369 411.605H200.232L163.638 412.769L153.369 411.605Z" fill="#C7C7C7" fill-opacity="0.35"/>
<path d="M200.232 381.94H170.545L196.936 382.887L200.232 381.94Z" fill="#C7C7C7" fill-opacity="0.35"/>
<path d="M153.369 404.98H183.055L156.665 405.927L153.369 404.98Z" fill="#C7C7C7" fill-opacity="0.35"/>
<path d="M188.995 376.936H155.512L161.092 377.502L188.995 376.936Z" fill="#C7C7C7" fill-opacity="0.35"/>
<path d="M195.675 399.356H162.202L167.783 399.922L195.675 399.356Z" fill="#C7C7C7" fill-opacity="0.35"/>
<path d="M175.093 386.237H153.369L149.496 387.749L175.093 386.237Z" fill="#EBEBEB" fill-opacity="0.44"/>
<path d="M206.215 386.237H184.491L180.619 387.749L206.215 386.237Z" fill="#DBDBDB"/>
<path d="M178.345 406.471H200.058L203.942 407.983L178.345 406.471Z" fill="#DBDBDB"/>
<path d="M153.369 401.336H135.931L132.047 402.848L153.369 401.336Z" fill="#C7C7C7" fill-opacity="0.35"/>
<path d="M147.288 394.526H133.755L135.561 393.297L147.288 394.526Z" fill="#C7C7C7" fill-opacity="0.35"/>
<path d="M584.757 189.178H345.599V506.833H584.757V189.178Z" fill="#634932"/>
<g opacity="0.1">
<path d="M584.757 189.178H345.599V506.833H584.757V189.178Z" fill="#020100"/>
</g>
<path d="M578.252 189.178H339.093V506.833H578.252V189.178Z" fill="#634932"/>
<path d="M564.651 201.857L353.543 204.547L357.19 490.72L568.298 488.03L564.651 201.857Z" fill="#EBEBEB" fill-opacity="0.44"/>
<path d="M355.257 200.966L349.064 487.095L560.14 491.664L566.333 205.535L355.257 200.966Z" fill="#DBDBDB"/>
<path d="M563.24 203.2H352.115V489.396H563.24V203.2Z" fill="white"/>
<path d="M398.989 289.91C393.354 290.052 382.421 290.269 376.786 290.334C376.667 283.808 376.699 274.681 376.645 268.11V267.566H377.189C383.792 267.632 392.897 267.566 399.413 267.697C399.337 273.343 399.141 284.275 398.989 289.91V289.91ZM398.989 289.91C398.848 284.471 398.652 273.593 398.576 268.154L398.989 268.567C392.69 268.643 383.585 268.665 377.232 268.698L377.776 268.154C377.776 274.583 377.722 283.612 377.646 289.91L377.232 289.497C382.672 289.562 393.604 289.78 398.989 289.91Z" fill="#C7C7C7" fill-opacity="0.87"/>
<path d="M410.574 271.841C426.554 271.102 442.665 271.102 458.645 271.841C442.654 272.592 426.554 272.581 410.574 271.841Z" fill="#C7C7C7" fill-opacity="0.87"/>
<path d="M410.574 277.096C451.563 276.367 497.132 276.389 538.154 277.096C497.122 277.792 451.574 277.814 410.574 277.096V277.096Z" fill="#C7C7C7" fill-opacity="0.87"/>
<path d="M378.799 277.879C379.604 278.553 380.365 279.25 381.127 279.957C381.888 280.664 382.617 281.393 383.302 282.132C384.771 283.579 386.185 285.069 387.578 286.581L385.086 286.745C387.064 282.601 389.333 278.602 391.874 274.779C393.136 272.878 394.478 271.022 395.899 269.209C397.334 267.377 398.889 265.644 400.555 264.02C399.89 266.248 399.076 268.428 398.119 270.547C397.194 272.646 396.171 274.702 395.073 276.704C392.88 280.719 390.416 284.578 387.697 288.257L386.327 290.084L385.239 288.42C384.086 286.712 382.954 284.993 381.867 283.242C381.344 282.35 380.779 281.48 380.278 280.577C379.778 279.674 379.245 278.814 378.799 277.879Z" fill="#263238" fill-opacity="0.88"/>
<path d="M398.989 330.791C393.354 330.932 382.421 331.15 376.786 331.215C376.667 324.688 376.699 315.572 376.645 308.991V308.447H377.189C383.792 308.512 392.897 308.447 399.413 308.588C399.337 314.234 399.141 325.156 398.989 330.791V330.791ZM398.989 330.791C398.848 325.352 398.652 314.473 398.576 309.034L398.989 309.458C392.69 309.535 383.585 309.545 377.232 309.578L377.776 309.034C377.776 315.463 377.722 324.503 377.646 330.791L377.232 330.377C382.672 330.443 393.604 330.66 398.989 330.791Z" fill="#C7C7C7" fill-opacity="0.87"/>
<path d="M410.574 312.689C426.554 311.95 442.665 311.939 458.645 312.689C442.654 313.429 426.554 313.429 410.574 312.689Z" fill="#C7C7C7" fill-opacity="0.87"/>
<path d="M410.574 317.933C451.563 317.215 497.132 317.226 538.154 317.933C497.122 318.64 451.574 318.661 410.574 317.933V317.933Z" fill="#C7C7C7" fill-opacity="0.87"/>
<path d="M378.799 318.716C379.604 319.39 380.365 320.086 381.127 320.794C381.888 321.501 382.617 322.229 383.302 322.969C384.771 324.427 386.185 325.917 387.578 327.429L385.086 327.582C387.069 323.461 389.337 319.485 391.874 315.681C393.136 313.781 394.478 311.924 395.899 310.111C397.331 308.277 398.887 306.543 400.555 304.922C399.89 307.15 399.076 309.33 398.119 311.449C397.194 313.56 396.171 315.605 395.073 317.617C392.88 321.628 390.416 325.484 387.697 329.159L386.327 330.997L385.239 329.322C384.086 327.625 382.954 325.906 381.867 324.144C381.344 323.252 380.779 322.382 380.278 321.479C379.778 320.576 379.245 319.651 378.799 318.716Z" fill="#263238" fill-opacity="0.88"/>
<path d="M398.989 371.595C393.354 371.736 382.421 371.954 376.786 372.019C376.667 365.492 376.699 356.365 376.645 349.795V349.284H377.189C383.792 349.349 392.897 349.284 399.413 349.414C399.337 355.06 399.141 365.982 398.989 371.628V371.595ZM398.989 371.595C398.848 366.156 398.652 355.278 398.576 349.839L398.989 350.252C392.69 350.328 383.585 350.35 377.232 350.382L377.776 349.839C377.776 356.268 377.722 365.297 377.646 371.595L377.232 371.182C382.672 371.247 393.604 371.464 398.989 371.595Z" fill="#C7C7C7" fill-opacity="0.87"/>
<path d="M410.574 353.526C426.554 352.787 442.665 352.787 458.645 353.526C442.654 354.266 426.554 354.266 410.574 353.526Z" fill="#C7C7C7" fill-opacity="0.87"/>
<path d="M410.574 358.78C451.563 358.052 497.132 358.073 538.154 358.78C497.122 359.477 451.574 359.498 410.574 358.78V358.78Z" fill="#C7C7C7" fill-opacity="0.87"/>
<path d="M398.989 412.432C393.354 412.573 382.421 412.791 376.786 412.856C376.667 406.329 376.699 397.213 376.645 390.632V390.088H377.189C383.792 390.153 392.897 390.088 399.413 390.229C399.337 395.864 399.141 406.797 398.989 412.432ZM398.989 412.432C398.848 406.993 398.652 396.115 398.576 390.675L398.989 391.1C392.69 391.176 383.585 391.187 377.232 391.219L377.776 390.675C377.776 397.105 377.722 406.144 377.646 412.432L377.232 412.019C382.672 412.084 393.604 412.301 398.989 412.432Z" fill="#C7C7C7" fill-opacity="0.87"/>
<path d="M410.574 394.374C426.554 393.624 442.665 393.624 458.645 394.374C442.654 395.114 426.554 395.114 410.574 394.374Z" fill="#C7C7C7" fill-opacity="0.87"/>
<path d="M410.574 399.617C451.563 398.899 497.132 398.91 538.154 399.617C497.122 400.324 451.574 400.346 410.574 399.617V399.617Z" fill="#C7C7C7" fill-opacity="0.87"/>
<path d="M398.989 453.28C393.354 453.421 382.421 453.628 376.786 453.704C376.667 447.177 376.699 438.05 376.645 431.48V430.936H377.189C383.792 431.001 392.897 430.936 399.413 431.066C399.337 436.712 399.141 447.634 398.989 453.28ZM398.989 453.28C398.848 447.841 398.652 436.908 398.576 431.523L398.989 431.937C392.69 432.013 383.585 432.035 377.232 432.067L377.776 431.523C377.776 437.952 377.722 446.981 377.646 453.28L377.232 452.866C382.672 452.932 393.604 453.149 398.989 453.28Z" fill="#C7C7C7" fill-opacity="0.87"/>
<path d="M410.574 435.222C426.554 434.482 442.665 434.482 458.645 435.222C442.654 435.962 426.554 435.962 410.574 435.222Z" fill="#C7C7C7" fill-opacity="0.87"/>
<path d="M410.574 440.465C451.563 439.736 497.132 439.758 538.154 440.465C497.122 441.161 451.574 441.183 410.574 440.465V440.465Z" fill="#C7C7C7" fill-opacity="0.87"/>
<path d="M437.824 233.626H434.898V243.417C434.898 243.685 434.791 243.942 434.601 244.132C434.412 244.322 434.154 244.428 433.886 244.428C433.618 244.428 433.36 244.322 433.171 244.132C432.981 243.942 432.874 243.685 432.874 243.417V233.626H429.959C429.69 233.623 429.432 233.514 429.243 233.323C429.054 233.131 428.947 232.873 428.947 232.604C428.946 232.47 428.971 232.338 429.021 232.215C429.072 232.091 429.146 231.979 429.24 231.885C429.335 231.791 429.447 231.716 429.57 231.666C429.694 231.616 429.826 231.59 429.959 231.592H437.824C437.957 231.59 438.089 231.616 438.213 231.666C438.336 231.716 438.448 231.791 438.543 231.885C438.637 231.979 438.711 232.091 438.762 232.215C438.812 232.338 438.837 232.47 438.836 232.604C438.82 232.868 438.709 233.118 438.523 233.306C438.337 233.494 438.088 233.608 437.824 233.626Z" fill="#634932"/>
<path d="M446.69 241.437H442.219L441.316 243.83C441.239 244.021 441.107 244.184 440.936 244.299C440.766 244.413 440.564 244.473 440.359 244.472C440.241 244.471 440.123 244.453 440.011 244.417C439.763 244.311 439.563 244.116 439.45 243.871C439.338 243.626 439.32 243.348 439.401 243.09L443.47 232.212C443.555 232.023 443.692 231.862 443.866 231.748C444.039 231.634 444.242 231.573 444.449 231.57C444.656 231.573 444.859 231.634 445.032 231.748C445.206 231.862 445.343 232.023 445.428 232.212L449.496 243.09C449.578 243.348 449.56 243.626 449.448 243.871C449.335 244.116 449.135 244.311 448.887 244.417C448.775 244.453 448.657 244.471 448.539 244.472C448.335 244.474 448.134 244.414 447.965 244.299C447.796 244.185 447.666 244.021 447.593 243.83L446.69 241.437ZM445.939 239.413L444.449 235.454L442.959 239.413H445.939Z" fill="#634932"/>
<path d="M451.291 241.274C451.371 241.176 451.47 241.096 451.581 241.037C451.692 240.977 451.813 240.941 451.939 240.929C452.064 240.916 452.19 240.929 452.311 240.966C452.431 241.003 452.543 241.063 452.64 241.143C453.627 241.984 454.86 242.48 456.154 242.557C456.976 242.576 457.782 242.337 458.46 241.872C458.687 241.732 458.877 241.539 459.013 241.31C459.15 241.081 459.229 240.822 459.243 240.556C459.248 240.345 459.191 240.137 459.08 239.957C458.938 239.737 458.748 239.551 458.525 239.413C457.746 238.976 456.895 238.681 456.013 238.543V238.543C455.194 238.407 454.397 238.166 453.641 237.825C452.944 237.519 452.348 237.021 451.922 236.389C451.645 235.934 451.502 235.41 451.509 234.877C451.527 234.346 451.669 233.826 451.924 233.359C452.179 232.893 452.54 232.492 452.977 232.19C453.914 231.546 455.028 231.208 456.165 231.222C457.62 231.296 459.019 231.808 460.179 232.691C460.384 232.832 460.525 233.048 460.572 233.292C460.619 233.536 460.567 233.789 460.429 233.996C460.364 234.102 460.278 234.194 460.176 234.267C460.074 234.339 459.959 234.39 459.837 234.416C459.715 234.443 459.589 234.444 459.466 234.42C459.344 234.397 459.227 234.349 459.124 234.279C458.283 233.589 457.249 233.175 456.165 233.093C455.427 233.083 454.704 233.303 454.098 233.724C453.897 233.845 453.729 234.014 453.607 234.215C453.486 234.416 453.416 234.643 453.402 234.877C453.389 235.061 453.435 235.243 453.532 235.399C453.661 235.59 453.828 235.753 454.022 235.878C454.733 236.289 455.515 236.562 456.328 236.683V236.683C457.205 236.836 458.06 237.095 458.874 237.455C459.618 237.785 460.255 238.316 460.712 238.989C461.002 239.46 461.156 240.002 461.158 240.556C461.14 241.123 460.986 241.678 460.71 242.173C460.434 242.669 460.043 243.092 459.57 243.406C458.579 244.121 457.386 244.502 456.165 244.494C454.435 244.416 452.779 243.77 451.455 242.655C451.353 242.575 451.267 242.476 451.204 242.364C451.141 242.251 451.1 242.127 451.085 241.998C451.07 241.87 451.08 241.74 451.116 241.615C451.151 241.491 451.211 241.375 451.291 241.274V241.274Z" fill="#634932"/>
<path d="M463.976 243.46V232.691C463.976 232.422 464.082 232.165 464.272 231.975C464.462 231.786 464.719 231.679 464.987 231.679C465.256 231.679 465.513 231.786 465.703 231.975C465.892 232.165 465.999 232.422 465.999 232.691V237.977L471.96 231.994C472.054 231.898 472.165 231.822 472.288 231.77C472.412 231.718 472.544 231.691 472.678 231.691C472.812 231.691 472.945 231.718 473.068 231.77C473.191 231.822 473.303 231.898 473.396 231.994C473.585 232.186 473.691 232.444 473.691 232.712C473.691 232.981 473.585 233.239 473.396 233.43L469.349 237.455L473.44 242.818C473.526 242.92 473.591 243.037 473.63 243.165C473.669 243.292 473.682 243.426 473.668 243.558C473.654 243.69 473.613 243.819 473.547 243.934C473.482 244.05 473.393 244.152 473.287 244.232C473.111 244.39 472.882 244.475 472.646 244.472C472.501 244.469 472.359 244.434 472.229 244.37C472.1 244.306 471.985 244.215 471.895 244.102L467.914 238.891L465.999 240.849V243.46C465.999 243.728 465.892 243.986 465.703 244.175C465.513 244.365 465.256 244.472 464.987 244.472C464.719 244.472 464.462 244.365 464.272 244.175C464.082 243.986 463.976 243.728 463.976 243.46V243.46Z" fill="#634932"/>
<path d="M476.551 241.274C476.629 241.175 476.726 241.094 476.836 241.034C476.946 240.974 477.067 240.937 477.192 240.925C477.317 240.913 477.443 240.926 477.563 240.963C477.682 241.001 477.793 241.062 477.889 241.143C478.876 241.982 480.109 242.479 481.402 242.557C482.224 242.576 483.031 242.337 483.709 241.872C483.938 241.734 484.131 241.542 484.269 241.312C484.408 241.083 484.488 240.823 484.503 240.556C484.508 240.343 484.448 240.134 484.329 239.957C484.188 239.739 484.003 239.554 483.785 239.413C483.003 238.974 482.148 238.679 481.261 238.543V238.543C480.443 238.407 479.646 238.166 478.89 237.825C478.194 237.521 477.601 237.023 477.182 236.389C476.896 235.937 476.749 235.412 476.757 234.877C476.775 234.346 476.918 233.826 477.173 233.359C477.428 232.893 477.788 232.492 478.226 232.19C479.163 231.546 480.276 231.208 481.413 231.222C482.869 231.294 484.269 231.806 485.427 232.691C485.638 232.835 485.783 233.057 485.83 233.308C485.876 233.559 485.822 233.818 485.678 234.029C485.533 234.239 485.311 234.384 485.06 234.431C484.809 234.478 484.55 234.423 484.34 234.279C483.498 233.589 482.465 233.175 481.381 233.093C480.643 233.083 479.92 233.303 479.314 233.724C479.115 233.847 478.948 234.016 478.827 234.217C478.706 234.417 478.634 234.644 478.618 234.877C478.61 235.06 478.656 235.241 478.748 235.399C478.882 235.59 479.052 235.753 479.249 235.878C479.956 236.289 480.735 236.562 481.544 236.683C482.417 236.837 483.268 237.097 484.078 237.455C484.823 237.785 485.46 238.316 485.917 238.989C486.212 239.458 486.367 240.002 486.363 240.556C486.345 241.123 486.191 241.678 485.915 242.173C485.639 242.669 485.248 243.092 484.775 243.406C483.785 244.122 482.592 244.503 481.37 244.494C479.641 244.411 477.987 243.765 476.659 242.655C476.56 242.572 476.479 242.471 476.419 242.356C476.36 242.241 476.324 242.116 476.314 241.987C476.304 241.859 476.32 241.729 476.36 241.606C476.401 241.484 476.466 241.371 476.551 241.274V241.274Z" fill="#634932"/>
<path d="M508.228 183.379H404.526V214.992H508.228V183.379Z" fill="#C7C7C7" fill-opacity="0.87"/>
<path d="M488.082 166.094H423.726L420.876 183.379H491.889L488.082 166.094ZM456.372 178.495C455.621 178.495 454.887 178.272 454.263 177.855C453.638 177.438 453.152 176.845 452.864 176.151C452.577 175.458 452.502 174.694 452.648 173.958C452.795 173.222 453.156 172.545 453.687 172.014C454.218 171.483 454.895 171.122 455.631 170.975C456.368 170.829 457.131 170.904 457.825 171.191C458.518 171.478 459.111 171.965 459.528 172.589C459.946 173.214 460.168 173.948 460.168 174.699C460.17 175.198 460.072 175.692 459.882 176.153C459.692 176.614 459.412 177.034 459.059 177.386C458.707 177.739 458.288 178.019 457.826 178.209C457.365 178.399 456.871 178.497 456.372 178.495Z" fill="#C7C7C7" fill-opacity="0.87"/>
<path d="M491.889 183.379H420.876L421.518 179.518H491.03L491.889 183.379Z" fill="#A6A6A6"/>
<path d="M127.544 614.278C276.25 613.614 443.079 613.604 591.784 614.278C443.079 614.952 276.25 614.942 127.544 614.278V614.278Z" fill="#263238" fill-opacity="0.88"/>
<path d="M348.437 614.267C345.783 615.137 269.918 614.169 267.057 612.287C265.969 611.602 265.458 600.539 265.23 587.159V586.734C265.175 583.982 265.143 581.132 265.132 578.26C265.132 577.858 265.132 577.466 265.132 577.074L268.798 537.717L319.545 538.206L314.552 577.194L314.486 578.739L314.182 586.81V587.637C314.182 587.637 343.053 600.996 345.979 603.389C348.905 605.782 351.103 613.429 348.437 614.267Z" fill="#AD6359"/>
<path d="M348.437 614.267C345.783 615.137 269.918 614.169 267.057 612.287C265.969 611.602 265.458 600.539 265.23 587.159V586.734C265.175 583.982 265.143 581.132 265.132 578.26C265.132 577.858 265.132 577.466 265.132 577.074L314.552 577.194L314.486 578.739L314.182 586.81V587.637C314.182 587.637 343.053 600.996 345.979 603.389C348.905 605.782 351.103 613.429 348.437 614.267Z" fill="#EBEBEB" fill-opacity="0.44"/>
<path d="M348.448 614.267C347.078 614.713 326.474 614.67 306.328 614.267C302.27 614.18 298.245 614.093 294.362 613.984C279.992 613.593 268.123 613.005 267.025 612.287C265.926 611.569 265.426 600.843 265.208 587.713C265.208 587.528 265.208 587.343 265.208 587.159C265.208 586.974 265.208 586.865 265.208 586.723H265.262L314.149 586.81V587.637C314.149 587.637 343.031 600.996 345.957 603.378C348.884 605.76 351.103 613.419 348.448 614.267Z" fill="#AD6359"/>
<path d="M347.622 611.319C334.84 610.84 283.233 610.122 270.56 610.623C270.451 610.623 270.451 610.699 270.56 610.71C283.222 611.46 334.829 611.798 347.622 611.526C347.894 611.526 347.894 611.33 347.622 611.319Z" fill="#263238" fill-opacity="0.88"/>
<path d="M319.621 587.017C314.606 586.016 308.438 586.712 304.544 590.281C304.392 590.422 304.544 590.629 304.762 590.585C309.587 589.095 314.557 588.125 319.589 587.692C319.678 587.696 319.766 587.664 319.832 587.604C319.898 587.544 319.938 587.46 319.942 587.371C319.946 587.281 319.915 587.194 319.855 587.127C319.795 587.061 319.711 587.021 319.621 587.017Z" fill="#263238" fill-opacity="0.88"/>
<path d="M323.222 589.258C318.207 588.257 312.039 588.943 308.156 592.521C308.003 592.663 308.156 592.88 308.362 592.826C313.191 591.335 318.165 590.364 323.2 589.932C323.29 589.935 323.377 589.903 323.442 589.841C323.507 589.78 323.545 589.696 323.548 589.606C323.551 589.517 323.518 589.43 323.457 589.364C323.396 589.299 323.311 589.261 323.222 589.258V589.258Z" fill="#263238" fill-opacity="0.88"/>
<path d="M326.833 591.488C321.808 590.487 315.651 591.183 311.756 594.751C311.604 594.893 311.756 595.1 311.963 595.056C316.79 593.56 321.765 592.59 326.801 592.162C326.89 592.167 326.978 592.135 327.044 592.075C327.11 592.015 327.15 591.931 327.154 591.842C327.159 591.752 327.127 591.665 327.067 591.598C327.007 591.532 326.923 591.492 326.833 591.488V591.488Z" fill="#263238" fill-opacity="0.88"/>
<path d="M306.361 614.267C302.303 614.18 298.278 614.093 294.394 613.984C280.024 613.593 268.156 613.005 267.057 612.287C265.959 611.569 265.458 600.843 265.241 587.713C265.241 587.528 265.241 587.343 265.241 587.159C265.241 586.974 265.241 586.865 265.241 586.723H265.295C271.985 591.423 295.591 607.098 306.361 614.267Z" fill="#263238" fill-opacity="0.88"/>
<path d="M317.097 586.984H262.467C262.467 586.984 273.432 459.372 273.008 457.142C272.464 454.291 269.233 441.379 264.936 424.507C263.587 419.22 262.13 413.563 260.585 407.689C256.506 391.818 252.013 374.467 248.097 359.368C242.212 336.752 237.632 325.101 237.632 325.101H283.93C283.93 325.101 322.004 434.08 323.516 456.598C324.854 476.244 317.097 586.984 317.097 586.984Z" fill="#263238" fill-opacity="0.88"/>
<path d="M314.671 577.662C306.328 577.488 308.732 577.422 300.388 577.335C296.298 577.335 269.461 577.074 265.643 577.705C265.567 577.705 265.567 577.858 265.643 577.879C269.461 578.51 296.298 578.271 300.388 578.227C308.732 578.14 306.328 578.075 314.671 577.901C314.703 577.901 314.734 577.888 314.756 577.866C314.778 577.844 314.791 577.813 314.791 577.781C314.791 577.75 314.778 577.719 314.756 577.697C314.734 577.674 314.703 577.662 314.671 577.662Z" fill="#37474F"/>
<path d="M283.288 449.364C281.493 441.466 278.817 433.732 276.478 425.975C271.742 410.224 266.974 394.483 262.173 378.753C259.78 370.888 248.673 341.451 247.575 337.535C247.129 335.947 246.889 336.817 247.466 338.841C248.619 342.92 267.591 401.271 272.399 417.262C274.806 425.283 277.218 433.296 279.633 441.303C280.852 445.116 281.84 448.999 282.592 452.932C283.235 457.047 283.396 461.224 283.07 465.376C282.548 473.731 281.58 482.085 280.819 490.396L278.501 515.416C276.964 532.053 275.441 548.686 273.933 565.315C273.748 567.425 273.563 569.525 273.4 571.635C273.4 572.342 274.411 572.288 274.487 571.635C276.282 555.187 277.664 538.685 279.198 522.215C280.732 505.746 282.265 489.439 283.788 473.046C284.18 468.934 284.615 464.811 284.615 460.677C284.594 456.868 284.149 453.074 283.288 449.364V449.364Z" fill="#37474F"/>
<path d="M278.719 325.101C275.455 349.969 269.396 390.686 264.936 424.518C254.482 383.528 237.675 325.112 237.675 325.112L278.719 325.101Z" fill="#37474F"/>
<path d="M291.947 615.018C289.282 615.888 213.417 615.192 210.556 613.332C209.468 612.646 208.902 601.583 208.63 588.203V587.779C208.565 585.026 208.522 582.187 208.5 579.304C208.5 578.913 208.5 578.51 208.5 578.119C208.315 558.799 209.707 538.761 209.707 538.761L259.29 539.077L257.909 578.064V579.609L257.626 587.681V588.507C257.626 588.507 286.54 601.768 289.488 604.139C292.436 606.511 294.601 614.158 291.947 615.018Z" fill="#AD6359"/>
<path d="M291.947 615.018C289.281 615.888 213.416 615.192 210.556 613.332C209.468 612.646 208.902 601.583 208.63 588.203V587.779C208.565 585.026 208.521 582.187 208.5 579.304C208.5 578.913 208.5 578.51 208.5 578.119L257.909 578.064V579.609L257.626 587.681V588.507C257.626 588.507 286.54 601.768 289.488 604.139C292.436 606.511 294.601 614.158 291.947 615.018Z" fill="#EBEBEB" fill-opacity="0.44"/>
<path d="M291.947 615.018C289.282 615.888 213.417 615.192 210.556 613.332C209.468 612.646 208.902 601.583 208.63 588.203V587.779L257.583 587.681V588.507C257.583 588.507 286.497 601.768 289.445 604.139C292.393 606.511 294.601 614.158 291.947 615.018Z" fill="#AD6359"/>
<path d="M291.131 612.07C278.349 611.635 226.743 611.112 214.069 611.656C213.961 611.656 213.961 611.732 214.069 611.732C226.732 612.44 278.338 612.548 291.131 612.276C291.381 612.266 291.381 612.081 291.131 612.07Z" fill="#634932"/>
<path d="M263.022 587.866C257.996 586.887 251.839 587.605 247.955 591.129C247.814 591.27 248.01 591.477 248.173 591.434C252.994 589.918 257.966 588.93 263 588.486C263.066 588.467 263.125 588.427 263.167 588.373C263.209 588.319 263.233 588.252 263.236 588.183C263.238 588.115 263.219 588.047 263.18 587.99C263.142 587.933 263.086 587.889 263.022 587.866V587.866Z" fill="#263238" fill-opacity="0.88"/>
<path d="M266.633 590.096C261.607 589.106 255.45 589.824 251.567 593.359C251.425 593.501 251.621 593.707 251.784 593.664C256.61 592.178 261.58 591.211 266.611 590.781C266.702 590.784 266.791 590.751 266.857 590.688C266.923 590.626 266.962 590.54 266.965 590.449C266.968 590.358 266.934 590.27 266.872 590.204C266.81 590.137 266.724 590.099 266.633 590.096Z" fill="#263238" fill-opacity="0.88"/>
<path d="M270.245 592.315C265.219 591.325 259.062 592.043 255.189 595.578C255.037 595.709 255.189 595.926 255.396 595.872C260.22 594.375 265.191 593.397 270.223 592.957C270.265 592.958 270.307 592.951 270.347 592.936C270.386 592.922 270.422 592.899 270.453 592.87C270.484 592.841 270.509 592.807 270.526 592.769C270.544 592.73 270.553 592.689 270.555 592.647C270.556 592.604 270.549 592.562 270.534 592.523C270.52 592.483 270.497 592.447 270.468 592.416C270.44 592.386 270.405 592.361 270.367 592.343C270.328 592.326 270.287 592.316 270.245 592.315V592.315Z" fill="#263238" fill-opacity="0.88"/>
<path d="M283.658 325.101C282.706 336.534 280.655 347.849 277.533 358.889C277.131 360.336 276.685 361.761 276.206 363.132C276.206 363.132 272.116 365.046 264.044 369.996C264.044 369.996 263.522 387.825 262.956 407.7C262.369 429.924 261.76 454.716 261.868 459.97C262.336 479.638 259.432 587.789 259.432 587.789L204.812 588.029C204.812 588.029 214.602 467.28 214.602 460.035C214.494 448.45 217.235 397.268 219.345 359.955C220.64 336.959 221.706 325.145 221.706 325.145L283.658 325.101Z" fill="#263238" fill-opacity="0.88"/>
<path d="M257.615 578.075C249.272 577.945 251.665 577.858 243.321 577.825C239.242 577.825 212.405 577.684 208.587 578.336C208.5 578.336 208.511 578.489 208.587 578.499C212.405 579.119 239.242 578.76 243.332 578.706C251.676 578.586 249.272 578.532 257.615 578.325C257.642 578.317 257.666 578.301 257.683 578.278C257.7 578.256 257.709 578.228 257.709 578.2C257.709 578.172 257.7 578.145 257.683 578.122C257.666 578.1 257.642 578.083 257.615 578.075V578.075Z" fill="#37474F"/>
<path d="M226.34 333.032C225.339 363.491 224.284 388.065 222.924 418.535C221.565 449.005 219.726 479.649 217.181 510.14C215.756 527.176 214.418 551.141 212.579 568.143C212.579 568.252 212.742 568.296 212.753 568.143C216.724 537.913 218.932 500.535 220.89 470.109C222.848 439.682 224.154 409.19 225.187 378.731C225.764 361.5 226.21 350.176 226.721 332.945C226.732 332.76 226.351 332.781 226.34 333.032Z" fill="#37474F"/>
<path d="M228.44 352.83C229.789 352.482 231.225 352.373 232.595 352.156C233.683 351.982 234.771 351.786 235.859 351.546C237.96 351.168 239.951 350.328 241.689 349.088C244.409 346.912 247.542 336.175 247.923 335.49C248.575 334.304 248.771 335.338 248.771 335.49C248.771 336.741 245.91 346.183 244.801 347.946C242.777 351.209 239.144 352.471 235.521 352.928C234.488 353.058 233.444 353.135 232.399 353.189C231.082 353.309 229.757 353.309 228.44 353.189C228.4 353.179 228.364 353.156 228.339 353.123C228.313 353.091 228.299 353.051 228.299 353.01C228.299 352.968 228.313 352.928 228.339 352.896C228.364 352.863 228.4 352.84 228.44 352.83Z" fill="#37474F"/>
<path d="M276.032 363.425C270.715 365.356 265.576 367.743 260.672 370.562C260.635 370.583 260.608 370.618 260.595 370.659C260.582 370.699 260.585 370.743 260.602 370.782C260.62 370.821 260.651 370.852 260.69 370.87C260.728 370.887 260.772 370.89 260.813 370.877C265.991 368.701 271.278 366.526 276.336 364.013C276.397 363.964 276.44 363.896 276.456 363.819C276.472 363.743 276.461 363.663 276.426 363.594C276.39 363.525 276.331 363.47 276.259 363.439C276.187 363.408 276.107 363.404 276.032 363.425V363.425Z" fill="#37474F"/>
<path d="M277.587 327.897C277.587 327.723 277.261 327.679 277.261 327.897C277.263 333.677 276.973 339.454 276.391 345.204C276.151 347.88 274.008 362.61 269.374 361.522C268.602 361.348 268.21 360.575 268.091 359.411C268.106 357.884 268.311 356.364 268.7 354.886C269.211 351.797 269.624 348.696 269.896 345.585C270.43 339.774 270.364 333.923 269.701 328.126C269.692 328.093 269.673 328.065 269.646 328.045C269.62 328.024 269.587 328.014 269.554 328.014C269.52 328.014 269.488 328.024 269.461 328.045C269.435 328.065 269.416 328.093 269.407 328.126C269.545 336.181 269.073 344.236 267.993 352.221C267.416 356.05 265.48 361.826 269.494 362.425C273.508 363.023 276.228 353.341 276.728 350.698C278.001 343.167 278.289 335.502 277.587 327.897Z" fill="#37474F"/>
<path d="M269.505 361.935C269.071 362.927 268.707 363.949 268.417 364.992C268.123 365.797 267.975 366.648 267.982 367.505C267.982 367.668 268.221 367.679 268.309 367.57C268.794 366.814 269.16 365.989 269.396 365.122C269.744 364.176 270.114 363.24 270.484 362.283C270.53 362.153 270.523 362.011 270.464 361.886C270.405 361.762 270.299 361.666 270.169 361.62C270.039 361.573 269.896 361.581 269.772 361.64C269.647 361.699 269.551 361.805 269.505 361.935Z" fill="#37474F"/>
<path d="M274.553 266.065C272.954 290.411 274.074 315.289 277.196 319.793C282.037 326.787 313.812 341.745 324.506 344.476C328.008 345.368 335.939 322.088 333.6 319.01C331.261 315.931 296.614 302.42 294.884 300.821C293.96 299.962 288.934 279.946 284.691 266.37C280.753 253.751 275.042 258.668 274.553 266.065Z" fill="#AD6359"/>
<path d="M312.463 341.343L322.884 312.037C322.884 312.037 298.626 301.158 295.754 299.527C294.536 298.852 288.194 274.115 284.876 263.389C282.7 256.34 276.032 252.837 273.519 266.87C272.05 275.083 270.81 314.821 276.108 321.414C280.34 326.668 312.463 341.343 312.463 341.343Z" fill="#455A64"/>
<path d="M307.655 337.448C308.068 335.273 311.267 326.516 312.093 324.394C312.92 322.273 316.445 313.668 317.348 311.449C317.348 311.33 317.587 311.362 317.533 311.449C316.728 313.625 313.812 322.523 313.007 324.688C312.202 326.853 308.917 335.566 307.764 337.492C307.761 337.499 307.757 337.505 307.751 337.511C307.746 337.516 307.74 337.521 307.733 337.524C307.725 337.527 307.718 337.528 307.71 337.529C307.702 337.529 307.695 337.527 307.688 337.524C307.681 337.521 307.674 337.517 307.669 337.512C307.663 337.507 307.659 337.5 307.656 337.493C307.653 337.486 307.651 337.478 307.651 337.471C307.651 337.463 307.652 337.455 307.655 337.448Z" fill="#263238" fill-opacity="0.88"/>
<path opacity="0.1" d="M302.26 336.513C292.469 331.748 278.784 324.721 276.152 321.425C270.854 314.821 272.083 275.083 273.563 266.87C274.825 259.777 277.164 257.178 279.437 257.232L302.26 336.513Z" fill="#020100"/>
<path d="M219.574 324.927C219.693 325.123 286.051 333.217 286.779 332.662C287.051 332.455 288.694 273.147 281.732 257.395C278.86 250.868 267.209 247.452 260.704 254.349C228.907 288.007 219.421 324.666 219.574 324.927Z" fill="#EBEBEB" fill-opacity="0.44"/>
<path d="M229.498 350.078L239.571 378.477L377.804 329.445L367.731 301.046L229.498 350.078Z" fill="#FFC727"/>
<path opacity="0.2" d="M229.498 350.078L239.571 378.477L377.804 329.445L367.731 301.046L229.498 350.078Z" fill="#020100"/>
<g opacity="0.1">
<path d="M365.658 308.099C324.516 323.045 278.24 339.461 236.87 353.787C278.012 338.841 324.288 322.425 365.658 308.099Z" fill="black"/>
<path d="M367.66 313.734C326.518 328.669 280.253 345.085 238.916 359.4C280.057 344.454 326.333 328.049 367.703 313.712L367.66 313.734Z" fill="black"/>
<path d="M369.65 319.358C328.509 334.304 282.233 350.72 240.863 365.046C282.004 350.1 328.291 333.684 369.65 319.358Z" fill="black"/>
<path d="M371.63 324.993C330.489 339.939 284.213 356.355 242.843 370.681C283.984 355.734 330.26 339.33 371.63 324.993Z" fill="black"/>
</g>
<path d="M228.2 382.887C228.2 382.887 211.263 391.034 205.552 374.935C199.841 358.835 218.127 354.484 218.127 354.484L228.2 382.887Z" fill="#FF9ABB"/>
<path d="M217.353 351.718L229.114 384.874L237.162 382.02L225.402 348.863L217.353 351.718Z" fill="#A6A6A6"/>
<path d="M226.233 348.556L237.994 381.713L246.042 378.858L234.281 345.702L226.233 348.556Z" fill="#A6A6A6"/>
<path d="M367.692 301.017L391.918 304.454L399.914 305.542L394.475 311.514L377.842 329.453L372.696 328.038C372.696 328.038 375.775 323.85 375.818 323.763L370.673 322.349C370.673 322.349 373.762 318.161 373.806 318.074L368.682 316.725C368.682 316.725 371.75 312.472 371.783 312.374L366.67 311.025C366.67 311.025 369.727 306.771 369.77 306.674L364.646 305.325C364.646 305.325 367.66 301.104 367.692 301.017Z" fill="#FFC727"/>
<path opacity="0.8" d="M367.692 301.017L391.918 304.454L399.914 305.542L394.475 311.514L377.842 329.453L372.696 328.038C372.696 328.038 375.775 323.85 375.818 323.763L370.673 322.349C370.673 322.349 373.762 318.161 373.806 318.074L368.682 316.725C368.682 316.725 371.75 312.472 371.783 312.374L366.67 311.025C366.67 311.025 369.727 306.771 369.77 306.674L364.646 305.325C364.646 305.325 367.66 301.104 367.692 301.017Z" fill="white"/>
<path d="M391.918 304.454L399.913 305.564L394.42 311.514L391.918 304.454Z" fill="#263238" fill-opacity="0.88"/>
<path d="M254.928 258.276C239.949 271.602 219.617 296.143 220.531 302.442C222.816 318.205 234.51 338.057 240.634 345.4C244.202 349.686 267.743 331.944 264.751 327.995C260.052 321.74 248.858 302.018 247.585 299.45C246.9 298.08 257.289 279.282 262.946 266.402C269.103 252.391 262.238 251.793 254.928 258.276Z" fill="#AD6359"/>
<path d="M272.638 340.364C271.789 338.634 272.692 338.188 275.76 339.656C278.828 341.125 289.749 349.621 292.393 345.563C295.036 341.506 279.459 329.768 274.139 327.69C268.82 325.613 259.584 324.122 259.584 324.122C262.129 327.005 267.699 334.62 272.638 340.364Z" fill="#AD6359"/>
<path d="M240.471 345.281C248.009 353.156 256.919 363.436 268.754 366.776C270.061 367.186 271.469 367.14 272.746 366.645C278.033 368.245 280.361 366.221 280.361 366.221C285.735 366.221 287.846 363.817 287.846 363.817C287.846 363.817 294.057 365.612 295.776 362.033C297.712 358.03 288.596 356.278 284.169 352.243C274.03 343.018 262.195 327.059 259.54 324.111L240.471 345.281Z" fill="#AD6359"/>
<path d="M266.764 350.045C269.7 352.795 272.822 355.339 276.108 357.66C279.852 359.961 283.761 361.982 287.802 363.708C287.819 363.71 287.835 363.716 287.849 363.725C287.863 363.734 287.875 363.746 287.883 363.76C287.892 363.774 287.897 363.79 287.899 363.807C287.9 363.824 287.898 363.84 287.892 363.856C287.886 363.871 287.876 363.885 287.864 363.897C287.851 363.908 287.837 363.916 287.821 363.921C287.805 363.926 287.788 363.926 287.771 363.924C287.755 363.921 287.739 363.914 287.726 363.904C279.579 361.357 272.287 356.623 266.644 350.219C266.513 350.034 266.611 349.915 266.764 350.045Z" fill="#263238" fill-opacity="0.88"/>
<path d="M260.313 355.365C263.413 357.78 268.885 362 280.427 366.102C280.427 366.102 280.427 366.189 280.427 366.178C272.829 364.566 265.831 360.871 260.215 355.506C260.008 355.343 260.106 355.201 260.313 355.365Z" fill="#263238" fill-opacity="0.88"/>
<path d="M256.886 358.28C262.325 362.196 266.231 363.98 272.747 366.613C272.747 366.613 272.747 366.7 272.747 366.678C265.034 364.502 262.488 362.784 256.756 358.443C256.538 358.302 256.679 358.128 256.886 358.28Z" fill="#263238" fill-opacity="0.88"/>
<path d="M234.26 344.519L264.262 323.97L249.032 299.527C254.265 289.203 264.012 268.796 266.557 261.115C269.549 252.108 264.382 251.01 256.702 256.96C239.296 270.558 216.811 296.785 215.778 302.224C214.298 310.002 234.26 344.519 234.26 344.519Z" fill="#455A64"/>
<path d="M234.618 337.078C236.228 335.468 243.898 330.018 245.823 328.68C247.749 327.342 255.613 322.23 257.648 320.87C257.757 320.794 257.887 320.924 257.778 321C255.842 322.382 248.325 328.126 246.41 329.474C244.496 330.823 236.74 336.23 234.684 337.176C234.618 337.22 234.564 337.133 234.618 337.078Z" fill="#263238" fill-opacity="0.88"/>
<path d="M261.085 274.702C258.083 282.121 253.982 289.758 250.609 297.025C250.37 297.547 249.62 299.2 249.522 299.461C252.894 305.444 257.136 311.884 260.672 317.846L264.305 323.883L263.478 324.405L264.251 323.796V323.872L260.258 318.052C256.473 312.33 252.274 306.086 248.825 300.223C248.684 299.907 248.488 299.744 248.51 299.309C248.782 298.341 249.146 297.401 249.598 296.502C252.97 289.432 257.387 281.523 261.053 274.626L261.085 274.702Z" fill="#263238" fill-opacity="0.88"/>
<path d="M261.303 276.149C260.711 277.308 259.863 278.316 258.823 279.097C259.59 278.066 260.418 277.081 261.303 276.149V276.149Z" fill="#263238" fill-opacity="0.88"/>
<path d="M323.929 334.609C325.746 331.345 328.563 335.349 328.563 335.349C328.563 335.349 325.909 328.593 329.085 325.95C332.262 323.306 335.384 328.387 335.612 328.735C335.471 328.376 333.197 322.099 336.7 319.771C340.203 317.443 342.683 322.904 342.836 323.263C342.836 322.893 342.596 317.824 345.631 316.736C350.853 314.734 352.691 329.028 356.238 331.857L364.429 329.801C362.79 331.224 361.596 333.09 360.991 335.175C360.034 338.166 359.414 340.157 358.032 341.549C357.431 342.195 356.637 342.63 355.769 342.788C354.901 342.947 354.005 342.822 353.213 342.43C353.213 342.43 354.007 346.325 351.331 348.239C349.961 349.218 347.165 347.891 347.165 347.891C347.165 347.891 347.665 351.035 345.185 352.591C343.205 353.842 340.714 352.319 340.714 352.319C340.714 352.319 339.8 355.582 337.364 356.181C332.469 357.399 320.035 341.604 323.929 334.609Z" fill="#AD6359"/>
<path d="M358.185 331.628L364.255 329.823H364.973C373.077 329.681 379.724 337.655 374.186 339.428C369.977 340.777 364.178 336.001 360.045 338.014L358.185 331.628Z" fill="#AD6359"/>
<path d="M340.268 352.09C340.268 352.09 340.268 352.221 340.203 352.177C334.622 347.832 330.498 341.89 328.378 335.142C328.324 334.924 328.65 334.729 328.759 334.957C331.741 341.198 335.619 346.97 340.268 352.09V352.09Z" fill="#263238" fill-opacity="0.88"/>
<path d="M347.187 347.957C347.187 348.011 347.187 348.098 347.078 348.044C341.584 343.692 336.613 336.513 335.34 328.68C335.34 328.408 335.525 328.125 335.601 328.43C336.82 333.576 342.748 343.214 347.187 347.957Z" fill="#263238" fill-opacity="0.88"/>
<path d="M342.923 322.686C344.435 330.149 348.188 336.382 352.963 342.267C353.028 342.343 352.909 342.42 352.843 342.376C349.732 340.2 347.078 336.11 345.229 332.792C343.5 329.741 342.6 326.291 342.618 322.784C342.661 322.599 342.89 322.534 342.923 322.686Z" fill="#263238" fill-opacity="0.88"/>
<path d="M269.842 249.715C266.579 251.031 266.851 255.339 269.081 260.659C271.311 265.978 274.792 269.731 278.371 269.448C281.95 269.165 283.288 264.107 283.614 261.203C283.864 258.918 283.027 254.306 279.089 252.054C275.151 249.802 271.703 248.964 269.842 249.715Z" fill="#455A64"/>
<path d="M277.468 267.414C273.552 266.816 269.016 258.102 268.385 252.707C268.385 252.337 270.093 249.323 272.062 245.56C273.236 243.275 274.498 240.708 275.477 238.271L289.228 248.116C287.136 250.793 285.379 253.716 283.995 256.819C283.862 257.153 283.76 257.499 283.69 257.852C283.694 257.91 283.694 257.968 283.69 258.026C283.19 260.082 281.254 267.991 277.468 267.414Z" fill="#AD6359"/>
<path d="M283.69 257.906C283.69 257.906 283.69 258.004 283.69 258.07C283.143 257.932 282.608 257.75 282.091 257.526C273.389 253.773 275.63 242.133 276.456 238.935L279.883 241.393L289.271 248.127C287.178 250.803 285.42 253.726 284.038 256.829C283.887 257.176 283.77 257.537 283.69 257.906Z" fill="#263238" fill-opacity="0.88"/>
<path d="M278.197 221.171C275.151 226.457 274.389 243.558 277.587 248.149C282.221 254.795 291.729 257.504 297.821 251.499C303.76 245.679 304.348 223.368 300.617 219.006C295.09 212.588 282.678 213.371 278.197 221.171Z" fill="#AD6359"/>
<path d="M291.903 235.541C291.903 235.541 291.816 235.541 291.816 235.639C291.816 236.792 291.577 238.108 290.511 238.434C290.511 238.434 290.511 238.51 290.511 238.5C291.805 238.391 292.077 236.639 291.903 235.541Z" fill="#263238" fill-opacity="0.88"/>
<path d="M290.935 234.29C289.097 234.05 288.76 237.76 290.478 237.977C292.197 238.195 292.491 234.486 290.935 234.29Z" fill="#263238" fill-opacity="0.88"/>
<path d="M298.441 235.911C298.441 235.911 298.528 235.911 298.517 236.019C298.387 237.162 298.419 238.5 299.42 238.967C299.42 238.967 299.42 239.043 299.42 239.033C298.158 238.739 298.126 236.966 298.441 235.911Z" fill="#263238" fill-opacity="0.88"/>
<path d="M299.572 234.801C301.433 234.801 301.248 238.543 299.572 238.521C297.897 238.5 298.017 234.779 299.572 234.801Z" fill="#263238" fill-opacity="0.88"/>
<path d="M289.369 231.385C289.877 231.336 290.381 231.259 290.881 231.157C291.424 231.155 291.951 230.976 292.382 230.645C292.487 230.506 292.544 230.336 292.544 230.161C292.544 229.987 292.487 229.817 292.382 229.677C292.145 229.424 291.845 229.237 291.513 229.136C291.181 229.034 290.828 229.022 290.489 229.101C289.779 229.161 289.116 229.483 288.629 230.004C288.517 230.132 288.447 230.291 288.428 230.46C288.409 230.629 288.441 230.8 288.522 230.95C288.602 231.1 288.726 231.222 288.877 231.3C289.029 231.378 289.2 231.407 289.369 231.385V231.385Z" fill="#263238" fill-opacity="0.88"/>
<path d="M301.433 231.853C300.946 231.707 300.466 231.536 299.997 231.342C299.465 231.228 298.984 230.946 298.626 230.537C298.549 230.391 298.518 230.224 298.54 230.061C298.561 229.897 298.633 229.744 298.746 229.623C299.028 229.42 299.359 229.296 299.704 229.261C300.05 229.227 300.398 229.284 300.715 229.427C301.399 229.626 301.984 230.072 302.357 230.678C302.423 230.819 302.448 230.974 302.43 231.128C302.412 231.282 302.352 231.428 302.256 231.55C302.161 231.672 302.033 231.764 301.887 231.818C301.742 231.871 301.585 231.884 301.433 231.853Z" fill="#263238" fill-opacity="0.88"/>
<path d="M273.943 232.538C273.769 230.961 273.073 217.57 273.791 215.873C274.509 214.176 276.097 215.275 276.141 215.187C276.184 215.1 276.478 213.643 277.468 213.24C277.803 213.163 278.151 213.155 278.489 213.216C278.828 213.278 279.15 213.408 279.437 213.599C279.437 213.599 279.97 212.098 281.003 211.837C281.347 211.791 281.696 211.834 282.018 211.962C282.34 212.089 282.623 212.297 282.842 212.566C282.999 212.169 283.25 211.817 283.574 211.54C283.899 211.264 284.286 211.07 284.702 210.978C285.065 210.937 285.432 211.014 285.747 211.198C286.063 211.383 286.31 211.664 286.453 212C286.453 212 287.117 210.597 288.172 210.477C289.227 210.358 289.934 211.565 289.934 211.565C290.142 211.22 290.438 210.938 290.792 210.747C291.146 210.555 291.545 210.462 291.947 210.477C292.328 210.566 292.673 210.767 292.939 211.054C293.204 211.341 293.378 211.701 293.437 212.087C293.688 211.768 294.009 211.51 294.374 211.332C294.74 211.155 295.141 211.064 295.548 211.065C296.712 211.217 296.875 212.729 296.875 212.729C296.875 212.729 297.549 211.522 298.626 211.783C299.703 212.044 299.714 213.61 299.714 213.61C299.714 213.61 300.693 212.087 301.77 212.925C303.043 213.926 303.13 223.803 302.858 227.937C302.858 227.937 302.401 224.88 301.226 224.837C300.051 224.793 299.257 227.328 297.125 226.534C294.993 225.739 292.164 223.27 289.01 223.401C285.855 223.531 283.32 226.664 281.482 231.189C279.448 236.291 274.357 236.27 273.943 232.538Z" fill="#263238" fill-opacity="0.88"/>
<path d="M288.759 240.849C287.873 240.651 287.06 240.209 286.412 239.571C285.765 238.934 285.31 238.128 285.098 237.244C284.887 236.361 284.927 235.436 285.216 234.574C285.504 233.713 286.028 232.95 286.729 232.372C287.43 231.794 288.278 231.424 289.179 231.305C290.079 231.185 290.995 231.321 291.822 231.697C292.65 232.072 293.355 232.672 293.857 233.429C294.36 234.185 294.64 235.068 294.666 235.976V235.976C294.683 236.713 294.532 237.444 294.226 238.114C293.919 238.785 293.464 239.377 292.896 239.846C292.327 240.315 291.659 240.649 290.943 240.823C290.226 240.997 289.48 241.006 288.759 240.849V240.849ZM290.739 232.005C290.382 231.931 290.017 231.898 289.651 231.907C288.586 231.951 287.577 232.398 286.829 233.158C286.081 233.918 285.651 234.934 285.624 236C285.598 237.066 285.979 238.102 286.688 238.898C287.398 239.693 288.384 240.189 289.446 240.285C290.508 240.381 291.566 240.069 292.407 239.412C293.247 238.756 293.806 237.805 293.971 236.751C294.135 235.698 293.893 234.621 293.293 233.74C292.693 232.858 291.78 232.238 290.739 232.005V232.005Z" fill="#FFC727"/>
<path d="M299.833 241.948C298.028 241.535 296.798 239.315 297.059 236.792C297.163 235.587 297.643 234.446 298.43 233.528C298.759 233.128 299.177 232.812 299.652 232.606C300.127 232.4 300.644 232.309 301.16 232.343C301.672 232.413 302.159 232.606 302.579 232.905C303 233.205 303.341 233.601 303.575 234.061C304.158 235.123 304.394 236.34 304.25 237.542C303.967 240.207 302.129 242.198 300.149 241.992L299.833 241.948ZM301.335 233.028H301.095C300.681 233.005 300.267 233.081 299.888 233.252C299.509 233.422 299.177 233.681 298.92 234.007C298.219 234.818 297.796 235.832 297.712 236.9C297.462 239.207 298.593 241.252 300.214 241.393C301.835 241.535 303.358 239.827 303.608 237.521C303.731 236.455 303.526 235.377 303.021 234.431C302.855 234.091 302.619 233.791 302.328 233.549C302.037 233.307 301.699 233.129 301.335 233.028V233.028Z" fill="#FFC727"/>
<path d="M294.449 236.52L294.09 235.976C294.884 235.443 296.657 234.79 297.712 236.172L297.19 236.563C296.255 235.323 294.525 236.465 294.449 236.52Z" fill="#FFC727"/>
<path d="M272.812 235.519L272.279 235.16C272.442 234.91 273.944 232.691 275.401 232.604C276.859 232.517 285.333 234.235 285.703 234.311L285.573 234.953C283.114 234.453 276.5 233.191 275.445 233.256C274.39 233.322 273.215 234.91 272.812 235.519Z" fill="#FFC727"/>
<path d="M278.632 235.356C278.632 235.356 276.01 229.253 273.312 230.069C270.615 230.885 271.811 239.207 274.4 240.86C274.721 241.095 275.086 241.263 275.474 241.353C275.862 241.443 276.264 241.453 276.655 241.383C277.047 241.312 277.42 241.163 277.753 240.945C278.085 240.726 278.369 240.442 278.588 240.11L278.632 235.356Z" fill="#AD6359"/>
<path d="M273.726 232.451C273.726 232.451 273.661 232.451 273.726 232.517C275.553 233.746 276.217 235.78 276.554 237.88C276.481 237.655 276.36 237.449 276.2 237.276C276.039 237.103 275.843 236.967 275.624 236.878C275.405 236.789 275.17 236.749 274.934 236.76C274.698 236.772 274.468 236.834 274.259 236.944C274.194 236.944 274.259 237.064 274.259 237.064C274.632 237.023 275.008 237.1 275.336 237.283C275.663 237.466 275.926 237.747 276.086 238.086C276.35 238.653 276.551 239.248 276.685 239.859C276.75 240.066 277.087 240.033 277.065 239.859V239.805C277.62 237.238 276.391 233.267 273.726 232.451Z" fill="#263238" fill-opacity="0.88"/>
<defs>
<linearGradient id="paint0_linear_316_1248" x1="456" y1="0" x2="456" y2="882.9" gradientUnits="userSpaceOnUse">
<stop stop-color="#967258"/>
<stop offset="0.671875" stop-color="#C1B5AB" stop-opacity="0.354167"/>
<stop offset="1" stop-color="#D9D9D9" stop-opacity="0"/>
</linearGradient>
</defs>
</svg>
