<svg width="43" height="40" viewBox="0 0 43 40" fill="none" xmlns="http://www.w3.org/2000/svg">
<path fill-rule="evenodd" clip-rule="evenodd" d="M41.5109 3.10739C41.6865 2.93837 41.8258 2.7377 41.9208 2.51686C42.0159 2.29601 42.0648 2.05931 42.0648 1.82027C42.0648 1.58123 42.0159 1.34453 41.9208 1.12368C41.8258 0.902837 41.6865 0.702172 41.5109 0.533144C41.3353 0.364117 41.1268 0.230037 40.8973 0.13856C40.6679 0.0470828 40.422 0 40.1736 0C39.9252 0 39.6793 0.0470828 39.4499 0.13856C39.2204 0.230037 39.0119 0.364117 38.8363 0.533144L21.2856 17.4294L3.73481 0.533144C3.5592 0.364117 3.35071 0.230037 3.12126 0.13856C2.89181 0.0470828 2.64589 1.781e-09 2.39754 0C2.14918 -1.781e-09 1.90326 0.0470828 1.67381 0.13856C1.44436 0.230037 1.23588 0.364117 1.06026 0.533144C0.884651 0.702172 0.745347 0.902837 0.650306 1.12368C0.555265 1.34453 0.506348 1.58123 0.506348 1.82027C0.506348 2.05931 0.555265 2.29601 0.650306 2.51686C0.745347 2.7377 0.884651 2.93837 1.06026 3.10739L18.6148 20L1.06026 36.8926C0.705597 37.234 0.506348 37.697 0.506348 38.1797C0.506348 38.6625 0.705597 39.1255 1.06026 39.4669C1.41493 39.8082 1.89596 40 2.39754 40C2.89911 40 3.38014 39.8082 3.73481 39.4669L21.2856 22.5706L38.8363 39.4669C39.191 39.8082 39.672 40 40.1736 40C40.6752 40 41.1562 39.8082 41.5109 39.4669C41.8655 39.1255 42.0648 38.6625 42.0648 38.1797C42.0648 37.697 41.8655 37.234 41.5109 36.8926L23.9563 20L41.5109 3.10739Z" fill="#ECE0D0"/>
</svg>
